<svg width="54" height="53" viewBox="0 0 54 53" fill="none" xmlns="http://www.w3.org/2000/svg">
<g clip-path="url(#clip0_274_1788)">
<path d="M52.3896 20.3036C51.2119 19.019 49.2136 18.9283 47.9295 20.0996L40.3086 27.0136L44.5712 31.6532L52.1921 24.7392C53.4838 23.5679 53.575 21.5806 52.3972 20.3036H52.3896Z" stroke="black" stroke-width="2.07" stroke-linecap="round" stroke-linejoin="round"/>
<path d="M44.0181 31.0642L40.8428 27.6035L25.4697 41.554L28.645 45.0147L44.0181 31.0642Z" stroke="black" stroke-width="2.07" stroke-linecap="round" stroke-linejoin="round"/>
<path d="M23.3569 46.6525L25.4768 41.5596L28.6452 45.0128L23.3569 46.6525Z" stroke="black" stroke-width="2.07" stroke-linecap="round" stroke-linejoin="round"/>
<path d="M44.7988 35.0691L51.8803 28.6462C52.5565 28.0341 52.6021 26.9914 51.9867 26.3189L51.2876 25.5557" stroke="black" stroke-width="2.07" stroke-linecap="round" stroke-linejoin="round"/>
<path d="M26.4871 7.80566H18.7446" stroke="black" stroke-width="2.07" stroke-linecap="round" stroke-linejoin="round"/>
<path d="M40.5514 21.9133V2.69007C40.5514 1.63218 39.6928 0.77832 38.6291 0.77832H10.8806L0.782715 10.8207V50.31C0.782715 51.3679 1.6413 52.2217 2.70504 52.2217H38.6367C39.7004 52.2217 40.559 51.3679 40.559 50.31V38.6355" stroke="black" stroke-width="2.07" stroke-linecap="round" stroke-linejoin="round"/>
<path d="M8.95832 10.8207H0.782715L10.8806 0.77832V8.90892C10.8806 9.9668 10.0221 10.8207 8.95832 10.8207Z" stroke="black" stroke-width="2.07" stroke-linecap="round" stroke-linejoin="round"/>
<path d="M7.16504 17.7803H34.2372" stroke="black" stroke-width="2.07" stroke-linecap="round" stroke-linejoin="round"/>
<path d="M7.16504 22.5859H34.2372" stroke="black" stroke-width="2.07" stroke-linecap="round" stroke-linejoin="round"/>
<path d="M7.16504 27.3916H34.2372" stroke="black" stroke-width="2.07" stroke-linecap="round" stroke-linejoin="round"/>
<path d="M7.16504 32.1973H27.5129" stroke="black" stroke-width="2.07" stroke-linecap="round" stroke-linejoin="round"/>
<path d="M7.16504 37.0029H24.1697" stroke="black" stroke-width="2.07" stroke-linecap="round" stroke-linejoin="round"/>
<path d="M8.35781 48.1787C9.23919 47.6271 10.9716 46.1083 10.698 43.6373C10.4245 41.1664 8.02349 41.6425 7.49162 42.4812C6.83058 43.524 7.19529 44.7179 8.41099 45.7078C9.75587 46.7959 11.2831 46.6448 12.1113 46.2594C12.9395 45.874 13.213 44.8237 14.102 44.9068C14.9834 44.9899 14.877 45.6549 15.0442 46.1989C15.2113 46.743 15.6976 46.3425 16.1459 46.0856C17.0881 45.5642 19.0712 45.7002 19.8462 46.5239" stroke="black" stroke-width="2.07" stroke-linecap="round" stroke-linejoin="round"/>
</g>
<defs>
<clipPath id="clip0_274_1788">
<rect width="54" height="53" fill="white"/>
</clipPath>
</defs>
</svg>
