<svg width="38" height="39" viewBox="0 0 38 39" fill="none" xmlns="http://www.w3.org/2000/svg">
<g clip-path="url(#clip0_484_4176)">
<path d="M18.5437 22.3572C18.8068 22.5779 19.2015 22.5779 19.4647 22.3572C21.2902 20.8285 27.8936 14.9103 27.8936 9.25361C27.8936 4.47977 23.9135 0.613281 19.0042 0.613281C14.0948 0.613281 10.1147 4.47977 10.1147 9.25361C10.1147 14.9103 16.7181 20.8285 18.5437 22.3572Z" stroke="#232830" stroke-width="1.49" stroke-linecap="round" stroke-linejoin="round"/>
<path d="M19.0041 13.6841C21.5565 13.6841 23.6256 11.6273 23.6256 9.0901C23.6256 6.5529 21.5565 4.49609 19.0041 4.49609C16.4517 4.49609 14.3826 6.5529 14.3826 9.0901C14.3826 11.6273 16.4517 13.6841 19.0041 13.6841Z" stroke="#232830" stroke-width="1.49" stroke-linecap="round" stroke-linejoin="round"/>
<path d="M29.5628 13.2988L32.4903 14.6231L37.3914 38.386L28.1977 34.119L19.0041 38.386L9.81038 34.119L0.616699 38.386L5.5178 14.6231L8.43708 13.2988" stroke="#232830" stroke-width="1.49" stroke-linecap="round" stroke-linejoin="round"/>
<path d="M19.0042 38.3865V24.9805" stroke="#232830" stroke-width="1.49" stroke-linecap="round" stroke-linejoin="round"/>
<path d="M11.4963 18.6055L9.81055 34.1205" stroke="#232830" stroke-width="1.49" stroke-linecap="round" stroke-linejoin="round"/>
<path d="M28.1977 34.1205L26.512 18.6055" stroke="#232830" stroke-width="1.49" stroke-linecap="round" stroke-linejoin="round"/>
</g>
<defs>
<clipPath id="clip0_484_4176">
<rect width="38" height="39" fill="white"/>
</clipPath>
</defs>
</svg>
