<svg width="53" height="51" viewBox="0 0 53 51" fill="none" xmlns="http://www.w3.org/2000/svg">
<path d="M31.0718 19.3064C31.6544 18.5083 31.9618 17.6522 32.1075 16.7235C34.4702 14.8661 37.6421 14.0826 40.7493 14.3437C41.5585 18.5083 46.5753 18.4503 50.2003 17.9859C50.8638 17.9134 51.236 17.391 51.0095 16.8541C50.346 15.403 49.4559 14.01 48.4202 12.7476C50.4107 11.6157 51.8834 7.84294 52.0452 7.39311C52.2718 6.92877 51.8186 6.33383 51.236 6.33383C50.7182 6.26127 46.284 5.94204 44.3744 7.05936C42.4485 8.1912 41.4937 10.0341 42.0925 11.5577C41.5747 11.8914 41.2834 12.1526 41.0568 12.6895C39.5032 12.4864 37.8849 12.617 36.3313 12.9507C36.5579 12.022 36.7682 10.7596 36.9139 9.56972C41.9307 10.4984 42.8208 4.47645 42.5295 1.35665C42.4486 0.834262 41.866 0.427961 41.2672 0.631111C39.3414 1.1535 37.4965 2.02414 35.9591 3.08342C34.5511 1.89354 32.9328 0.834261 31.2336 0.108725C30.7157 -0.152468 30.0522 0.108725 29.9066 0.631111C29.0974 3.54777 29.3887 11.4851 35.069 9.30852C34.9234 10.7596 34.6321 12.1526 34.2598 13.5457C32.9328 14.068 31.6705 14.7355 30.6348 15.6642C27.3173 17.6522 25.6827 17.5796 22.3652 15.6642C21.3295 14.8081 20.0834 14.0826 18.7402 13.5457C18.3679 12.1526 18.0766 10.7596 17.931 9.30852C23.4009 11.4271 23.9835 4.01211 23.0934 0.631111C22.9478 0.108725 22.2843 -0.166979 21.7664 0.108725C20.0024 0.834261 18.4489 1.89354 17.0409 3.08342C15.4226 2.02414 13.6424 1.16801 11.6519 0.631111C11.0693 0.427961 10.4705 0.834262 10.4705 1.35665C10.1792 4.46194 11.0531 10.5564 16.0052 9.56972C16.2318 10.7596 16.3774 12.022 16.5878 12.9507C15.1151 12.617 13.5615 12.4864 12.0079 12.617C11.7814 12.1526 11.4253 11.8914 10.9722 11.5577C11.5548 10.0341 10.6 8.17669 8.69038 7.05936C6.76458 5.92753 2.34657 6.26127 1.8287 6.33383C1.24611 6.33383 0.792977 6.92877 1.01954 7.39311C1.68305 9.11989 2.94534 11.6883 4.64458 12.7476C3.60885 14.01 2.71878 15.3885 2.05527 16.8541C1.8287 17.3765 2.20092 17.9134 2.79969 17.9859C6.48947 18.4503 11.5872 18.5083 12.3154 14.3437C15.3417 14.0826 18.5136 14.8661 20.8116 16.7235C20.9573 17.6522 21.3295 18.5083 21.8473 19.2339C15.5035 17.5796 9.45099 19.6982 4.49893 23.3984C4.12672 23.6596 3.83542 24.124 3.83542 24.5883C1.90962 24.5883 0.0647328 24.9801 0 27.0987V48.2843C0.080916 49.6774 1.32702 50.7947 2.88061 50.7947H25.1002C25.618 50.7947 26.055 50.6641 26.5081 50.4609C26.945 50.6641 27.4629 50.7947 27.9808 50.7947H50.2003C51.7539 50.7947 53 49.6628 53 48.2843V27.0987C53 24.9801 51.0742 24.5883 49.2293 24.5883C49.2293 24.5883 42.3676 16.9702 31.0718 19.2919V19.3064ZM44.2125 16.056C43.1768 15.4611 41.7041 13.6763 43.1768 12.9507C46.0574 14.7355 46.3487 11.4996 48.7114 16.4623C47.0931 16.5349 45.0864 16.5349 44.2125 16.0705V16.056ZM45.313 8.45239C46.9313 7.85745 48.1127 7.85745 49.8119 7.93001C49.1484 9.25048 48.1936 10.8467 47.3682 11.311C44.4229 13.1684 42.1249 10.3243 45.2968 8.4669L45.313 8.45239ZM40.6684 2.61908C40.6684 4.14271 39.7136 9.64227 36.833 7.71235C37.2699 6.78366 37.2052 5.59378 36.9139 4.66509C37.6583 3.80896 39.5679 3.01087 40.6846 2.61908H40.6684ZM31.4278 2.15474C33.3536 3.14147 35.6354 4.4039 35.1985 6.72562C34.8263 8.97478 30.3273 8.17669 31.4278 2.15474ZM21.4751 2.15474C22.9478 10.0341 15.9405 8.56848 18.0766 4.73765C18.5136 3.93956 20.1481 2.88027 21.4751 2.15474ZM12.2345 2.61908C13.9337 3.21402 14.7429 3.54777 16.0699 4.66509C15.6977 5.59378 15.6977 6.78366 16.1508 7.71235C13.2702 9.62776 12.2345 4.14271 12.2345 2.61908ZM3.23664 7.91549C4.85496 7.84294 6.86168 7.98805 7.67084 8.43788C10.8427 10.2953 8.7713 13.1394 5.68031 11.282C4.79023 10.8176 3.91634 9.23597 3.23664 7.90098V7.91549ZM8.7713 16.056C7.96214 16.5204 5.9716 16.5204 4.3371 16.4478C4.85496 15.316 5.59939 14.3292 6.47328 13.4005C7.65466 13.6617 8.83603 13.5311 9.79084 12.9362C11.2635 13.6617 9.93649 15.5772 8.75511 16.0415L8.7713 16.056ZM26.4919 32.8739C21.4751 29.7686 21.5398 26.5908 26.4919 23.471C31.444 26.5763 31.444 29.7541 26.4919 32.8739ZM23.32 18.044C25.4562 19.1033 27.4467 19.1033 29.6638 18.044C28.8547 19.3645 27.8998 20.3657 26.4919 21.1493C24.8736 20.2206 24.2748 19.4951 23.32 18.044ZM24.8574 33.9332C23.3847 35.0651 20.7954 37.3723 20.7954 39.8246C20.7954 40.9564 22.7212 40.9564 22.7212 39.8246C22.7212 38.0398 25.084 35.9792 26.4919 34.92C27.8998 35.9792 30.2626 38.0252 30.2626 39.8246C30.2626 40.9564 32.1884 40.9564 32.1884 39.8246C32.1884 37.3723 29.5991 35.0651 28.0617 33.9332C33.4507 30.233 33.4507 26.1265 28.0617 22.4117C33.4507 18.1165 42.5295 21.0912 47.3359 24.7334V45.7159C40.9111 41.3482 33.5316 41.2757 26.5243 45.5853C19.5169 41.2902 12.1212 41.3482 5.71267 45.7159V24.6609C10.5838 21.0912 19.5979 18.102 24.9869 22.4117C19.5169 26.1845 19.3713 30.0879 24.906 33.9332H24.8574ZM43.905 45.7159H29.8742C34.2275 43.5248 39.5518 43.5248 43.905 45.7159ZM23.1744 45.7159H9.14351C13.4968 43.5248 18.8211 43.5248 23.1744 45.7159ZM51.1389 48.2988C51.1389 48.7632 50.702 49.155 50.1841 49.155H27.9646C27.382 49.155 27.3011 48.7632 26.8641 48.56C26.5728 48.4875 26.2815 48.4875 25.974 48.6906C25.6827 48.8938 25.5371 49.155 25.084 49.155H2.86443C2.34656 49.155 1.90962 48.7632 1.90962 48.2988V27.1132C1.90962 26.1265 3.09099 26.257 3.83542 26.257V45.7159C3.83542 46.7027 4.64458 47.4427 5.68031 47.4427H47.3197C48.4202 47.4427 49.2455 46.7172 49.2455 45.7159V26.257C49.9899 26.257 51.1713 26.1265 51.1713 27.1132V48.2988H51.1389Z" fill="#231F20"/>
<mask id="mask0_631_2794" style="mask-type:luminance" maskUnits="userSpaceOnUse" x="0" y="0" width="53" height="51">
<path d="M31.0718 19.3064C31.6544 18.5083 31.9618 17.6522 32.1075 16.7235C34.4702 14.8661 37.6421 14.0826 40.7493 14.3437C41.5585 18.5083 46.5753 18.4503 50.2003 17.9859C50.8638 17.9134 51.236 17.391 51.0095 16.8541C50.346 15.403 49.4559 14.01 48.4202 12.7476C50.4107 11.6157 51.8834 7.84294 52.0452 7.39311C52.2718 6.92877 51.8186 6.33383 51.236 6.33383C50.7182 6.26127 46.284 5.94204 44.3744 7.05936C42.4485 8.1912 41.4937 10.0341 42.0925 11.5577C41.5747 11.8914 41.2834 12.1526 41.0568 12.6895C39.5032 12.4864 37.8849 12.617 36.3313 12.9507C36.5579 12.022 36.7682 10.7596 36.9139 9.56972C41.9307 10.4984 42.8208 4.47645 42.5295 1.35665C42.4486 0.834262 41.866 0.427961 41.2672 0.631111C39.3414 1.1535 37.4965 2.02414 35.9591 3.08342C34.5511 1.89354 32.9328 0.834261 31.2336 0.108725C30.7157 -0.152468 30.0522 0.108725 29.9066 0.631111C29.0974 3.54777 29.3887 11.4851 35.069 9.30852C34.9234 10.7596 34.6321 12.1526 34.2598 13.5457C32.9328 14.068 31.6705 14.7355 30.6348 15.6642C27.3173 17.6522 25.6827 17.5796 22.3652 15.6642C21.3295 14.8081 20.0834 14.0826 18.7402 13.5457C18.3679 12.1526 18.0766 10.7596 17.931 9.30852C23.4009 11.4271 23.9835 4.01211 23.0934 0.631111C22.9478 0.108725 22.2843 -0.166979 21.7664 0.108725C20.0024 0.834261 18.4489 1.89354 17.0409 3.08342C15.4226 2.02414 13.6424 1.16801 11.6519 0.631111C11.0693 0.427961 10.4705 0.834262 10.4705 1.35665C10.1792 4.46194 11.0531 10.5564 16.0052 9.56972C16.2318 10.7596 16.3774 12.022 16.5878 12.9507C15.1151 12.617 13.5615 12.4864 12.0079 12.617C11.7814 12.1526 11.4253 11.8914 10.9722 11.5577C11.5548 10.0341 10.6 8.17669 8.69038 7.05936C6.76458 5.92753 2.34657 6.26127 1.8287 6.33383C1.24611 6.33383 0.792977 6.92877 1.01954 7.39311C1.68305 9.11989 2.94534 11.6883 4.64458 12.7476C3.60885 14.01 2.71878 15.3885 2.05527 16.8541C1.8287 17.3765 2.20092 17.9134 2.79969 17.9859C6.48947 18.4503 11.5872 18.5083 12.3154 14.3437C15.3417 14.0826 18.5136 14.8661 20.8116 16.7235C20.9573 17.6522 21.3295 18.5083 21.8473 19.2339C15.5035 17.5796 9.45099 19.6982 4.49893 23.3984C4.12672 23.6596 3.83542 24.124 3.83542 24.5883C1.90962 24.5883 0.0647328 24.9801 0 27.0987V48.2843C0.080916 49.6774 1.32702 50.7947 2.88061 50.7947H25.1002C25.618 50.7947 26.055 50.6641 26.5081 50.4609C26.945 50.6641 27.4629 50.7947 27.9808 50.7947H50.2003C51.7539 50.7947 53 49.6628 53 48.2843V27.0987C53 24.9801 51.0742 24.5883 49.2293 24.5883C49.2293 24.5883 42.3676 16.9702 31.0718 19.2919V19.3064ZM44.2125 16.056C43.1768 15.4611 41.7041 13.6763 43.1768 12.9507C46.0574 14.7355 46.3487 11.4996 48.7114 16.4623C47.0931 16.5349 45.0864 16.5349 44.2125 16.0705V16.056ZM45.313 8.45239C46.9313 7.85745 48.1127 7.85745 49.8119 7.93001C49.1484 9.25048 48.1936 10.8467 47.3682 11.311C44.4229 13.1684 42.1249 10.3243 45.2968 8.4669L45.313 8.45239ZM40.6684 2.61908C40.6684 4.14271 39.7136 9.64227 36.833 7.71235C37.2699 6.78366 37.2052 5.59378 36.9139 4.66509C37.6583 3.80896 39.5679 3.01087 40.6846 2.61908H40.6684ZM31.4278 2.15474C33.3536 3.14147 35.6354 4.4039 35.1985 6.72562C34.8263 8.97478 30.3273 8.17669 31.4278 2.15474ZM21.4751 2.15474C22.9478 10.0341 15.9405 8.56848 18.0766 4.73765C18.5136 3.93956 20.1481 2.88027 21.4751 2.15474ZM12.2345 2.61908C13.9337 3.21402 14.7429 3.54777 16.0699 4.66509C15.6977 5.59378 15.6977 6.78366 16.1508 7.71235C13.2702 9.62776 12.2345 4.14271 12.2345 2.61908ZM3.23664 7.91549C4.85496 7.84294 6.86168 7.98805 7.67084 8.43788C10.8427 10.2953 8.7713 13.1394 5.68031 11.282C4.79023 10.8176 3.91634 9.23597 3.23664 7.90098V7.91549ZM8.7713 16.056C7.96214 16.5204 5.9716 16.5204 4.3371 16.4478C4.85496 15.316 5.59939 14.3292 6.47328 13.4005C7.65466 13.6617 8.83603 13.5311 9.79084 12.9362C11.2635 13.6617 9.93649 15.5772 8.75511 16.0415L8.7713 16.056ZM26.4919 32.8739C21.4751 29.7686 21.5398 26.5908 26.4919 23.471C31.444 26.5763 31.444 29.7541 26.4919 32.8739ZM23.32 18.044C25.4562 19.1033 27.4467 19.1033 29.6638 18.044C28.8547 19.3645 27.8998 20.3657 26.4919 21.1493C24.8736 20.2206 24.2748 19.4951 23.32 18.044ZM24.8574 33.9332C23.3847 35.0651 20.7954 37.3723 20.7954 39.8246C20.7954 40.9564 22.7212 40.9564 22.7212 39.8246C22.7212 38.0398 25.084 35.9792 26.4919 34.92C27.8998 35.9792 30.2626 38.0252 30.2626 39.8246C30.2626 40.9564 32.1884 40.9564 32.1884 39.8246C32.1884 37.3723 29.5991 35.0651 28.0617 33.9332C33.4507 30.233 33.4507 26.1265 28.0617 22.4117C33.4507 18.1165 42.5295 21.0912 47.3359 24.7334V45.7159C40.9111 41.3482 33.5316 41.2757 26.5243 45.5853C19.5169 41.2902 12.1212 41.3482 5.71267 45.7159V24.6609C10.5838 21.0912 19.5979 18.102 24.9869 22.4117C19.5169 26.1845 19.3713 30.0879 24.906 33.9332H24.8574ZM43.905 45.7159H29.8742C34.2275 43.5248 39.5518 43.5248 43.905 45.7159ZM23.1744 45.7159H9.14351C13.4968 43.5248 18.8211 43.5248 23.1744 45.7159ZM51.1389 48.2988C51.1389 48.7632 50.702 49.155 50.1841 49.155H27.9646C27.382 49.155 27.3011 48.7632 26.8641 48.56C26.5728 48.4875 26.2815 48.4875 25.974 48.6906C25.6827 48.8938 25.5371 49.155 25.084 49.155H2.86443C2.34656 49.155 1.90962 48.7632 1.90962 48.2988V27.1132C1.90962 26.1265 3.09099 26.257 3.83542 26.257V45.7159C3.83542 46.7027 4.64458 47.4427 5.68031 47.4427H47.3197C48.4202 47.4427 49.2455 46.7172 49.2455 45.7159V26.257C49.9899 26.257 51.1713 26.1265 51.1713 27.1132V48.2988H51.1389Z" fill="white"/>
</mask>
<g mask="url(#mask0_631_2794)">
<path d="M0.404161 -0.152344H-0.0166016V50.8093H0.404161V-0.152344Z" fill="#231F20"/>
<path d="M0.824572 -0.152344H0.403809V50.8093H0.824572V-0.152344Z" fill="#231F20"/>
<path d="M1.22985 -0.152344H0.809082V50.8093H1.22985V-0.152344Z" fill="#231F20"/>
<path d="M1.65026 -0.152344H1.22949V50.8093H1.65026V-0.152344Z" fill="#231F20"/>
<path d="M2.07164 -0.152344H1.65088V50.8093H2.07164V-0.152344Z" fill="#231F20"/>
<path d="M2.47594 -0.152344H2.05518V50.8093H2.47594V-0.152344Z" fill="#231F20"/>
<path d="M2.89586 -0.152344H2.4751V50.8093H2.89586V-0.152344Z" fill="#231F20"/>
<path d="M3.30113 -0.152344H2.88037V50.8093H3.30113V-0.152344Z" fill="#231F20"/>
<path d="M3.72154 -0.152344H3.30078V50.8093H3.72154V-0.152344Z" fill="#231F20"/>
<path d="M4.12584 -0.152344H3.70508V50.8093H4.12584V-0.152344Z" fill="#231F20"/>
<path d="M4.54723 -0.152344H4.12646V50.8093H4.54723V-0.152344Z" fill="#231F20"/>
<path d="M4.96764 -0.152344H4.54688V50.8093H4.96764V-0.152344Z" fill="#231F20"/>
<path d="M5.37291 -0.152344H4.95215V50.8093H5.37291V-0.152344Z" fill="#231F20"/>
<path d="M5.79332 -0.152344H5.37256V50.8093H5.79332V-0.152344Z" fill="#231F20"/>
<path d="M6.19713 -0.152344H5.77637V50.8093H6.19713V-0.152344Z" fill="#231F20"/>
<path d="M6.61901 -0.152344H6.19824V50.8093H6.61901V-0.152344Z" fill="#231F20"/>
<path d="M7.03893 -0.152344H6.61816V50.8093H7.03893V-0.152344Z" fill="#231F20"/>
<path d="M7.44322 -0.152344H7.02246V50.8093H7.44322V-0.152344Z" fill="#231F20"/>
<path d="M7.86461 -0.152344H7.44385V50.8093H7.86461V-0.152344Z" fill="#231F20"/>
<path d="M8.26891 -0.152344H7.84814V50.8093H8.26891V-0.152344Z" fill="#231F20"/>
<path d="M8.68932 -0.152344H8.26855V50.8093H8.68932V-0.152344Z" fill="#231F20"/>
<path d="M9.11071 -0.152344H8.68994V50.8093H9.11071V-0.152344Z" fill="#231F20"/>
<path d="M9.515 -0.152344H9.09424V50.8093H9.515V-0.152344Z" fill="#231F20"/>
<path d="M9.93639 -0.152344H9.51562V50.8093H9.93639V-0.152344Z" fill="#231F20"/>
<path d="M10.3402 -0.152344H9.91943V50.8093H10.3402V-0.152344Z" fill="#231F20"/>
<path d="M10.7621 -0.152344H10.3413V50.8093H10.7621V-0.152344Z" fill="#231F20"/>
<path d="M11.1659 -0.152344H10.7451V50.8093H11.1659V-0.152344Z" fill="#231F20"/>
<path d="M11.5863 -0.152344H11.1655V50.8093H11.5863V-0.152344Z" fill="#231F20"/>
<path d="M12.0077 -0.152344H11.5869V50.8093H12.0077V-0.152344Z" fill="#231F20"/>
<path d="M12.412 -0.152344H11.9912V50.8093H12.412V-0.152344Z" fill="#231F20"/>
<path d="M12.8334 -0.152344H12.4126V50.8093H12.8334V-0.152344Z" fill="#231F20"/>
<path d="M13.2377 -0.152344H12.8169V50.8093H13.2377V-0.152344Z" fill="#231F20"/>
<path d="M13.6581 -0.152344H13.2373V50.8093H13.6581V-0.152344Z" fill="#231F20"/>
<path d="M14.0795 -0.152344H13.6587V50.8093H14.0795V-0.152344Z" fill="#231F20"/>
<path d="M14.4838 -0.152344H14.063V50.8093H14.4838V-0.152344Z" fill="#231F20"/>
<path d="M14.9037 -0.152344H14.4829V50.8093H14.9037V-0.152344Z" fill="#231F20"/>
<path d="M15.3089 -0.152344H14.8882V50.8093H15.3089V-0.152344Z" fill="#231F20"/>
<path d="M15.7294 -0.152344H15.3086V50.8093H15.7294V-0.152344Z" fill="#231F20"/>
<path d="M16.1507 -0.152344H15.73V50.8093H16.1507V-0.152344Z" fill="#231F20"/>
<path d="M16.555 -0.152344H16.1343V50.8093H16.555V-0.152344Z" fill="#231F20"/>
<path d="M16.9755 -0.152344H16.5547V50.8093H16.9755V-0.152344Z" fill="#231F20"/>
<path d="M17.3807 -0.152344H16.96V50.8093H17.3807V-0.152344Z" fill="#231F20"/>
<path d="M17.8011 -0.152344H17.3804V50.8093H17.8011V-0.152344Z" fill="#231F20"/>
<path d="M18.2049 -0.152344H17.7842V50.8093H18.2049V-0.152344Z" fill="#231F20"/>
<path d="M18.6268 -0.152344H18.2061V50.8093H18.6268V-0.152344Z" fill="#231F20"/>
<path d="M19.0467 -0.152344H18.626V50.8093H19.0467V-0.152344Z" fill="#231F20"/>
<path d="M19.451 -0.152344H19.0303V50.8093H19.451V-0.152344Z" fill="#231F20"/>
<path d="M19.8724 -0.152344H19.4517V50.8093H19.8724V-0.152344Z" fill="#231F20"/>
<path d="M20.2767 -0.152344H19.856V50.8093H20.2767V-0.152344Z" fill="#231F20"/>
<path d="M20.6981 -0.152344H20.2773V50.8093H20.6981V-0.152344Z" fill="#231F20"/>
<path d="M21.1185 -0.152344H20.6978V50.8093H21.1185V-0.152344Z" fill="#231F20"/>
<path d="M21.5238 -0.152344H21.103V50.8093H21.5238V-0.152344Z" fill="#231F20"/>
<path d="M21.9442 -0.152344H21.5234V50.8093H21.9442V-0.152344Z" fill="#231F20"/>
<path d="M22.348 -0.152344H21.9272V50.8093H22.348V-0.152344Z" fill="#231F20"/>
<path d="M22.7699 -0.152344H22.3491V50.8093H22.7699V-0.152344Z" fill="#231F20"/>
<path d="M23.1898 -0.152344H22.769V50.8093H23.1898V-0.152344Z" fill="#231F20"/>
<path d="M23.5956 -0.152344H23.1748V50.8093H23.5956V-0.152344Z" fill="#231F20"/>
<path d="M24.0155 -0.152344H23.5947V50.8093H24.0155V-0.152344Z" fill="#231F20"/>
<path d="M24.4198 -0.152344H23.999V50.8093H24.4198V-0.152344Z" fill="#231F20"/>
<path d="M24.8412 -0.152344H24.4204V50.8093H24.8412V-0.152344Z" fill="#231F20"/>
<path d="M25.2455 -0.152344H24.8247V50.8093H25.2455V-0.152344Z" fill="#231F20"/>
<path d="M25.6659 -0.152344H25.2451V50.8093H25.6659V-0.152344Z" fill="#231F20"/>
<path d="M26.0873 -0.152344H25.6665V50.8093H26.0873V-0.152344Z" fill="#231F20"/>
<path d="M26.4916 -0.152344H26.0708V50.8093H26.4916V-0.152344Z" fill="#231F20"/>
<path d="M26.9115 -0.152344H26.4907V50.8093H26.9115V-0.152344Z" fill="#231F20"/>
<path d="M27.3168 -0.152344H26.896V50.8093H27.3168V-0.152344Z" fill="#231F20"/>
<path d="M27.7372 -0.152344H27.3164V50.8093H27.7372V-0.152344Z" fill="#231F20"/>
<path d="M28.1586 -0.152344H27.7378V50.8093H28.1586V-0.152344Z" fill="#231F20"/>
<path d="M28.5629 -0.152344H28.1421V50.8093H28.5629V-0.152344Z" fill="#231F20"/>
<path d="M28.9833 -0.152344H28.5625V50.8093H28.9833V-0.152344Z" fill="#231F20"/>
<path d="M29.3885 -0.152344H28.9678V50.8093H29.3885V-0.152344Z" fill="#231F20"/>
<path d="M29.8089 -0.152344H29.3882V50.8093H29.8089V-0.152344Z" fill="#231F20"/>
<path d="M30.2289 -0.152344H29.8081V50.8093H30.2289V-0.152344Z" fill="#231F20"/>
<path d="M30.6346 -0.152344H30.2139V50.8093H30.6346V-0.152344Z" fill="#231F20"/>
<path d="M31.0546 -0.152344H30.6338V50.8093H31.0546V-0.152344Z" fill="#231F20"/>
<path d="M31.4603 -0.152344H31.0396V50.8093H31.4603V-0.152344Z" fill="#231F20"/>
<path d="M31.8802 -0.152344H31.4595V50.8093H31.8802V-0.152344Z" fill="#231F20"/>
<path d="M32.3016 -0.152344H31.8809V50.8093H32.3016V-0.152344Z" fill="#231F20"/>
<path d="M32.7059 -0.152344H32.2852V50.8093H32.7059V-0.152344Z" fill="#231F20"/>
<path d="M33.1263 -0.152344H32.7056V50.8093H33.1263V-0.152344Z" fill="#231F20"/>
<path d="M33.5316 -0.152344H33.1108V50.8093H33.5316V-0.152344Z" fill="#231F20"/>
<path d="M33.952 -0.152344H33.5312V50.8093H33.952V-0.152344Z" fill="#231F20"/>
<path d="M34.3573 -0.152344H33.9365V50.8093H34.3573V-0.152344Z" fill="#231F20"/>
<path d="M34.7777 -0.152344H34.3569V50.8093H34.7777V-0.152344Z" fill="#231F20"/>
<path d="M35.1976 -0.152344H34.7769V50.8093H35.1976V-0.152344Z" fill="#231F20"/>
<path d="M35.6034 -0.152344H35.1826V50.8093H35.6034V-0.152344Z" fill="#231F20"/>
<path d="M36.0233 -0.152344H35.6025V50.8093H36.0233V-0.152344Z" fill="#231F20"/>
<path d="M36.4276 -0.152344H36.0068V50.8093H36.4276V-0.152344Z" fill="#231F20"/>
<path d="M36.849 -0.152344H36.4282V50.8093H36.849V-0.152344Z" fill="#231F20"/>
<path d="M37.2694 -0.152344H36.8486V50.8093H37.2694V-0.152344Z" fill="#231F20"/>
<path d="M37.6737 -0.152344H37.2529V50.8093H37.6737V-0.152344Z" fill="#231F20"/>
<path d="M38.0951 -0.152344H37.6743V50.8093H38.0951V-0.152344Z" fill="#231F20"/>
<path d="M38.4994 -0.152344H38.0786V50.8093H38.4994V-0.152344Z" fill="#231F20"/>
<path d="M38.9208 -0.152344H38.5V50.8093H38.9208V-0.152344Z" fill="#231F20"/>
<path d="M39.3407 -0.152344H38.9199V50.8093H39.3407V-0.152344Z" fill="#231F20"/>
<path d="M39.745 -0.152344H39.3242V50.8093H39.745V-0.152344Z" fill="#231F20"/>
<path d="M40.1664 -0.152344H39.7456V50.8093H40.1664V-0.152344Z" fill="#231F20"/>
<path d="M40.5707 -0.152344H40.1499V50.8093H40.5707V-0.152344Z" fill="#231F20"/>
<path d="M40.9911 -0.152344H40.5703V50.8093H40.9911V-0.152344Z" fill="#231F20"/>
<path d="M41.3963 -0.152344H40.9756V50.8093H41.3963V-0.152344Z" fill="#231F20"/>
<path d="M41.8168 -0.152344H41.396V50.8093H41.8168V-0.152344Z" fill="#231F20"/>
<path d="M42.2381 -0.152344H41.8174V50.8093H42.2381V-0.152344Z" fill="#231F20"/>
<path d="M42.6424 -0.152344H42.2217V50.8093H42.6424V-0.152344Z" fill="#231F20"/>
<path d="M43.0624 -0.152344H42.6416V50.8093H43.0624V-0.152344Z" fill="#231F20"/>
<path d="M43.4681 -0.152344H43.0474V50.8093H43.4681V-0.152344Z" fill="#231F20"/>
<path d="M43.8881 -0.152344H43.4673V50.8093H43.8881V-0.152344Z" fill="#231F20"/>
<path d="M44.3094 -0.152344H43.8887V50.8093H44.3094V-0.152344Z" fill="#231F20"/>
<path d="M44.7137 -0.152344H44.293V50.8093H44.7137V-0.152344Z" fill="#231F20"/>
<path d="M45.1351 -0.152344H44.7144V50.8093H45.1351V-0.152344Z" fill="#231F20"/>
<path d="M45.5394 -0.152344H45.1187V50.8093H45.5394V-0.152344Z" fill="#231F20"/>
<path d="M45.9598 -0.152344H45.5391V50.8093H45.9598V-0.152344Z" fill="#231F20"/>
<path d="M46.3812 -0.152344H45.9604V50.8093H46.3812V-0.152344Z" fill="#231F20"/>
<path d="M46.7855 -0.152344H46.3647V50.8093H46.7855V-0.152344Z" fill="#231F20"/>
<path d="M47.2054 -0.152344H46.7847V50.8093H47.2054V-0.152344Z" fill="#231F20"/>
<path d="M47.6112 -0.152344H47.1904V50.8093H47.6112V-0.152344Z" fill="#231F20"/>
<path d="M48.0311 -0.152344H47.6104V50.8093H48.0311V-0.152344Z" fill="#231F20"/>
<path d="M48.4354 -0.152344H48.0146V50.8093H48.4354V-0.152344Z" fill="#231F20"/>
<path d="M48.8568 -0.152344H48.436V50.8093H48.8568V-0.152344Z" fill="#231F20"/>
<path d="M49.2772 -0.152344H48.8564V50.8093H49.2772V-0.152344Z" fill="#231F20"/>
<path d="M49.6815 -0.152344H49.2607V50.8093H49.6815V-0.152344Z" fill="#231F20"/>
<path d="M50.1029 -0.152344H49.6821V50.8093H50.1029V-0.152344Z" fill="#231F20"/>
<path d="M50.5072 -0.152344H50.0864V50.8093H50.5072V-0.152344Z" fill="#231F20"/>
<path d="M50.9286 -0.152344H50.5078V50.8093H50.9286V-0.152344Z" fill="#231F20"/>
<path d="M51.3485 -0.152344H50.9277V50.8093H51.3485V-0.152344Z" fill="#231F20"/>
<path d="M51.7528 -0.152344H51.332V50.8093H51.7528V-0.152344Z" fill="#231F20"/>
<path d="M52.1742 -0.152344H51.7534V50.8093H52.1742V-0.152344Z" fill="#231F20"/>
<path d="M52.5785 -0.152344H52.1577V50.8093H52.5785V-0.152344Z" fill="#231F20"/>
<path d="M52.9999 -0.152344H52.5791V50.8093H52.9999V-0.152344Z" fill="#231F20"/>
</g>
<path d="M24.0487 25.9964C23.903 26.127 23.903 26.3882 24.0487 26.5188L28.402 30.4222C28.5476 30.5528 28.7742 30.5528 28.9198 30.4222C29.0655 30.2916 29.0655 30.0304 28.9198 29.8998L24.6313 25.9964C24.4856 25.8658 24.1943 25.8658 24.0487 25.9964Z" fill="#231F20"/>
<mask id="mask1_631_2794" style="mask-type:luminance" maskUnits="userSpaceOnUse" x="23" y="25" width="7" height="6">
<path d="M24.0487 25.9964C23.903 26.127 23.903 26.3882 24.0487 26.5188L28.402 30.4222C28.5476 30.5528 28.7742 30.5528 28.9198 30.4222C29.0655 30.2916 29.0655 30.0304 28.9198 29.8998L24.6313 25.9964C24.4856 25.8658 24.1943 25.8658 24.0487 25.9964Z" fill="white"/>
</mask>
<g mask="url(#mask1_631_2794)">
<path d="M23.9833 25.8516H23.9023V30.553H23.9833V25.8516Z" fill="#231F20"/>
<path d="M24.0158 25.8516H23.9834V30.553H24.0158V25.8516Z" fill="#231F20"/>
<path d="M24.0641 25.8516H24.0317V30.553H24.0641V25.8516Z" fill="#231F20"/>
<path d="M24.0973 25.8516H24.0649V30.553H24.0973V25.8516Z" fill="#231F20"/>
<path d="M24.1452 25.8516H24.1128V30.553H24.1452V25.8516Z" fill="#231F20"/>
<path d="M24.1774 25.8516H24.145V30.553H24.1774V25.8516Z" fill="#231F20"/>
<path d="M24.2267 25.8516H24.1943V30.553H24.2267V25.8516Z" fill="#231F20"/>
<path d="M24.2589 25.8516H24.2266V30.553H24.2589V25.8516Z" fill="#231F20"/>
<path d="M24.3068 25.8516H24.2744V30.553H24.3068V25.8516Z" fill="#231F20"/>
<path d="M24.339 25.8516H24.3066V30.553H24.339V25.8516Z" fill="#231F20"/>
<path d="M24.3883 25.8516H24.356V30.553H24.3883V25.8516Z" fill="#231F20"/>
<path d="M24.4201 25.8516H24.3877V30.553H24.4201V25.8516Z" fill="#231F20"/>
<path d="M24.4694 25.8516H24.437V30.553H24.4694V25.8516Z" fill="#231F20"/>
<path d="M24.5016 25.8516H24.4692V30.553H24.5016V25.8516Z" fill="#231F20"/>
<path d="M24.5495 25.8516H24.5171V30.553H24.5495V25.8516Z" fill="#231F20"/>
<path d="M24.5827 25.8516H24.5503V30.553H24.5827V25.8516Z" fill="#231F20"/>
<path d="M24.631 25.8516H24.5986V30.553H24.631V25.8516Z" fill="#231F20"/>
<path d="M24.6627 25.8516H24.6304V30.553H24.6627V25.8516Z" fill="#231F20"/>
<path d="M24.7111 25.8516H24.6787V30.553H24.7111V25.8516Z" fill="#231F20"/>
<path d="M24.7443 25.8516H24.7119V30.553H24.7443V25.8516Z" fill="#231F20"/>
<path d="M24.7921 25.8516H24.7598V30.553H24.7921V25.8516Z" fill="#231F20"/>
<path d="M24.8258 25.8516H24.7935V30.553H24.8258V25.8516Z" fill="#231F20"/>
<path d="M24.8737 25.8516H24.8413V30.553H24.8737V25.8516Z" fill="#231F20"/>
<path d="M24.9059 25.8516H24.8735V30.553H24.9059V25.8516Z" fill="#231F20"/>
<path d="M24.9552 25.8516H24.9229V30.553H24.9552V25.8516Z" fill="#231F20"/>
<path d="M24.987 25.8516H24.9546V30.553H24.987V25.8516Z" fill="#231F20"/>
<path d="M25.0353 25.8516H25.0029V30.553H25.0353V25.8516Z" fill="#231F20"/>
<path d="M25.067 25.8516H25.0347V30.553H25.067V25.8516Z" fill="#231F20"/>
<path d="M25.1164 25.8516H25.084V30.553H25.1164V25.8516Z" fill="#231F20"/>
<path d="M25.1486 25.8516H25.1162V30.553H25.1486V25.8516Z" fill="#231F20"/>
<path d="M25.1964 25.8516H25.1641V30.553H25.1964V25.8516Z" fill="#231F20"/>
<path d="M25.2296 25.8516H25.1973V30.553H25.2296V25.8516Z" fill="#231F20"/>
<path d="M25.278 25.8516H25.2456V30.553H25.278V25.8516Z" fill="#231F20"/>
<path d="M25.3112 25.8516H25.2788V30.553H25.3112V25.8516Z" fill="#231F20"/>
<path d="M25.359 25.8516H25.3267V30.553H25.359V25.8516Z" fill="#231F20"/>
<path d="M25.3913 25.8516H25.3589V30.553H25.3913V25.8516Z" fill="#231F20"/>
<path d="M25.4235 25.8516H25.3911V30.553H25.4235V25.8516Z" fill="#231F20"/>
<path d="M25.4728 25.8516H25.4404V30.553H25.4728V25.8516Z" fill="#231F20"/>
<path d="M25.5045 25.8516H25.4722V30.553H25.5045V25.8516Z" fill="#231F20"/>
<path d="M25.5529 25.8516H25.5205V30.553H25.5529V25.8516Z" fill="#231F20"/>
<path d="M25.5861 25.8516H25.5537V30.553H25.5861V25.8516Z" fill="#231F20"/>
<path d="M25.6339 25.8516H25.6016V30.553H25.6339V25.8516Z" fill="#231F20"/>
<path d="M25.6662 25.8516H25.6338V30.553H25.6662V25.8516Z" fill="#231F20"/>
<path d="M25.7155 25.8516H25.6831V30.553H25.7155V25.8516Z" fill="#231F20"/>
<path d="M25.7472 25.8516H25.7148V30.553H25.7472V25.8516Z" fill="#231F20"/>
<path d="M25.7956 25.8516H25.7632V30.553H25.7956V25.8516Z" fill="#231F20"/>
<path d="M25.8288 25.8516H25.7964V30.553H25.8288V25.8516Z" fill="#231F20"/>
<path d="M25.8766 25.8516H25.8442V30.553H25.8766V25.8516Z" fill="#231F20"/>
<path d="M25.9088 25.8516H25.8765V30.553H25.9088V25.8516Z" fill="#231F20"/>
<path d="M25.9581 25.8516H25.9258V30.553H25.9581V25.8516Z" fill="#231F20"/>
<path d="M25.9904 25.8516H25.958V30.553H25.9904V25.8516Z" fill="#231F20"/>
<path d="M26.0382 25.8516H26.0059V30.553H26.0382V25.8516Z" fill="#231F20"/>
<path d="M26.0714 25.8516H26.0391V30.553H26.0714V25.8516Z" fill="#231F20"/>
<path d="M26.1198 25.8516H26.0874V30.553H26.1198V25.8516Z" fill="#231F20"/>
<path d="M26.1515 25.8516H26.1191V30.553H26.1515V25.8516Z" fill="#231F20"/>
<path d="M26.2008 25.8516H26.1685V30.553H26.2008V25.8516Z" fill="#231F20"/>
<path d="M26.2331 25.8516H26.2007V30.553H26.2331V25.8516Z" fill="#231F20"/>
<path d="M26.2809 25.8516H26.2485V30.553H26.2809V25.8516Z" fill="#231F20"/>
<path d="M26.3131 25.8516H26.2808V30.553H26.3131V25.8516Z" fill="#231F20"/>
<path d="M26.3624 25.8516H26.3301V30.553H26.3624V25.8516Z" fill="#231F20"/>
<path d="M26.3942 25.8516H26.3618V30.553H26.3942V25.8516Z" fill="#231F20"/>
<path d="M26.4435 25.8516H26.4111V30.553H26.4435V25.8516Z" fill="#231F20"/>
<path d="M26.4757 25.8516H26.4434V30.553H26.4757V25.8516Z" fill="#231F20"/>
<path d="M26.5236 25.8516H26.4912V30.553H26.5236V25.8516Z" fill="#231F20"/>
<path d="M26.5568 25.8516H26.5244V30.553H26.5568V25.8516Z" fill="#231F20"/>
<path d="M26.6051 25.8516H26.5728V30.553H26.6051V25.8516Z" fill="#231F20"/>
<path d="M26.6373 25.8516H26.605V30.553H26.6373V25.8516Z" fill="#231F20"/>
<path d="M26.6852 25.8516H26.6528V30.553H26.6852V25.8516Z" fill="#231F20"/>
<path d="M26.7184 25.8516H26.686V30.553H26.7184V25.8516Z" fill="#231F20"/>
<path d="M26.7667 25.8516H26.7344V30.553H26.7667V25.8516Z" fill="#231F20"/>
<path d="M26.7999 25.8516H26.7676V30.553H26.7999V25.8516Z" fill="#231F20"/>
<path d="M26.8478 25.8516H26.8154V30.553H26.8478V25.8516Z" fill="#231F20"/>
<path d="M26.88 25.8516H26.8477V30.553H26.88V25.8516Z" fill="#231F20"/>
<path d="M26.9293 25.8516H26.897V30.553H26.9293V25.8516Z" fill="#231F20"/>
<path d="M26.9611 25.8516H26.9287V30.553H26.9611V25.8516Z" fill="#231F20"/>
<path d="M27.0094 25.8516H26.9771V30.553H27.0094V25.8516Z" fill="#231F20"/>
<path d="M27.0412 25.8516H27.0088V30.553H27.0412V25.8516Z" fill="#231F20"/>
<path d="M27.0905 25.8516H27.0581V30.553H27.0905V25.8516Z" fill="#231F20"/>
<path d="M27.1227 25.8516H27.0903V30.553H27.1227V25.8516Z" fill="#231F20"/>
<path d="M27.172 25.8516H27.1396V30.553H27.172V25.8516Z" fill="#231F20"/>
<path d="M27.2038 25.8516H27.1714V30.553H27.2038V25.8516Z" fill="#231F20"/>
<path d="M27.2521 25.8516H27.2197V30.553H27.2521V25.8516Z" fill="#231F20"/>
<path d="M27.2853 25.8516H27.2529V30.553H27.2853V25.8516Z" fill="#231F20"/>
<path d="M27.3331 25.8516H27.3008V30.553H27.3331V25.8516Z" fill="#231F20"/>
<path d="M27.3654 25.8516H27.333V30.553H27.3654V25.8516Z" fill="#231F20"/>
<path d="M27.4147 25.8516H27.3823V30.553H27.4147V25.8516Z" fill="#231F20"/>
<path d="M27.4469 25.8516H27.4146V30.553H27.4469V25.8516Z" fill="#231F20"/>
<path d="M27.4948 25.8516H27.4624V30.553H27.4948V25.8516Z" fill="#231F20"/>
<path d="M27.527 25.8516H27.4946V30.553H27.527V25.8516Z" fill="#231F20"/>
<path d="M27.5763 25.8516H27.5439V30.553H27.5763V25.8516Z" fill="#231F20"/>
<path d="M27.608 25.8516H27.5757V30.553H27.608V25.8516Z" fill="#231F20"/>
<path d="M27.6574 25.8516H27.625V30.553H27.6574V25.8516Z" fill="#231F20"/>
<path d="M27.6896 25.8516H27.6572V30.553H27.6896V25.8516Z" fill="#231F20"/>
<path d="M27.7374 25.8516H27.7051V30.553H27.7374V25.8516Z" fill="#231F20"/>
<path d="M27.7706 25.8516H27.7383V30.553H27.7706V25.8516Z" fill="#231F20"/>
<path d="M27.819 25.8516H27.7866V30.553H27.819V25.8516Z" fill="#231F20"/>
<path d="M27.8507 25.8516H27.8184V30.553H27.8507V25.8516Z" fill="#231F20"/>
<path d="M27.8991 25.8516H27.8667V30.553H27.8991V25.8516Z" fill="#231F20"/>
<path d="M27.9323 25.8516H27.8999V30.553H27.9323V25.8516Z" fill="#231F20"/>
<path d="M27.9801 25.8516H27.9478V30.553H27.9801V25.8516Z" fill="#231F20"/>
<path d="M28.0138 25.8516H27.9814V30.553H28.0138V25.8516Z" fill="#231F20"/>
<path d="M28.0617 25.8516H28.0293V30.553H28.0617V25.8516Z" fill="#231F20"/>
<path d="M28.0939 25.8516H28.0615V30.553H28.0939V25.8516Z" fill="#231F20"/>
<path d="M28.1432 25.8516H28.1108V30.553H28.1432V25.8516Z" fill="#231F20"/>
<path d="M28.1749 25.8516H28.1426V30.553H28.1749V25.8516Z" fill="#231F20"/>
<path d="M28.2233 25.8516H28.1909V30.553H28.2233V25.8516Z" fill="#231F20"/>
<path d="M28.255 25.8516H28.2227V30.553H28.255V25.8516Z" fill="#231F20"/>
<path d="M28.3043 25.8516H28.272V30.553H28.3043V25.8516Z" fill="#231F20"/>
<path d="M28.3366 25.8516H28.3042V30.553H28.3366V25.8516Z" fill="#231F20"/>
<path d="M28.3859 25.8516H28.3535V30.553H28.3859V25.8516Z" fill="#231F20"/>
<path d="M28.4176 25.8516H28.3853V30.553H28.4176V25.8516Z" fill="#231F20"/>
<path d="M28.466 25.8516H28.4336V30.553H28.466V25.8516Z" fill="#231F20"/>
<path d="M28.4992 25.8516H28.4668V30.553H28.4992V25.8516Z" fill="#231F20"/>
<path d="M28.547 25.8516H28.5146V30.553H28.547V25.8516Z" fill="#231F20"/>
<path d="M28.5792 25.8516H28.5469V30.553H28.5792V25.8516Z" fill="#231F20"/>
<path d="M28.6271 25.8516H28.5947V30.553H28.6271V25.8516Z" fill="#231F20"/>
<path d="M28.6608 25.8516H28.6284V30.553H28.6608V25.8516Z" fill="#231F20"/>
<path d="M28.7086 25.8516H28.6763V30.553H28.7086V25.8516Z" fill="#231F20"/>
<path d="M28.7409 25.8516H28.7085V30.553H28.7409V25.8516Z" fill="#231F20"/>
<path d="M28.7902 25.8516H28.7578V30.553H28.7902V25.8516Z" fill="#231F20"/>
<path d="M28.8219 25.8516H28.7896V30.553H28.8219V25.8516Z" fill="#231F20"/>
<path d="M28.8712 25.8516H28.8389V30.553H28.8712V25.8516Z" fill="#231F20"/>
<path d="M28.9035 25.8516H28.8711V30.553H28.9035V25.8516Z" fill="#231F20"/>
<path d="M28.9513 25.8516H28.9189V30.553H28.9513V25.8516Z" fill="#231F20"/>
<path d="M28.9835 25.8516H28.9512V30.553H28.9835V25.8516Z" fill="#231F20"/>
<path d="M29.0814 25.8516H29.0005V30.553H29.0814V25.8516Z" fill="#231F20"/>
</g>
<path d="M28.1103 27.1855L25.8932 25.1976C25.7476 25.067 25.521 25.067 25.3753 25.1976C25.2297 25.3282 25.2297 25.5893 25.3753 25.6619L27.5115 27.6499C27.7381 27.853 27.9485 27.853 28.0941 27.7224C28.2398 27.5193 28.2398 27.3306 28.0941 27.2L28.1103 27.1855Z" fill="#231F20"/>
<mask id="mask2_631_2794" style="mask-type:luminance" maskUnits="userSpaceOnUse" x="25" y="25" width="4" height="3">
<path d="M28.1084 27.1855L25.8913 25.1976C25.7456 25.067 25.519 25.067 25.3734 25.1976C25.2277 25.3282 25.2277 25.5893 25.3734 25.6619L27.5096 27.6499C27.7361 27.853 27.9465 27.853 28.0922 27.7224C28.2378 27.5193 28.2378 27.3306 28.0922 27.2L28.1084 27.1855Z" fill="white"/>
</mask>
<g mask="url(#mask2_631_2794)">
<path d="M25.2776 25.0664H25.229V27.8525H25.2776V25.0664Z" fill="#231F20"/>
<path d="M25.2945 25.0664H25.2783V27.8525H25.2945V25.0664Z" fill="#231F20"/>
<path d="M25.3267 25.0664H25.3105V27.8525H25.3267V25.0664Z" fill="#231F20"/>
<path d="M25.3424 25.0664H25.3262V27.8525H25.3424V25.0664Z" fill="#231F20"/>
<path d="M25.3746 25.0664H25.3584V27.8525H25.3746V25.0664Z" fill="#231F20"/>
<path d="M25.3907 25.0664H25.3745V27.8525H25.3907V25.0664Z" fill="#231F20"/>
<path d="M25.4224 25.0664H25.4062V27.8525H25.4224V25.0664Z" fill="#231F20"/>
<path d="M25.4385 25.0664H25.4224V27.8525H25.4385V25.0664Z" fill="#231F20"/>
<path d="M25.4561 25.0664H25.4399V27.8525H25.4561V25.0664Z" fill="#231F20"/>
<path d="M25.4879 25.0664H25.4717V27.8525H25.4879V25.0664Z" fill="#231F20"/>
<path d="M25.504 25.0664H25.4878V27.8525H25.504V25.0664Z" fill="#231F20"/>
<path d="M25.5362 25.0664H25.52V27.8525H25.5362V25.0664Z" fill="#231F20"/>
<path d="M25.5518 25.0664H25.5356V27.8525H25.5518V25.0664Z" fill="#231F20"/>
<path d="M25.5855 25.0664H25.5693V27.8525H25.5855V25.0664Z" fill="#231F20"/>
<path d="M25.6011 25.0664H25.585V27.8525H25.6011V25.0664Z" fill="#231F20"/>
<path d="M25.6334 25.0664H25.6172V27.8525H25.6334V25.0664Z" fill="#231F20"/>
<path d="M25.6495 25.0664H25.6333V27.8525H25.6495V25.0664Z" fill="#231F20"/>
<path d="M25.6827 25.0664H25.6665V27.8525H25.6827V25.0664Z" fill="#231F20"/>
<path d="M25.6988 25.0664H25.6826V27.8525H25.6988V25.0664Z" fill="#231F20"/>
<path d="M25.7305 25.0664H25.7144V27.8525H25.7305V25.0664Z" fill="#231F20"/>
<path d="M25.7467 25.0664H25.7305V27.8525H25.7467V25.0664Z" fill="#231F20"/>
<path d="M25.7628 25.0664H25.7466V27.8525H25.7628V25.0664Z" fill="#231F20"/>
<path d="M25.795 25.0664H25.7788V27.8525H25.795V25.0664Z" fill="#231F20"/>
<path d="M25.8121 25.0664H25.7959V27.8525H25.8121V25.0664Z" fill="#231F20"/>
<path d="M25.8443 25.0664H25.8281V27.8525H25.8443V25.0664Z" fill="#231F20"/>
<path d="M25.8599 25.0664H25.8438V27.8525H25.8599V25.0664Z" fill="#231F20"/>
<path d="M25.8922 25.0664H25.876V27.8525H25.8922V25.0664Z" fill="#231F20"/>
<path d="M25.9083 25.0664H25.8921V27.8525H25.9083V25.0664Z" fill="#231F20"/>
<path d="M25.94 25.0664H25.9238V27.8525H25.94V25.0664Z" fill="#231F20"/>
<path d="M25.9576 25.0664H25.9414V27.8525H25.9576V25.0664Z" fill="#231F20"/>
<path d="M25.9893 25.0664H25.9731V27.8525H25.9893V25.0664Z" fill="#231F20"/>
<path d="M26.0054 25.0664H25.9893V27.8525H26.0054V25.0664Z" fill="#231F20"/>
<path d="M26.0377 25.0664H26.0215V27.8525H26.0377V25.0664Z" fill="#231F20"/>
<path d="M26.0548 25.0664H26.0386V27.8525H26.0548V25.0664Z" fill="#231F20"/>
<path d="M26.0709 25.0664H26.0547V27.8525H26.0709V25.0664Z" fill="#231F20"/>
<path d="M26.1031 25.0664H26.0869V27.8525H26.1031V25.0664Z" fill="#231F20"/>
<path d="M26.1187 25.0664H26.1025V27.8525H26.1187V25.0664Z" fill="#231F20"/>
<path d="M26.1509 25.0664H26.1348V27.8525H26.1509V25.0664Z" fill="#231F20"/>
<path d="M26.168 25.0664H26.1519V27.8525H26.168V25.0664Z" fill="#231F20"/>
<path d="M26.2003 25.0664H26.1841V27.8525H26.2003V25.0664Z" fill="#231F20"/>
<path d="M26.2164 25.0664H26.2002V27.8525H26.2164V25.0664Z" fill="#231F20"/>
<path d="M26.2481 25.0664H26.2319V27.8525H26.2481V25.0664Z" fill="#231F20"/>
<path d="M26.2642 25.0664H26.248V27.8525H26.2642V25.0664Z" fill="#231F20"/>
<path d="M26.2965 25.0664H26.2803V27.8525H26.2965V25.0664Z" fill="#231F20"/>
<path d="M26.3126 25.0664H26.2964V27.8525H26.3126V25.0664Z" fill="#231F20"/>
<path d="M26.3458 25.0664H26.3296V27.8525H26.3458V25.0664Z" fill="#231F20"/>
<path d="M26.3619 25.0664H26.3457V27.8525H26.3619V25.0664Z" fill="#231F20"/>
<path d="M26.3775 25.0664H26.3613V27.8525H26.3775V25.0664Z" fill="#231F20"/>
<path d="M26.4097 25.0664H26.3936V27.8525H26.4097V25.0664Z" fill="#231F20"/>
<path d="M26.4268 25.0664H26.4106V27.8525H26.4268V25.0664Z" fill="#231F20"/>
<path d="M26.4591 25.0664H26.4429V27.8525H26.4591V25.0664Z" fill="#231F20"/>
<path d="M26.4752 25.0664H26.459V27.8525H26.4752V25.0664Z" fill="#231F20"/>
<path d="M26.5069 25.0664H26.4907V27.8525H26.5069V25.0664Z" fill="#231F20"/>
<path d="M26.5245 25.0664H26.5083V27.8525H26.5245V25.0664Z" fill="#231F20"/>
<path d="M26.5562 25.0664H26.54V27.8525H26.5562V25.0664Z" fill="#231F20"/>
<path d="M26.5723 25.0664H26.5562V27.8525H26.5723V25.0664Z" fill="#231F20"/>
<path d="M26.6046 25.0664H26.5884V27.8525H26.6046V25.0664Z" fill="#231F20"/>
<path d="M26.6207 25.0664H26.6045V27.8525H26.6207V25.0664Z" fill="#231F20"/>
<path d="M26.6524 25.0664H26.6362V27.8525H26.6524V25.0664Z" fill="#231F20"/>
<path d="M26.6685 25.0664H26.6523V27.8525H26.6685V25.0664Z" fill="#231F20"/>
<path d="M26.6856 25.0664H26.6694V27.8525H26.6856V25.0664Z" fill="#231F20"/>
<path d="M26.7178 25.0664H26.7017V27.8525H26.7178V25.0664Z" fill="#231F20"/>
<path d="M26.734 25.0664H26.7178V27.8525H26.734V25.0664Z" fill="#231F20"/>
<path d="M26.7657 25.0664H26.7495V27.8525H26.7657V25.0664Z" fill="#231F20"/>
<path d="M26.7818 25.0664H26.7656V27.8525H26.7818V25.0664Z" fill="#231F20"/>
<path d="M26.815 25.0664H26.7988V27.8525H26.815V25.0664Z" fill="#231F20"/>
<path d="M26.8311 25.0664H26.8149V27.8525H26.8311V25.0664Z" fill="#231F20"/>
<path d="M26.8634 25.0664H26.8472V27.8525H26.8634V25.0664Z" fill="#231F20"/>
<path d="M26.8795 25.0664H26.8633V27.8525H26.8795V25.0664Z" fill="#231F20"/>
<path d="M26.9127 25.0664H26.8965V27.8525H26.9127V25.0664Z" fill="#231F20"/>
<path d="M26.9283 25.0664H26.9121V27.8525H26.9283V25.0664Z" fill="#231F20"/>
<path d="M26.9605 25.0664H26.9443V27.8525H26.9605V25.0664Z" fill="#231F20"/>
<path d="M26.9766 25.0664H26.9604V27.8525H26.9766V25.0664Z" fill="#231F20"/>
<path d="M26.9927 25.0664H26.9766V27.8525H26.9927V25.0664Z" fill="#231F20"/>
<path d="M27.0245 25.0664H27.0083V27.8525H27.0245V25.0664Z" fill="#231F20"/>
<path d="M27.0421 25.0664H27.0259V27.8525H27.0421V25.0664Z" fill="#231F20"/>
<path d="M27.0738 25.0664H27.0576V27.8525H27.0738V25.0664Z" fill="#231F20"/>
<path d="M27.0899 25.0664H27.0737V27.8525H27.0899V25.0664Z" fill="#231F20"/>
<path d="M27.1221 25.0664H27.106V27.8525H27.1221V25.0664Z" fill="#231F20"/>
<path d="M27.1383 25.0664H27.1221V27.8525H27.1383V25.0664Z" fill="#231F20"/>
<path d="M27.1715 25.0664H27.1553V27.8525H27.1715V25.0664Z" fill="#231F20"/>
<path d="M27.1871 25.0664H27.1709V27.8525H27.1871V25.0664Z" fill="#231F20"/>
<path d="M27.2193 25.0664H27.2031V27.8525H27.2193V25.0664Z" fill="#231F20"/>
<path d="M27.2354 25.0664H27.2192V27.8525H27.2354V25.0664Z" fill="#231F20"/>
<path d="M27.2686 25.0664H27.2524V27.8525H27.2686V25.0664Z" fill="#231F20"/>
<path d="M27.2847 25.0664H27.2686V27.8525H27.2847V25.0664Z" fill="#231F20"/>
<path d="M27.3009 25.0664H27.2847V27.8525H27.3009V25.0664Z" fill="#231F20"/>
<path d="M27.3326 25.0664H27.3164V27.8525H27.3326V25.0664Z" fill="#231F20"/>
<path d="M27.3487 25.0664H27.3325V27.8525H27.3487V25.0664Z" fill="#231F20"/>
<path d="M27.3809 25.0664H27.3647V27.8525H27.3809V25.0664Z" fill="#231F20"/>
<path d="M27.398 25.0664H27.3818V27.8525H27.398V25.0664Z" fill="#231F20"/>
<path d="M27.4302 25.0664H27.4141V27.8525H27.4302V25.0664Z" fill="#231F20"/>
<path d="M27.4459 25.0664H27.4297V27.8525H27.4459V25.0664Z" fill="#231F20"/>
<path d="M27.4781 25.0664H27.4619V27.8525H27.4781V25.0664Z" fill="#231F20"/>
<path d="M27.4942 25.0664H27.478V27.8525H27.4942V25.0664Z" fill="#231F20"/>
<path d="M27.5264 25.0664H27.5103V27.8525H27.5264V25.0664Z" fill="#231F20"/>
<path d="M27.5435 25.0664H27.5273V27.8525H27.5435V25.0664Z" fill="#231F20"/>
<path d="M27.5596 25.0664H27.5435V27.8525H27.5596V25.0664Z" fill="#231F20"/>
<path d="M27.5914 25.0664H27.5752V27.8525H27.5914V25.0664Z" fill="#231F20"/>
<path d="M27.6075 25.0664H27.5913V27.8525H27.6075V25.0664Z" fill="#231F20"/>
<path d="M27.6407 25.0664H27.6245V27.8525H27.6407V25.0664Z" fill="#231F20"/>
<path d="M27.6568 25.0664H27.6406V27.8525H27.6568V25.0664Z" fill="#231F20"/>
<path d="M27.689 25.0664H27.6729V27.8525H27.689V25.0664Z" fill="#231F20"/>
<path d="M27.7047 25.0664H27.6885V27.8525H27.7047V25.0664Z" fill="#231F20"/>
<path d="M27.7369 25.0664H27.7207V27.8525H27.7369V25.0664Z" fill="#231F20"/>
<path d="M27.754 25.0664H27.7378V27.8525H27.754V25.0664Z" fill="#231F20"/>
<path d="M27.7862 25.0664H27.77V27.8525H27.7862V25.0664Z" fill="#231F20"/>
<path d="M27.8023 25.0664H27.7861V27.8525H27.8023V25.0664Z" fill="#231F20"/>
<path d="M27.8341 25.0664H27.8179V27.8525H27.8341V25.0664Z" fill="#231F20"/>
<path d="M27.8502 25.0664H27.834V27.8525H27.8502V25.0664Z" fill="#231F20"/>
<path d="M27.8663 25.0664H27.8501V27.8525H27.8663V25.0664Z" fill="#231F20"/>
<path d="M27.8985 25.0664H27.8823V27.8525H27.8985V25.0664Z" fill="#231F20"/>
<path d="M27.9156 25.0664H27.8994V27.8525H27.9156V25.0664Z" fill="#231F20"/>
<path d="M27.9478 25.0664H27.9316V27.8525H27.9478V25.0664Z" fill="#231F20"/>
<path d="M27.9634 25.0664H27.9473V27.8525H27.9634V25.0664Z" fill="#231F20"/>
<path d="M27.9957 25.0664H27.9795V27.8525H27.9957V25.0664Z" fill="#231F20"/>
<path d="M28.0128 25.0664H27.9966V27.8525H28.0128V25.0664Z" fill="#231F20"/>
<path d="M28.045 25.0664H28.0288V27.8525H28.045V25.0664Z" fill="#231F20"/>
<path d="M28.0611 25.0664H28.0449V27.8525H28.0611V25.0664Z" fill="#231F20"/>
<path d="M28.0928 25.0664H28.0767V27.8525H28.0928V25.0664Z" fill="#231F20"/>
<path d="M28.1104 25.0664H28.0942V27.8525H28.1104V25.0664Z" fill="#231F20"/>
<path d="M28.1422 25.0664H28.126V27.8525H28.1422V25.0664Z" fill="#231F20"/>
<path d="M28.1583 25.0664H28.1421V27.8525H28.1583V25.0664Z" fill="#231F20"/>
<path d="M28.1744 25.0664H28.1582V27.8525H28.1744V25.0664Z" fill="#231F20"/>
<path d="M28.2066 25.0664H28.1904V27.8525H28.2066V25.0664Z" fill="#231F20"/>
</g>
<path d="M27.5918 30.6242L25.3747 28.6363C25.229 28.5057 25.0024 28.5057 24.8568 28.7088C24.7111 28.7814 24.7111 29.0426 24.8568 29.1732L26.993 31.1611C27.2195 31.2917 27.4299 31.2917 27.5756 31.1611C27.7212 31.0305 27.7212 30.7693 27.5756 30.6387L27.5918 30.6242Z" fill="#231F20"/>
<mask id="mask3_631_2794" style="mask-type:luminance" maskUnits="userSpaceOnUse" x="24" y="28" width="4" height="4">
<path d="M27.5908 30.6242L25.3737 28.6363C25.228 28.5057 25.0015 28.5057 24.8558 28.7088C24.7102 28.7814 24.7102 29.0426 24.8558 29.1732L26.992 31.1611C27.2186 31.2917 27.4289 31.2917 27.5746 31.1611C27.7202 31.0305 27.7202 30.7693 27.5746 30.6387L27.5908 30.6242Z" fill="white"/>
</mask>
<g mask="url(#mask3_631_2794)">
<path d="M24.7585 28.5049H24.71V31.2909H24.7585V28.5049Z" fill="#231F20"/>
<path d="M24.7755 28.5049H24.7593V31.2909H24.7755V28.5049Z" fill="#231F20"/>
<path d="M24.8077 28.5049H24.7915V31.2909H24.8077V28.5049Z" fill="#231F20"/>
<path d="M24.8233 28.5049H24.8071V31.2909H24.8233V28.5049Z" fill="#231F20"/>
<path d="M24.8555 28.5049H24.8394V31.2909H24.8555V28.5049Z" fill="#231F20"/>
<path d="M24.8717 28.5049H24.8555V31.2909H24.8717V28.5049Z" fill="#231F20"/>
<path d="M24.9034 28.5049H24.8872V31.2909H24.9034V28.5049Z" fill="#231F20"/>
<path d="M24.921 28.5049H24.9048V31.2909H24.921V28.5049Z" fill="#231F20"/>
<path d="M24.9527 28.5049H24.9365V31.2909H24.9527V28.5049Z" fill="#231F20"/>
<path d="M24.9688 28.5049H24.9526V31.2909H24.9688V28.5049Z" fill="#231F20"/>
<path d="M24.9849 28.5049H24.9688V31.2909H24.9849V28.5049Z" fill="#231F20"/>
<path d="M25.0172 28.5049H25.001V31.2909H25.0172V28.5049Z" fill="#231F20"/>
<path d="M25.0328 28.5049H25.0166V31.2909H25.0328V28.5049Z" fill="#231F20"/>
<path d="M25.0665 28.5049H25.0503V31.2909H25.0665V28.5049Z" fill="#231F20"/>
<path d="M25.0821 28.5049H25.0659V31.2909H25.0821V28.5049Z" fill="#231F20"/>
<path d="M25.1143 28.5049H25.0981V31.2909H25.1143V28.5049Z" fill="#231F20"/>
<path d="M25.1304 28.5049H25.1143V31.2909H25.1304V28.5049Z" fill="#231F20"/>
<path d="M25.1636 28.5049H25.1475V31.2909H25.1636V28.5049Z" fill="#231F20"/>
<path d="M25.1798 28.5049H25.1636V31.2909H25.1798V28.5049Z" fill="#231F20"/>
<path d="M25.2115 28.5049H25.1953V31.2909H25.2115V28.5049Z" fill="#231F20"/>
<path d="M25.2276 28.5049H25.2114V31.2909H25.2276V28.5049Z" fill="#231F20"/>
<path d="M25.2598 28.5049H25.2437V31.2909H25.2598V28.5049Z" fill="#231F20"/>
<path d="M25.2769 28.5049H25.2607V31.2909H25.2769V28.5049Z" fill="#231F20"/>
<path d="M25.293 28.5049H25.2769V31.2909H25.293V28.5049Z" fill="#231F20"/>
<path d="M25.3253 28.5049H25.3091V31.2909H25.3253V28.5049Z" fill="#231F20"/>
<path d="M25.3409 28.5049H25.3247V31.2909H25.3409V28.5049Z" fill="#231F20"/>
<path d="M25.3731 28.5049H25.3569V31.2909H25.3731V28.5049Z" fill="#231F20"/>
<path d="M25.3892 28.5049H25.373V31.2909H25.3892V28.5049Z" fill="#231F20"/>
<path d="M25.421 28.5049H25.4048V31.2909H25.421V28.5049Z" fill="#231F20"/>
<path d="M25.4385 28.5049H25.4224V31.2909H25.4385V28.5049Z" fill="#231F20"/>
<path d="M25.4703 28.5049H25.4541V31.2909H25.4703V28.5049Z" fill="#231F20"/>
<path d="M25.4864 28.5049H25.4702V31.2909H25.4864V28.5049Z" fill="#231F20"/>
<path d="M25.5186 28.5049H25.5024V31.2909H25.5186V28.5049Z" fill="#231F20"/>
<path d="M25.5357 28.5049H25.5195V31.2909H25.5357V28.5049Z" fill="#231F20"/>
<path d="M25.5679 28.5049H25.5518V31.2909H25.5679V28.5049Z" fill="#231F20"/>
<path d="M25.5841 28.5049H25.5679V31.2909H25.5841V28.5049Z" fill="#231F20"/>
<path d="M25.5997 28.5049H25.5835V31.2909H25.5997V28.5049Z" fill="#231F20"/>
<path d="M25.6334 28.5049H25.6172V31.2909H25.6334V28.5049Z" fill="#231F20"/>
<path d="M25.649 28.5049H25.6328V31.2909H25.649V28.5049Z" fill="#231F20"/>
<path d="M25.6812 28.5049H25.665V31.2909H25.6812V28.5049Z" fill="#231F20"/>
<path d="M25.6973 28.5049H25.6812V31.2909H25.6973V28.5049Z" fill="#231F20"/>
<path d="M25.7291 28.5049H25.7129V31.2909H25.7291V28.5049Z" fill="#231F20"/>
<path d="M25.7452 28.5049H25.729V31.2909H25.7452V28.5049Z" fill="#231F20"/>
<path d="M25.7774 28.5049H25.7612V31.2909H25.7774V28.5049Z" fill="#231F20"/>
<path d="M25.7945 28.5049H25.7783V31.2909H25.7945V28.5049Z" fill="#231F20"/>
<path d="M25.8267 28.5049H25.8105V31.2909H25.8267V28.5049Z" fill="#231F20"/>
<path d="M25.8428 28.5049H25.8267V31.2909H25.8428V28.5049Z" fill="#231F20"/>
<path d="M25.8746 28.5049H25.8584V31.2909H25.8746V28.5049Z" fill="#231F20"/>
<path d="M25.8907 28.5049H25.8745V31.2909H25.8907V28.5049Z" fill="#231F20"/>
<path d="M25.9078 28.5049H25.8916V31.2909H25.9078V28.5049Z" fill="#231F20"/>
<path d="M25.94 28.5049H25.9238V31.2909H25.94V28.5049Z" fill="#231F20"/>
<path d="M25.9561 28.5049H25.9399V31.2909H25.9561V28.5049Z" fill="#231F20"/>
<path d="M25.9879 28.5049H25.9717V31.2909H25.9879V28.5049Z" fill="#231F20"/>
<path d="M26.0054 28.5049H25.9893V31.2909H26.0054V28.5049Z" fill="#231F20"/>
<path d="M26.0372 28.5049H26.021V31.2909H26.0372V28.5049Z" fill="#231F20"/>
<path d="M26.0533 28.5049H26.0371V31.2909H26.0533V28.5049Z" fill="#231F20"/>
<path d="M26.0855 28.5049H26.0693V31.2909H26.0855V28.5049Z" fill="#231F20"/>
<path d="M26.1016 28.5049H26.0854V31.2909H26.1016V28.5049Z" fill="#231F20"/>
<path d="M26.1334 28.5049H26.1172V31.2909H26.1334V28.5049Z" fill="#231F20"/>
<path d="M26.1509 28.5049H26.1348V31.2909H26.1509V28.5049Z" fill="#231F20"/>
<path d="M26.1827 28.5049H26.1665V31.2909H26.1827V28.5049Z" fill="#231F20"/>
<path d="M26.1988 28.5049H26.1826V31.2909H26.1988V28.5049Z" fill="#231F20"/>
<path d="M26.2149 28.5049H26.1987V31.2909H26.2149V28.5049Z" fill="#231F20"/>
<path d="M26.2466 28.5049H26.2305V31.2909H26.2466V28.5049Z" fill="#231F20"/>
<path d="M26.2628 28.5049H26.2466V31.2909H26.2628V28.5049Z" fill="#231F20"/>
<path d="M26.296 28.5049H26.2798V31.2909H26.296V28.5049Z" fill="#231F20"/>
<path d="M26.3121 28.5049H26.2959V31.2909H26.3121V28.5049Z" fill="#231F20"/>
<path d="M26.3443 28.5049H26.3281V31.2909H26.3443V28.5049Z" fill="#231F20"/>
<path d="M26.3604 28.5049H26.3442V31.2909H26.3604V28.5049Z" fill="#231F20"/>
<path d="M26.3936 28.5049H26.3774V31.2909H26.3936V28.5049Z" fill="#231F20"/>
<path d="M26.4097 28.5049H26.3936V31.2909H26.4097V28.5049Z" fill="#231F20"/>
<path d="M26.4415 28.5049H26.4253V31.2909H26.4415V28.5049Z" fill="#231F20"/>
<path d="M26.4576 28.5049H26.4414V31.2909H26.4576V28.5049Z" fill="#231F20"/>
<path d="M26.4737 28.5049H26.4575V31.2909H26.4737V28.5049Z" fill="#231F20"/>
<path d="M26.5069 28.5049H26.4907V31.2909H26.5069V28.5049Z" fill="#231F20"/>
<path d="M26.523 28.5049H26.5068V31.2909H26.523V28.5049Z" fill="#231F20"/>
<path d="M26.5548 28.5049H26.5386V31.2909H26.5548V28.5049Z" fill="#231F20"/>
<path d="M26.5709 28.5049H26.5547V31.2909H26.5709V28.5049Z" fill="#231F20"/>
<path d="M26.6031 28.5049H26.5869V31.2909H26.6031V28.5049Z" fill="#231F20"/>
<path d="M26.6192 28.5049H26.603V31.2909H26.6192V28.5049Z" fill="#231F20"/>
<path d="M26.6524 28.5049H26.6362V31.2909H26.6524V28.5049Z" fill="#231F20"/>
<path d="M26.6685 28.5049H26.6523V31.2909H26.6685V28.5049Z" fill="#231F20"/>
<path d="M26.7003 28.5049H26.6841V31.2909H26.7003V28.5049Z" fill="#231F20"/>
<path d="M26.7164 28.5049H26.7002V31.2909H26.7164V28.5049Z" fill="#231F20"/>
<path d="M26.7496 28.5049H26.7334V31.2909H26.7496V28.5049Z" fill="#231F20"/>
<path d="M26.7657 28.5049H26.7495V31.2909H26.7657V28.5049Z" fill="#231F20"/>
<path d="M26.7818 28.5049H26.7656V31.2909H26.7818V28.5049Z" fill="#231F20"/>
<path d="M26.8135 28.5049H26.7974V31.2909H26.8135V28.5049Z" fill="#231F20"/>
<path d="M26.8297 28.5049H26.8135V31.2909H26.8297V28.5049Z" fill="#231F20"/>
<path d="M26.8629 28.5049H26.8467V31.2909H26.8629V28.5049Z" fill="#231F20"/>
<path d="M26.879 28.5049H26.8628V31.2909H26.879V28.5049Z" fill="#231F20"/>
<path d="M26.9112 28.5049H26.895V31.2909H26.9112V28.5049Z" fill="#231F20"/>
<path d="M26.9273 28.5049H26.9111V31.2909H26.9273V28.5049Z" fill="#231F20"/>
<path d="M26.9591 28.5049H26.9429V31.2909H26.9591V28.5049Z" fill="#231F20"/>
<path d="M26.9752 28.5049H26.959V31.2909H26.9752V28.5049Z" fill="#231F20"/>
<path d="M27.0074 28.5049H26.9912V31.2909H27.0074V28.5049Z" fill="#231F20"/>
<path d="M27.0245 28.5049H27.0083V31.2909H27.0245V28.5049Z" fill="#231F20"/>
<path d="M27.0567 28.5049H27.0405V31.2909H27.0567V28.5049Z" fill="#231F20"/>
<path d="M27.0723 28.5049H27.0562V31.2909H27.0723V28.5049Z" fill="#231F20"/>
<path d="M27.0884 28.5049H27.0723V31.2909H27.0884V28.5049Z" fill="#231F20"/>
<path d="M27.1217 28.5049H27.1055V31.2909H27.1217V28.5049Z" fill="#231F20"/>
<path d="M27.1378 28.5049H27.1216V31.2909H27.1378V28.5049Z" fill="#231F20"/>
<path d="M27.17 28.5049H27.1538V31.2909H27.17V28.5049Z" fill="#231F20"/>
<path d="M27.1861 28.5049H27.1699V31.2909H27.1861V28.5049Z" fill="#231F20"/>
<path d="M27.2193 28.5049H27.2031V31.2909H27.2193V28.5049Z" fill="#231F20"/>
<path d="M27.2349 28.5049H27.2188V31.2909H27.2349V28.5049Z" fill="#231F20"/>
<path d="M27.2672 28.5049H27.251V31.2909H27.2672V28.5049Z" fill="#231F20"/>
<path d="M27.2833 28.5049H27.2671V31.2909H27.2833V28.5049Z" fill="#231F20"/>
<path d="M27.3155 28.5049H27.2993V31.2909H27.3155V28.5049Z" fill="#231F20"/>
<path d="M27.3311 28.5049H27.3149V31.2909H27.3311V28.5049Z" fill="#231F20"/>
<path d="M27.3634 28.5049H27.3472V31.2909H27.3634V28.5049Z" fill="#231F20"/>
<path d="M27.3804 28.5049H27.3643V31.2909H27.3804V28.5049Z" fill="#231F20"/>
<path d="M27.3966 28.5049H27.3804V31.2909H27.3966V28.5049Z" fill="#231F20"/>
<path d="M27.4288 28.5049H27.4126V31.2909H27.4288V28.5049Z" fill="#231F20"/>
<path d="M27.4449 28.5049H27.4287V31.2909H27.4449V28.5049Z" fill="#231F20"/>
<path d="M27.4766 28.5049H27.4604V31.2909H27.4766V28.5049Z" fill="#231F20"/>
<path d="M27.4937 28.5049H27.4775V31.2909H27.4937V28.5049Z" fill="#231F20"/>
<path d="M27.5259 28.5049H27.5098V31.2909H27.5259V28.5049Z" fill="#231F20"/>
<path d="M27.5421 28.5049H27.5259V31.2909H27.5421V28.5049Z" fill="#231F20"/>
<path d="M27.5743 28.5049H27.5581V31.2909H27.5743V28.5049Z" fill="#231F20"/>
<path d="M27.5914 28.5049H27.5752V31.2909H27.5914V28.5049Z" fill="#231F20"/>
<path d="M27.6231 28.5049H27.6069V31.2909H27.6231V28.5049Z" fill="#231F20"/>
<path d="M27.6392 28.5049H27.623V31.2909H27.6392V28.5049Z" fill="#231F20"/>
<path d="M27.6715 28.5049H27.6553V31.2909H27.6715V28.5049Z" fill="#231F20"/>
<path d="M27.6876 28.5049H27.6714V31.2909H27.6876V28.5049Z" fill="#231F20"/>
</g>
</svg>
