<svg width="267" height="37" viewBox="0 0 267 37" fill="none" xmlns="http://www.w3.org/2000/svg">
<path d="M20.5173 14.0632C20.902 13.4819 21.105 12.8583 21.2012 12.1818C22.7613 10.8288 24.8558 10.2581 26.9075 10.4483C27.4418 13.4819 30.7545 13.4396 33.1482 13.1014C33.5863 13.0485 33.8321 12.668 33.6825 12.2769C33.2444 11.2199 32.6566 10.2052 31.9727 9.28562C33.2871 8.46116 34.2596 5.71298 34.3664 5.38531C34.516 5.04707 34.2168 4.6137 33.8321 4.6137C33.4902 4.56085 30.5622 4.32831 29.3012 5.1422C28.0296 5.96665 27.3991 7.30904 27.7945 8.41888C27.4525 8.66199 27.2602 8.85225 27.1106 9.24334C26.0847 9.09536 25.0161 9.19049 23.9902 9.43359C24.1398 8.75712 24.2788 7.83753 24.3749 6.9708C27.6876 7.64727 28.2754 3.26075 28.083 0.988213C28.0296 0.607695 27.6449 0.311737 27.2495 0.459716C25.9778 0.840234 24.7596 1.47443 23.7445 2.24604C22.8148 1.3793 21.7462 0.607695 20.6241 0.0791978C20.2822 -0.111061 19.844 0.079198 19.7479 0.459716C19.2136 2.58427 19.4059 8.36603 23.1567 6.78054C23.0606 7.83753 22.8682 8.85225 22.6224 9.86696C21.7462 10.2475 20.9127 10.7337 20.2287 11.4102C18.0381 12.8583 16.9588 12.8054 14.7682 11.4102C14.0842 10.7865 13.2614 10.258 12.3745 9.86696C12.1287 8.85225 11.9363 7.83753 11.8402 6.78054C15.4521 8.32375 15.8368 2.92251 15.249 0.459716C15.1529 0.079198 14.7147 -0.121631 14.3728 0.0791978C13.208 0.607695 12.1821 1.3793 11.2524 2.24604C10.1838 1.47443 9.00836 0.850804 7.69397 0.459716C7.30928 0.311737 6.91389 0.607695 6.91389 0.988213C6.72154 3.25018 7.29859 7.68955 10.5685 6.9708C10.7181 7.83753 10.8143 8.75712 10.9532 9.43359C9.98079 9.19049 8.95493 9.09536 7.92907 9.19049C7.77946 8.85225 7.54437 8.66199 7.24516 8.41888C7.62986 7.30904 6.99938 5.95608 5.73842 5.1422C4.46678 4.31774 1.54948 4.56085 1.20753 4.6137C0.822828 4.6137 0.523618 5.04707 0.673223 5.38531C1.11135 6.64313 1.94487 8.51401 3.0669 9.28562C2.38299 10.2052 1.79526 11.2093 1.35713 12.2769C1.20753 12.6574 1.45331 13.0485 1.84869 13.1014C4.28512 13.4396 7.65123 13.4819 8.1321 10.4483C10.1304 10.2581 12.2249 10.8288 13.7423 12.1818C13.8385 12.8583 14.0842 13.4819 14.4262 14.0104C10.2373 12.8054 6.24067 14.3486 2.97073 17.044C2.72495 17.2342 2.5326 17.5724 2.5326 17.9107C1.26096 17.9107 0.0427443 18.1961 0 19.7393V35.1714C0.0534304 36.1861 0.876258 37 1.90212 37H16.5741C16.9161 37 17.2046 36.9049 17.5038 36.7569C17.7923 36.9049 18.1343 37 18.4762 37H33.1482C34.1741 37 34.9969 36.1755 34.9969 35.1714V19.7393C34.9969 18.1961 33.7253 17.9107 32.507 17.9107C32.507 17.9107 27.9761 12.3615 20.5173 14.0527V14.0632ZM29.1944 11.6956C28.5105 11.2622 27.538 9.96209 28.5104 9.43359C30.4126 10.7337 30.6049 8.3766 32.1651 11.9915C31.0965 12.0444 29.7714 12.0444 29.1944 11.7061V11.6956ZM29.921 6.15691C30.9896 5.72355 31.7697 5.72355 32.8917 5.77639C32.4536 6.73826 31.8231 7.90095 31.2781 8.23919C29.3333 9.59214 27.8159 7.52043 29.9103 6.16748L29.921 6.15691ZM26.8541 1.9078C26.8541 3.01764 26.2236 7.02365 24.3215 5.61785C24.61 4.94137 24.5673 4.07463 24.3749 3.39816C24.8665 2.77453 26.1275 2.19319 26.8648 1.9078H26.8541ZM20.7524 1.56956C22.024 2.28832 23.5307 3.2079 23.2422 4.89909C22.9964 6.53743 20.0257 5.95608 20.7524 1.56956ZM14.1804 1.56956C15.1529 7.30904 10.5258 6.24147 11.9363 3.45101C12.2249 2.86966 13.3042 2.09806 14.1804 1.56956ZM8.07867 1.9078C9.20071 2.34117 9.73501 2.58427 10.6113 3.39816C10.3655 4.07463 10.3655 4.94137 10.6647 5.61785C8.76258 7.01308 8.07867 3.01764 8.07867 1.9078ZM2.13722 5.76582C3.20582 5.71298 4.5309 5.81868 5.0652 6.14634C7.15967 7.4993 5.79185 9.571 3.75081 8.21805C3.16308 7.87981 2.58603 6.72769 2.13722 5.75526V5.76582ZM5.79185 11.6956C5.25755 12.0338 3.94316 12.0338 2.86387 11.981C3.20582 11.1565 3.69738 10.4377 4.27443 9.76126C5.05451 9.95152 5.8346 9.85639 6.46508 9.42302C7.43751 9.95152 6.56125 11.3468 5.78117 11.685L5.79185 11.6956ZM17.4931 23.9461C14.1804 21.6842 14.2232 19.3693 17.4931 17.0968C20.763 19.3588 20.763 21.6736 17.4931 23.9461ZM15.3986 13.1436C16.8092 13.9152 18.1236 13.9152 19.5876 13.1436C19.0533 14.1055 18.4228 14.8348 17.4931 15.4056C16.4245 14.7291 16.0291 14.2006 15.3986 13.1436ZM16.4138 24.7177C15.4414 25.5422 13.7316 27.2228 13.7316 29.0091C13.7316 29.8336 15.0033 29.8336 15.0033 29.0091C15.0033 27.709 16.5634 26.2081 17.4931 25.4365C18.4228 26.2081 19.983 27.6985 19.983 29.0091C19.983 29.8336 21.2546 29.8336 21.2546 29.0091C21.2546 27.2228 19.5448 25.5422 18.5297 24.7177C22.0881 22.0224 22.0881 19.0311 18.5297 16.3252C22.0881 13.1965 28.083 15.3633 31.2568 18.0164V33.3005C27.0144 30.119 22.1415 30.0661 17.5145 33.2054C12.8874 30.0767 8.00387 30.119 3.77218 33.3005V17.9635C6.98869 15.3633 12.9408 13.1859 16.4993 16.3252C12.8874 19.0734 12.7912 21.9167 16.4459 24.7177H16.4138ZM28.9913 33.3005H19.7265C22.6011 31.7045 26.1168 31.7045 28.9913 33.3005ZM15.3025 33.3005H6.03763C8.91219 31.7045 12.4279 31.7045 15.3025 33.3005ZM33.768 35.182C33.768 35.5202 33.4795 35.8056 33.1375 35.8056H18.4655C18.0808 35.8056 18.0274 35.5202 17.7389 35.3722C17.5465 35.3194 17.3542 35.3194 17.1511 35.4674C16.9588 35.6153 16.8626 35.8056 16.5634 35.8056H1.89144C1.54948 35.8056 1.26096 35.5202 1.26096 35.182V19.7499C1.26096 19.0311 2.04104 19.1262 2.5326 19.1262V33.3005C2.5326 34.0193 3.0669 34.5583 3.75081 34.5583H31.2461C31.9727 34.5583 32.5177 34.0298 32.5177 33.3005V19.1262C33.0093 19.1262 33.7894 19.0311 33.7894 19.7499V35.182H33.768Z" fill="#231F20"/>
<mask id="mask0_227_2433" style="mask-type:luminance" maskUnits="userSpaceOnUse" x="0" y="0" width="35" height="37">
<path d="M20.5173 14.0632C20.902 13.4819 21.105 12.8583 21.2012 12.1818C22.7613 10.8288 24.8558 10.2581 26.9075 10.4483C27.4418 13.4819 30.7545 13.4396 33.1482 13.1014C33.5863 13.0485 33.8321 12.668 33.6825 12.2769C33.2444 11.2199 32.6566 10.2052 31.9727 9.28562C33.2871 8.46116 34.2596 5.71298 34.3664 5.38531C34.516 5.04707 34.2168 4.6137 33.8321 4.6137C33.4902 4.56085 30.5622 4.32831 29.3012 5.1422C28.0296 5.96665 27.3991 7.30904 27.7945 8.41888C27.4525 8.66199 27.2602 8.85225 27.1106 9.24334C26.0847 9.09536 25.0161 9.19049 23.9902 9.43359C24.1398 8.75712 24.2788 7.83753 24.3749 6.9708C27.6876 7.64727 28.2754 3.26075 28.083 0.988213C28.0296 0.607695 27.6449 0.311737 27.2495 0.459716C25.9778 0.840234 24.7596 1.47443 23.7445 2.24604C22.8148 1.3793 21.7462 0.607695 20.6241 0.0791978C20.2822 -0.111061 19.844 0.079198 19.7479 0.459716C19.2136 2.58427 19.4059 8.36603 23.1567 6.78054C23.0606 7.83753 22.8682 8.85225 22.6224 9.86696C21.7462 10.2475 20.9127 10.7337 20.2287 11.4102C18.0381 12.8583 16.9588 12.8054 14.7682 11.4102C14.0842 10.7865 13.2614 10.258 12.3745 9.86696C12.1287 8.85225 11.9363 7.83753 11.8402 6.78054C15.4521 8.32375 15.8368 2.92251 15.249 0.459716C15.1529 0.079198 14.7147 -0.121631 14.3728 0.0791978C13.208 0.607695 12.1821 1.3793 11.2524 2.24604C10.1838 1.47443 9.00836 0.850804 7.69397 0.459716C7.30928 0.311737 6.91389 0.607695 6.91389 0.988213C6.72154 3.25018 7.29859 7.68955 10.5685 6.9708C10.7181 7.83753 10.8143 8.75712 10.9532 9.43359C9.98079 9.19049 8.95493 9.09536 7.92907 9.19049C7.77946 8.85225 7.54437 8.66199 7.24516 8.41888C7.62986 7.30904 6.99938 5.95608 5.73842 5.1422C4.46678 4.31774 1.54948 4.56085 1.20753 4.6137C0.822828 4.6137 0.523618 5.04707 0.673223 5.38531C1.11135 6.64313 1.94487 8.51401 3.0669 9.28562C2.38299 10.2052 1.79526 11.2093 1.35713 12.2769C1.20753 12.6574 1.45331 13.0485 1.84869 13.1014C4.28512 13.4396 7.65123 13.4819 8.1321 10.4483C10.1304 10.2581 12.2249 10.8288 13.7423 12.1818C13.8385 12.8583 14.0842 13.4819 14.4262 14.0104C10.2373 12.8054 6.24067 14.3486 2.97073 17.044C2.72495 17.2342 2.5326 17.5724 2.5326 17.9107C1.26096 17.9107 0.0427443 18.1961 0 19.7393V35.1714C0.0534304 36.1861 0.876258 37 1.90212 37H16.5741C16.9161 37 17.2046 36.9049 17.5038 36.7569C17.7923 36.9049 18.1343 37 18.4762 37H33.1482C34.1741 37 34.9969 36.1755 34.9969 35.1714V19.7393C34.9969 18.1961 33.7253 17.9107 32.507 17.9107C32.507 17.9107 27.9761 12.3615 20.5173 14.0527V14.0632ZM29.1944 11.6956C28.5105 11.2622 27.538 9.96209 28.5104 9.43359C30.4126 10.7337 30.6049 8.3766 32.1651 11.9915C31.0965 12.0444 29.7714 12.0444 29.1944 11.7061V11.6956ZM29.921 6.15691C30.9896 5.72355 31.7697 5.72355 32.8917 5.77639C32.4536 6.73826 31.8231 7.90095 31.2781 8.23919C29.3333 9.59214 27.8159 7.52043 29.9103 6.16748L29.921 6.15691ZM26.8541 1.9078C26.8541 3.01764 26.2236 7.02365 24.3215 5.61785C24.61 4.94137 24.5673 4.07463 24.3749 3.39816C24.8665 2.77453 26.1275 2.19319 26.8648 1.9078H26.8541ZM20.7524 1.56956C22.024 2.28832 23.5307 3.2079 23.2422 4.89909C22.9964 6.53743 20.0257 5.95608 20.7524 1.56956ZM14.1804 1.56956C15.1529 7.30904 10.5258 6.24147 11.9363 3.45101C12.2249 2.86966 13.3042 2.09806 14.1804 1.56956ZM8.07867 1.9078C9.20071 2.34117 9.73501 2.58427 10.6113 3.39816C10.3655 4.07463 10.3655 4.94137 10.6647 5.61785C8.76258 7.01308 8.07867 3.01764 8.07867 1.9078ZM2.13722 5.76582C3.20582 5.71298 4.5309 5.81868 5.0652 6.14634C7.15967 7.4993 5.79185 9.571 3.75081 8.21805C3.16308 7.87981 2.58603 6.72769 2.13722 5.75526V5.76582ZM5.79185 11.6956C5.25755 12.0338 3.94316 12.0338 2.86387 11.981C3.20582 11.1565 3.69738 10.4377 4.27443 9.76126C5.05451 9.95152 5.8346 9.85639 6.46508 9.42302C7.43751 9.95152 6.56125 11.3468 5.78117 11.685L5.79185 11.6956ZM17.4931 23.9461C14.1804 21.6842 14.2232 19.3693 17.4931 17.0968C20.763 19.3588 20.763 21.6736 17.4931 23.9461ZM15.3986 13.1436C16.8092 13.9152 18.1236 13.9152 19.5876 13.1436C19.0533 14.1055 18.4228 14.8348 17.4931 15.4056C16.4245 14.7291 16.0291 14.2006 15.3986 13.1436ZM16.4138 24.7177C15.4414 25.5422 13.7316 27.2228 13.7316 29.0091C13.7316 29.8336 15.0033 29.8336 15.0033 29.0091C15.0033 27.709 16.5634 26.2081 17.4931 25.4365C18.4228 26.2081 19.983 27.6985 19.983 29.0091C19.983 29.8336 21.2546 29.8336 21.2546 29.0091C21.2546 27.2228 19.5448 25.5422 18.5297 24.7177C22.0881 22.0224 22.0881 19.0311 18.5297 16.3252C22.0881 13.1965 28.083 15.3633 31.2568 18.0164V33.3005C27.0144 30.119 22.1415 30.0661 17.5145 33.2054C12.8874 30.0767 8.00387 30.119 3.77218 33.3005V17.9635C6.98869 15.3633 12.9408 13.1859 16.4993 16.3252C12.8874 19.0734 12.7912 21.9167 16.4459 24.7177H16.4138ZM28.9913 33.3005H19.7265C22.6011 31.7045 26.1168 31.7045 28.9913 33.3005ZM15.3025 33.3005H6.03763C8.91219 31.7045 12.4279 31.7045 15.3025 33.3005ZM33.768 35.182C33.768 35.5202 33.4795 35.8056 33.1375 35.8056H18.4655C18.0808 35.8056 18.0274 35.5202 17.7389 35.3722C17.5465 35.3194 17.3542 35.3194 17.1511 35.4674C16.9588 35.6153 16.8626 35.8056 16.5634 35.8056H1.89144C1.54948 35.8056 1.26096 35.5202 1.26096 35.182V19.7499C1.26096 19.0311 2.04104 19.1262 2.5326 19.1262V33.3005C2.5326 34.0193 3.0669 34.5583 3.75081 34.5583H31.2461C31.9727 34.5583 32.5177 34.0298 32.5177 33.3005V19.1262C33.0093 19.1262 33.7894 19.0311 33.7894 19.7499V35.182H33.768Z" fill="white"/>
</mask>
<g mask="url(#mask0_227_2433)">
<path d="M0.267096 -0.111328H-0.0107422V37.0103H0.267096V-0.111328Z" fill="#231F20"/>
<path d="M0.544928 -0.111328H0.26709V37.0103H0.544928V-0.111328Z" fill="#231F20"/>
<path d="M0.812018 -0.111328H0.53418V37.0103H0.812018V-0.111328Z" fill="#231F20"/>
<path d="M1.08985 -0.111328H0.812012V37.0103H1.08985V-0.111328Z" fill="#231F20"/>
<path d="M1.36768 -0.111328H1.08984V37.0103H1.36768V-0.111328Z" fill="#231F20"/>
<path d="M1.63477 -0.111328H1.35693V37.0103H1.63477V-0.111328Z" fill="#231F20"/>
<path d="M1.9126 -0.111328H1.63477V37.0103H1.9126V-0.111328Z" fill="#231F20"/>
<path d="M2.17969 -0.111328H1.90186V37.0103H2.17969V-0.111328Z" fill="#231F20"/>
<path d="M2.45753 -0.111328H2.17969V37.0103H2.45753V-0.111328Z" fill="#231F20"/>
<path d="M2.7251 -0.111328H2.44727V37.0103H2.7251V-0.111328Z" fill="#231F20"/>
<path d="M3.00294 -0.111328H2.7251V37.0103H3.00294V-0.111328Z" fill="#231F20"/>
<path d="M3.28077 -0.111328H3.00293V37.0103H3.28077V-0.111328Z" fill="#231F20"/>
<path d="M3.54786 -0.111328H3.27002V37.0103H3.54786V-0.111328Z" fill="#231F20"/>
<path d="M3.82569 -0.111328H3.54785V37.0103H3.82569V-0.111328Z" fill="#231F20"/>
<path d="M4.09278 -0.111328H3.81494V37.0103H4.09278V-0.111328Z" fill="#231F20"/>
<path d="M4.37061 -0.111328H4.09277V37.0103H4.37061V-0.111328Z" fill="#231F20"/>
<path d="M4.64844 -0.111328H4.37061V37.0103H4.64844V-0.111328Z" fill="#231F20"/>
<path d="M4.91553 -0.111328H4.6377V37.0103H4.91553V-0.111328Z" fill="#231F20"/>
<path d="M5.19336 -0.111328H4.91553V37.0103H5.19336V-0.111328Z" fill="#231F20"/>
<path d="M5.46045 -0.111328H5.18262V37.0103H5.46045V-0.111328Z" fill="#231F20"/>
<path d="M5.73829 -0.111328H5.46045V37.0103H5.73829V-0.111328Z" fill="#231F20"/>
<path d="M6.01612 -0.111328H5.73828V37.0103H6.01612V-0.111328Z" fill="#231F20"/>
<path d="M6.28321 -0.111328H6.00537V37.0103H6.28321V-0.111328Z" fill="#231F20"/>
<path d="M6.56104 -0.111328H6.2832V37.0103H6.56104V-0.111328Z" fill="#231F20"/>
<path d="M6.82813 -0.111328H6.55029V37.0103H6.82813V-0.111328Z" fill="#231F20"/>
<path d="M7.10596 -0.111328H6.82812V37.0103H7.10596V-0.111328Z" fill="#231F20"/>
<path d="M7.37354 -0.111328H7.0957V37.0103H7.37354V-0.111328Z" fill="#231F20"/>
<path d="M7.65137 -0.111328H7.37354V37.0103H7.65137V-0.111328Z" fill="#231F20"/>
<path d="M7.92921 -0.111328H7.65137V37.0103H7.92921V-0.111328Z" fill="#231F20"/>
<path d="M8.1963 -0.111328H7.91846V37.0103H8.1963V-0.111328Z" fill="#231F20"/>
<path d="M8.47413 -0.111328H8.19629V37.0103H8.47413V-0.111328Z" fill="#231F20"/>
<path d="M8.74122 -0.111328H8.46338V37.0103H8.74122V-0.111328Z" fill="#231F20"/>
<path d="M9.01905 -0.111328H8.74121V37.0103H9.01905V-0.111328Z" fill="#231F20"/>
<path d="M9.29688 -0.111328H9.01904V37.0103H9.29688V-0.111328Z" fill="#231F20"/>
<path d="M9.56397 -0.111328H9.28613V37.0103H9.56397V-0.111328Z" fill="#231F20"/>
<path d="M9.8418 -0.111328H9.56396V37.0103H9.8418V-0.111328Z" fill="#231F20"/>
<path d="M10.1089 -0.111328H9.83105V37.0103H10.1089V-0.111328Z" fill="#231F20"/>
<path d="M10.3867 -0.111328H10.1089V37.0103H10.3867V-0.111328Z" fill="#231F20"/>
<path d="M10.6646 -0.111328H10.3867V37.0103H10.6646V-0.111328Z" fill="#231F20"/>
<path d="M10.9316 -0.111328H10.6538V37.0103H10.9316V-0.111328Z" fill="#231F20"/>
<path d="M11.2095 -0.111328H10.9316V37.0103H11.2095V-0.111328Z" fill="#231F20"/>
<path d="M11.4766 -0.111328H11.1987V37.0103H11.4766V-0.111328Z" fill="#231F20"/>
<path d="M11.7544 -0.111328H11.4766V37.0103H11.7544V-0.111328Z" fill="#231F20"/>
<path d="M12.022 -0.111328H11.7441V37.0103H12.022V-0.111328Z" fill="#231F20"/>
<path d="M12.2998 -0.111328H12.022V37.0103H12.2998V-0.111328Z" fill="#231F20"/>
<path d="M12.5776 -0.111328H12.2998V37.0103H12.5776V-0.111328Z" fill="#231F20"/>
<path d="M12.8447 -0.111328H12.5669V37.0103H12.8447V-0.111328Z" fill="#231F20"/>
<path d="M13.1226 -0.111328H12.8447V37.0103H13.1226V-0.111328Z" fill="#231F20"/>
<path d="M13.3897 -0.111328H13.1118V37.0103H13.3897V-0.111328Z" fill="#231F20"/>
<path d="M13.6675 -0.111328H13.3896V37.0103H13.6675V-0.111328Z" fill="#231F20"/>
<path d="M13.9453 -0.111328H13.6675V37.0103H13.9453V-0.111328Z" fill="#231F20"/>
<path d="M14.2124 -0.111328H13.9346V37.0103H14.2124V-0.111328Z" fill="#231F20"/>
<path d="M14.4902 -0.111328H14.2124V37.0103H14.4902V-0.111328Z" fill="#231F20"/>
<path d="M14.7573 -0.111328H14.4795V37.0103H14.7573V-0.111328Z" fill="#231F20"/>
<path d="M15.0352 -0.111328H14.7573V37.0103H15.0352V-0.111328Z" fill="#231F20"/>
<path d="M15.313 -0.111328H15.0352V37.0103H15.313V-0.111328Z" fill="#231F20"/>
<path d="M15.5801 -0.111328H15.3022V37.0103H15.5801V-0.111328Z" fill="#231F20"/>
<path d="M15.8579 -0.111328H15.5801V37.0103H15.8579V-0.111328Z" fill="#231F20"/>
<path d="M16.125 -0.111328H15.8472V37.0103H16.125V-0.111328Z" fill="#231F20"/>
<path d="M16.4028 -0.111328H16.125V37.0103H16.4028V-0.111328Z" fill="#231F20"/>
<path d="M16.6704 -0.111328H16.3926V37.0103H16.6704V-0.111328Z" fill="#231F20"/>
<path d="M16.9482 -0.111328H16.6704V37.0103H16.9482V-0.111328Z" fill="#231F20"/>
<path d="M17.2261 -0.111328H16.9482V37.0103H17.2261V-0.111328Z" fill="#231F20"/>
<path d="M17.4932 -0.111328H17.2153V37.0103H17.4932V-0.111328Z" fill="#231F20"/>
<path d="M17.771 -0.111328H17.4932V37.0103H17.771V-0.111328Z" fill="#231F20"/>
<path d="M18.0381 -0.111328H17.7603V37.0103H18.0381V-0.111328Z" fill="#231F20"/>
<path d="M18.3159 -0.111328H18.0381V37.0103H18.3159V-0.111328Z" fill="#231F20"/>
<path d="M18.5938 -0.111328H18.3159V37.0103H18.5938V-0.111328Z" fill="#231F20"/>
<path d="M18.8608 -0.111328H18.583V37.0103H18.8608V-0.111328Z" fill="#231F20"/>
<path d="M19.1387 -0.111328H18.8608V37.0103H19.1387V-0.111328Z" fill="#231F20"/>
<path d="M19.4058 -0.111328H19.1279V37.0103H19.4058V-0.111328Z" fill="#231F20"/>
<path d="M19.6836 -0.111328H19.4058V37.0103H19.6836V-0.111328Z" fill="#231F20"/>
<path d="M19.9614 -0.111328H19.6836V37.0103H19.9614V-0.111328Z" fill="#231F20"/>
<path d="M20.2285 -0.111328H19.9507V37.0103H20.2285V-0.111328Z" fill="#231F20"/>
<path d="M20.5064 -0.111328H20.2285V37.0103H20.5064V-0.111328Z" fill="#231F20"/>
<path d="M20.7734 -0.111328H20.4956V37.0103H20.7734V-0.111328Z" fill="#231F20"/>
<path d="M21.0513 -0.111328H20.7734V37.0103H21.0513V-0.111328Z" fill="#231F20"/>
<path d="M21.3296 -0.111328H21.0518V37.0103H21.3296V-0.111328Z" fill="#231F20"/>
<path d="M21.5967 -0.111328H21.3188V37.0103H21.5967V-0.111328Z" fill="#231F20"/>
<path d="M21.8745 -0.111328H21.5967V37.0103H21.8745V-0.111328Z" fill="#231F20"/>
<path d="M22.1416 -0.111328H21.8638V37.0103H22.1416V-0.111328Z" fill="#231F20"/>
<path d="M22.4194 -0.111328H22.1416V37.0103H22.4194V-0.111328Z" fill="#231F20"/>
<path d="M22.6865 -0.111328H22.4087V37.0103H22.6865V-0.111328Z" fill="#231F20"/>
<path d="M22.9644 -0.111328H22.6865V37.0103H22.9644V-0.111328Z" fill="#231F20"/>
<path d="M23.2422 -0.111328H22.9644V37.0103H23.2422V-0.111328Z" fill="#231F20"/>
<path d="M23.5093 -0.111328H23.2314V37.0103H23.5093V-0.111328Z" fill="#231F20"/>
<path d="M23.7871 -0.111328H23.5093V37.0103H23.7871V-0.111328Z" fill="#231F20"/>
<path d="M24.0542 -0.111328H23.7764V37.0103H24.0542V-0.111328Z" fill="#231F20"/>
<path d="M24.332 -0.111328H24.0542V37.0103H24.332V-0.111328Z" fill="#231F20"/>
<path d="M24.6099 -0.111328H24.332V37.0103H24.6099V-0.111328Z" fill="#231F20"/>
<path d="M24.877 -0.111328H24.5991V37.0103H24.877V-0.111328Z" fill="#231F20"/>
<path d="M25.1548 -0.111328H24.877V37.0103H25.1548V-0.111328Z" fill="#231F20"/>
<path d="M25.4219 -0.111328H25.144V37.0103H25.4219V-0.111328Z" fill="#231F20"/>
<path d="M25.7002 -0.111328H25.4224V37.0103H25.7002V-0.111328Z" fill="#231F20"/>
<path d="M25.978 -0.111328H25.7002V37.0103H25.978V-0.111328Z" fill="#231F20"/>
<path d="M26.2451 -0.111328H25.9673V37.0103H26.2451V-0.111328Z" fill="#231F20"/>
<path d="M26.523 -0.111328H26.2451V37.0103H26.523V-0.111328Z" fill="#231F20"/>
<path d="M26.79 -0.111328H26.5122V37.0103H26.79V-0.111328Z" fill="#231F20"/>
<path d="M27.0679 -0.111328H26.79V37.0103H27.0679V-0.111328Z" fill="#231F20"/>
<path d="M27.335 -0.111328H27.0571V37.0103H27.335V-0.111328Z" fill="#231F20"/>
<path d="M27.6128 -0.111328H27.335V37.0103H27.6128V-0.111328Z" fill="#231F20"/>
<path d="M27.8906 -0.111328H27.6128V37.0103H27.8906V-0.111328Z" fill="#231F20"/>
<path d="M28.1577 -0.111328H27.8799V37.0103H28.1577V-0.111328Z" fill="#231F20"/>
<path d="M28.4356 -0.111328H28.1577V37.0103H28.4356V-0.111328Z" fill="#231F20"/>
<path d="M28.7026 -0.111328H28.4248V37.0103H28.7026V-0.111328Z" fill="#231F20"/>
<path d="M28.9805 -0.111328H28.7026V37.0103H28.9805V-0.111328Z" fill="#231F20"/>
<path d="M29.2583 -0.111328H28.9805V37.0103H29.2583V-0.111328Z" fill="#231F20"/>
<path d="M29.5254 -0.111328H29.2476V37.0103H29.5254V-0.111328Z" fill="#231F20"/>
<path d="M29.8032 -0.111328H29.5254V37.0103H29.8032V-0.111328Z" fill="#231F20"/>
<path d="M30.0703 -0.111328H29.7925V37.0103H30.0703V-0.111328Z" fill="#231F20"/>
<path d="M30.3486 -0.111328H30.0708V37.0103H30.3486V-0.111328Z" fill="#231F20"/>
<path d="M30.6265 -0.111328H30.3486V37.0103H30.6265V-0.111328Z" fill="#231F20"/>
<path d="M30.8936 -0.111328H30.6157V37.0103H30.8936V-0.111328Z" fill="#231F20"/>
<path d="M31.1714 -0.111328H30.8936V37.0103H31.1714V-0.111328Z" fill="#231F20"/>
<path d="M31.4385 -0.111328H31.1606V37.0103H31.4385V-0.111328Z" fill="#231F20"/>
<path d="M31.7163 -0.111328H31.4385V37.0103H31.7163V-0.111328Z" fill="#231F20"/>
<path d="M31.9834 -0.111328H31.7056V37.0103H31.9834V-0.111328Z" fill="#231F20"/>
<path d="M32.2612 -0.111328H31.9834V37.0103H32.2612V-0.111328Z" fill="#231F20"/>
<path d="M32.5391 -0.111328H32.2612V37.0103H32.5391V-0.111328Z" fill="#231F20"/>
<path d="M32.8062 -0.111328H32.5283V37.0103H32.8062V-0.111328Z" fill="#231F20"/>
<path d="M33.084 -0.111328H32.8062V37.0103H33.084V-0.111328Z" fill="#231F20"/>
<path d="M33.3511 -0.111328H33.0732V37.0103H33.3511V-0.111328Z" fill="#231F20"/>
<path d="M33.6289 -0.111328H33.3511V37.0103H33.6289V-0.111328Z" fill="#231F20"/>
<path d="M33.9067 -0.111328H33.6289V37.0103H33.9067V-0.111328Z" fill="#231F20"/>
<path d="M34.1738 -0.111328H33.896V37.0103H34.1738V-0.111328Z" fill="#231F20"/>
<path d="M34.4517 -0.111328H34.1738V37.0103H34.4517V-0.111328Z" fill="#231F20"/>
<path d="M34.7192 -0.111328H34.4414V37.0103H34.7192V-0.111328Z" fill="#231F20"/>
<path d="M34.9971 -0.111328H34.7192V37.0103H34.9971V-0.111328Z" fill="#231F20"/>
</g>
<path d="M15.8797 18.9366C15.7836 19.0317 15.7836 19.222 15.8797 19.3171L18.7543 22.1604C18.8505 22.2555 19.0001 22.2555 19.0963 22.1604C19.1924 22.0653 19.1924 21.875 19.0963 21.7799L16.2644 18.9366C16.1683 18.8415 15.9759 18.8415 15.8797 18.9366Z" fill="#231F20"/>
<mask id="mask1_227_2433" style="mask-type:luminance" maskUnits="userSpaceOnUse" x="15" y="18" width="5" height="5">
<path d="M15.8797 18.9366C15.7836 19.0317 15.7836 19.222 15.8797 19.3171L18.7543 22.1604C18.8505 22.2555 19.0001 22.2555 19.0963 22.1604C19.1924 22.0653 19.1924 21.875 19.0963 21.7799L16.2644 18.9366C16.1683 18.8415 15.9759 18.8415 15.8797 18.9366Z" fill="white"/>
</mask>
<g mask="url(#mask1_227_2433)">
<path d="M15.8371 18.8301H15.7837V22.2547H15.8371V18.8301Z" fill="#231F20"/>
<path d="M15.8583 18.8301H15.8369V22.2547H15.8583V18.8301Z" fill="#231F20"/>
<path d="M15.8905 18.8301H15.8691V22.2547H15.8905V18.8301Z" fill="#231F20"/>
<path d="M15.912 18.8301H15.8906V22.2547H15.912V18.8301Z" fill="#231F20"/>
<path d="M15.9442 18.8301H15.9229V22.2547H15.9442V18.8301Z" fill="#231F20"/>
<path d="M15.9652 18.8301H15.9438V22.2547H15.9652V18.8301Z" fill="#231F20"/>
<path d="M15.9974 18.8301H15.9761V22.2547H15.9974V18.8301Z" fill="#231F20"/>
<path d="M16.0189 18.8301H15.9976V22.2547H16.0189V18.8301Z" fill="#231F20"/>
<path d="M16.0507 18.8301H16.0293V22.2547H16.0507V18.8301Z" fill="#231F20"/>
<path d="M16.0722 18.8301H16.0508V22.2547H16.0722V18.8301Z" fill="#231F20"/>
<path d="M16.1044 18.8301H16.083V22.2547H16.1044V18.8301Z" fill="#231F20"/>
<path d="M16.1259 18.8301H16.1045V22.2547H16.1259V18.8301Z" fill="#231F20"/>
<path d="M16.1576 18.8301H16.1362V22.2547H16.1576V18.8301Z" fill="#231F20"/>
<path d="M16.1791 18.8301H16.1577V22.2547H16.1791V18.8301Z" fill="#231F20"/>
<path d="M16.2113 18.8301H16.1899V22.2547H16.2113V18.8301Z" fill="#231F20"/>
<path d="M16.2323 18.8301H16.2109V22.2547H16.2323V18.8301Z" fill="#231F20"/>
<path d="M16.2645 18.8301H16.2432V22.2547H16.2645V18.8301Z" fill="#231F20"/>
<path d="M16.286 18.8301H16.2646V22.2547H16.286V18.8301Z" fill="#231F20"/>
<path d="M16.3178 18.8301H16.2964V22.2547H16.3178V18.8301Z" fill="#231F20"/>
<path d="M16.3392 18.8301H16.3179V22.2547H16.3392V18.8301Z" fill="#231F20"/>
<path d="M16.3715 18.8301H16.3501V22.2547H16.3715V18.8301Z" fill="#231F20"/>
<path d="M16.393 18.8301H16.3716V22.2547H16.393V18.8301Z" fill="#231F20"/>
<path d="M16.4247 18.8301H16.4033V22.2547H16.4247V18.8301Z" fill="#231F20"/>
<path d="M16.4462 18.8301H16.4248V22.2547H16.4462V18.8301Z" fill="#231F20"/>
<path d="M16.4784 18.8301H16.457V22.2547H16.4784V18.8301Z" fill="#231F20"/>
<path d="M16.4999 18.8301H16.4785V22.2547H16.4999V18.8301Z" fill="#231F20"/>
<path d="M16.5316 18.8301H16.5103V22.2547H16.5316V18.8301Z" fill="#231F20"/>
<path d="M16.5531 18.8301H16.5317V22.2547H16.5531V18.8301Z" fill="#231F20"/>
<path d="M16.5853 18.8301H16.564V22.2547H16.5853V18.8301Z" fill="#231F20"/>
<path d="M16.6063 18.8301H16.585V22.2547H16.6063V18.8301Z" fill="#231F20"/>
<path d="M16.6386 18.8301H16.6172V22.2547H16.6386V18.8301Z" fill="#231F20"/>
<path d="M16.66 18.8301H16.6387V22.2547H16.66V18.8301Z" fill="#231F20"/>
<path d="M16.6918 18.8301H16.6704V22.2547H16.6918V18.8301Z" fill="#231F20"/>
<path d="M16.7133 18.8301H16.6919V22.2547H16.7133V18.8301Z" fill="#231F20"/>
<path d="M16.7455 18.8301H16.7241V22.2547H16.7455V18.8301Z" fill="#231F20"/>
<path d="M16.767 18.8301H16.7456V22.2547H16.767V18.8301Z" fill="#231F20"/>
<path d="M16.788 18.8301H16.7666V22.2547H16.788V18.8301Z" fill="#231F20"/>
<path d="M16.8202 18.8301H16.7988V22.2547H16.8202V18.8301Z" fill="#231F20"/>
<path d="M16.8417 18.8301H16.8203V22.2547H16.8417V18.8301Z" fill="#231F20"/>
<path d="M16.8739 18.8301H16.8525V22.2547H16.8739V18.8301Z" fill="#231F20"/>
<path d="M16.8949 18.8301H16.8735V22.2547H16.8949V18.8301Z" fill="#231F20"/>
<path d="M16.9271 18.8301H16.9058V22.2547H16.9271V18.8301Z" fill="#231F20"/>
<path d="M16.9486 18.8301H16.9272V22.2547H16.9486V18.8301Z" fill="#231F20"/>
<path d="M16.9804 18.8301H16.959V22.2547H16.9804V18.8301Z" fill="#231F20"/>
<path d="M17.0018 18.8301H16.9805V22.2547H17.0018V18.8301Z" fill="#231F20"/>
<path d="M17.0341 18.8301H17.0127V22.2547H17.0341V18.8301Z" fill="#231F20"/>
<path d="M17.0556 18.8301H17.0342V22.2547H17.0556V18.8301Z" fill="#231F20"/>
<path d="M17.0873 18.8301H17.0659V22.2547H17.0873V18.8301Z" fill="#231F20"/>
<path d="M17.1088 18.8301H17.0874V22.2547H17.1088V18.8301Z" fill="#231F20"/>
<path d="M17.141 18.8301H17.1196V22.2547H17.141V18.8301Z" fill="#231F20"/>
<path d="M17.162 18.8301H17.1406V22.2547H17.162V18.8301Z" fill="#231F20"/>
<path d="M17.1942 18.8301H17.1729V22.2547H17.1942V18.8301Z" fill="#231F20"/>
<path d="M17.2157 18.8301H17.1943V22.2547H17.2157V18.8301Z" fill="#231F20"/>
<path d="M17.2474 18.8301H17.2261V22.2547H17.2474V18.8301Z" fill="#231F20"/>
<path d="M17.2689 18.8301H17.2476V22.2547H17.2689V18.8301Z" fill="#231F20"/>
<path d="M17.3012 18.8301H17.2798V22.2547H17.3012V18.8301Z" fill="#231F20"/>
<path d="M17.3226 18.8301H17.3013V22.2547H17.3226V18.8301Z" fill="#231F20"/>
<path d="M17.3544 18.8301H17.333V22.2547H17.3544V18.8301Z" fill="#231F20"/>
<path d="M17.3759 18.8301H17.3545V22.2547H17.3759V18.8301Z" fill="#231F20"/>
<path d="M17.4081 18.8301H17.3867V22.2547H17.4081V18.8301Z" fill="#231F20"/>
<path d="M17.4296 18.8301H17.4082V22.2547H17.4296V18.8301Z" fill="#231F20"/>
<path d="M17.4613 18.8301H17.4399V22.2547H17.4613V18.8301Z" fill="#231F20"/>
<path d="M17.4828 18.8301H17.4614V22.2547H17.4828V18.8301Z" fill="#231F20"/>
<path d="M17.515 18.8301H17.4937V22.2547H17.515V18.8301Z" fill="#231F20"/>
<path d="M17.536 18.8301H17.5146V22.2547H17.536V18.8301Z" fill="#231F20"/>
<path d="M17.5682 18.8301H17.5469V22.2547H17.5682V18.8301Z" fill="#231F20"/>
<path d="M17.5897 18.8301H17.5684V22.2547H17.5897V18.8301Z" fill="#231F20"/>
<path d="M17.6215 18.8301H17.6001V22.2547H17.6215V18.8301Z" fill="#231F20"/>
<path d="M17.643 18.8301H17.6216V22.2547H17.643V18.8301Z" fill="#231F20"/>
<path d="M17.6752 18.8301H17.6538V22.2547H17.6752V18.8301Z" fill="#231F20"/>
<path d="M17.6967 18.8301H17.6753V22.2547H17.6967V18.8301Z" fill="#231F20"/>
<path d="M17.7284 18.8301H17.707V22.2547H17.7284V18.8301Z" fill="#231F20"/>
<path d="M17.7499 18.8301H17.7285V22.2547H17.7499V18.8301Z" fill="#231F20"/>
<path d="M17.7821 18.8301H17.7607V22.2547H17.7821V18.8301Z" fill="#231F20"/>
<path d="M17.8036 18.8301H17.7822V22.2547H17.8036V18.8301Z" fill="#231F20"/>
<path d="M17.8353 18.8301H17.814V22.2547H17.8353V18.8301Z" fill="#231F20"/>
<path d="M17.8568 18.8301H17.8354V22.2547H17.8568V18.8301Z" fill="#231F20"/>
<path d="M17.889 18.8301H17.8677V22.2547H17.889V18.8301Z" fill="#231F20"/>
<path d="M17.91 18.8301H17.8887V22.2547H17.91V18.8301Z" fill="#231F20"/>
<path d="M17.9423 18.8301H17.9209V22.2547H17.9423V18.8301Z" fill="#231F20"/>
<path d="M17.9638 18.8301H17.9424V22.2547H17.9638V18.8301Z" fill="#231F20"/>
<path d="M17.9955 18.8301H17.9741V22.2547H17.9955V18.8301Z" fill="#231F20"/>
<path d="M18.017 18.8301H17.9956V22.2547H18.017V18.8301Z" fill="#231F20"/>
<path d="M18.0492 18.8301H18.0278V22.2547H18.0492V18.8301Z" fill="#231F20"/>
<path d="M18.0707 18.8301H18.0493V22.2547H18.0707V18.8301Z" fill="#231F20"/>
<path d="M18.1024 18.8301H18.0811V22.2547H18.1024V18.8301Z" fill="#231F20"/>
<path d="M18.1239 18.8301H18.1025V22.2547H18.1239V18.8301Z" fill="#231F20"/>
<path d="M18.1561 18.8301H18.1348V22.2547H18.1561V18.8301Z" fill="#231F20"/>
<path d="M18.1771 18.8301H18.1558V22.2547H18.1771V18.8301Z" fill="#231F20"/>
<path d="M18.2094 18.8301H18.188V22.2547H18.2094V18.8301Z" fill="#231F20"/>
<path d="M18.2308 18.8301H18.2095V22.2547H18.2308V18.8301Z" fill="#231F20"/>
<path d="M18.2631 18.8301H18.2417V22.2547H18.2631V18.8301Z" fill="#231F20"/>
<path d="M18.2841 18.8301H18.2627V22.2547H18.2841V18.8301Z" fill="#231F20"/>
<path d="M18.3163 18.8301H18.2949V22.2547H18.3163V18.8301Z" fill="#231F20"/>
<path d="M18.3378 18.8301H18.3164V22.2547H18.3378V18.8301Z" fill="#231F20"/>
<path d="M18.3695 18.8301H18.3481V22.2547H18.3695V18.8301Z" fill="#231F20"/>
<path d="M18.391 18.8301H18.3696V22.2547H18.391V18.8301Z" fill="#231F20"/>
<path d="M18.4232 18.8301H18.4019V22.2547H18.4232V18.8301Z" fill="#231F20"/>
<path d="M18.4447 18.8301H18.4233V22.2547H18.4447V18.8301Z" fill="#231F20"/>
<path d="M18.4765 18.8301H18.4551V22.2547H18.4765V18.8301Z" fill="#231F20"/>
<path d="M18.4979 18.8301H18.4766V22.2547H18.4979V18.8301Z" fill="#231F20"/>
<path d="M18.5302 18.8301H18.5088V22.2547H18.5302V18.8301Z" fill="#231F20"/>
<path d="M18.5512 18.8301H18.5298V22.2547H18.5512V18.8301Z" fill="#231F20"/>
<path d="M18.5834 18.8301H18.562V22.2547H18.5834V18.8301Z" fill="#231F20"/>
<path d="M18.6049 18.8301H18.5835V22.2547H18.6049V18.8301Z" fill="#231F20"/>
<path d="M18.6371 18.8301H18.6157V22.2547H18.6371V18.8301Z" fill="#231F20"/>
<path d="M18.6581 18.8301H18.6367V22.2547H18.6581V18.8301Z" fill="#231F20"/>
<path d="M18.6903 18.8301H18.6689V22.2547H18.6903V18.8301Z" fill="#231F20"/>
<path d="M18.7118 18.8301H18.6904V22.2547H18.7118V18.8301Z" fill="#231F20"/>
<path d="M18.7435 18.8301H18.7222V22.2547H18.7435V18.8301Z" fill="#231F20"/>
<path d="M18.765 18.8301H18.7437V22.2547H18.765V18.8301Z" fill="#231F20"/>
<path d="M18.7973 18.8301H18.7759V22.2547H18.7973V18.8301Z" fill="#231F20"/>
<path d="M18.8187 18.8301H18.7974V22.2547H18.8187V18.8301Z" fill="#231F20"/>
<path d="M18.8505 18.8301H18.8291V22.2547H18.8505V18.8301Z" fill="#231F20"/>
<path d="M18.872 18.8301H18.8506V22.2547H18.872V18.8301Z" fill="#231F20"/>
<path d="M18.9042 18.8301H18.8828V22.2547H18.9042V18.8301Z" fill="#231F20"/>
<path d="M18.9252 18.8301H18.9038V22.2547H18.9252V18.8301Z" fill="#231F20"/>
<path d="M18.9574 18.8301H18.936V22.2547H18.9574V18.8301Z" fill="#231F20"/>
<path d="M18.9789 18.8301H18.9575V22.2547H18.9789V18.8301Z" fill="#231F20"/>
<path d="M19.0111 18.8301H18.9897V22.2547H19.0111V18.8301Z" fill="#231F20"/>
<path d="M19.0321 18.8301H19.0107V22.2547H19.0321V18.8301Z" fill="#231F20"/>
<path d="M19.0643 18.8301H19.043V22.2547H19.0643V18.8301Z" fill="#231F20"/>
<path d="M19.0858 18.8301H19.0645V22.2547H19.0858V18.8301Z" fill="#231F20"/>
<path d="M19.1176 18.8301H19.0962V22.2547H19.1176V18.8301Z" fill="#231F20"/>
<path d="M19.139 18.8301H19.1177V22.2547H19.139V18.8301Z" fill="#231F20"/>
<path d="M19.2033 18.8301H19.1499V22.2547H19.2033V18.8301Z" fill="#231F20"/>
</g>
<path d="M18.5617 19.8026L17.0977 18.3546C17.0015 18.2594 16.8519 18.2594 16.7557 18.3546C16.6596 18.4497 16.6596 18.6399 16.7557 18.6928L18.1663 20.1409C18.3159 20.2888 18.4548 20.2888 18.551 20.1937C18.6472 20.0457 18.6472 19.9083 18.551 19.8132L18.5617 19.8026Z" fill="#231F20"/>
<mask id="mask2_227_2433" style="mask-type:luminance" maskUnits="userSpaceOnUse" x="16" y="18" width="3" height="3">
<path d="M18.5617 19.8026L17.0977 18.3546C17.0015 18.2594 16.8519 18.2594 16.7557 18.3546C16.6596 18.4497 16.6596 18.6399 16.7557 18.6928L18.1663 20.1409C18.3159 20.2888 18.4548 20.2888 18.551 20.1937C18.6472 20.0457 18.6472 19.9083 18.551 19.8132L18.5617 19.8026Z" fill="white"/>
</mask>
<g mask="url(#mask2_227_2433)">
<path d="M16.6917 18.2598H16.6597V20.2892H16.6917V18.2598Z" fill="#231F20"/>
<path d="M16.7026 18.2598H16.6919V20.2892H16.7026V18.2598Z" fill="#231F20"/>
<path d="M16.7236 18.2598H16.7129V20.2892H16.7236V18.2598Z" fill="#231F20"/>
<path d="M16.7343 18.2598H16.7236V20.2892H16.7343V18.2598Z" fill="#231F20"/>
<path d="M16.7558 18.2598H16.7451V20.2892H16.7558V18.2598Z" fill="#231F20"/>
<path d="M16.7665 18.2598H16.7559V20.2892H16.7665V18.2598Z" fill="#231F20"/>
<path d="M16.788 18.2598H16.7773V20.2892H16.788V18.2598Z" fill="#231F20"/>
<path d="M16.7988 18.2598H16.7881V20.2892H16.7988V18.2598Z" fill="#231F20"/>
<path d="M16.8095 18.2598H16.7988V20.2892H16.8095V18.2598Z" fill="#231F20"/>
<path d="M16.8305 18.2598H16.8198V20.2892H16.8305V18.2598Z" fill="#231F20"/>
<path d="M16.8413 18.2598H16.8306V20.2892H16.8413V18.2598Z" fill="#231F20"/>
<path d="M16.8627 18.2598H16.8521V20.2892H16.8627V18.2598Z" fill="#231F20"/>
<path d="M16.8735 18.2598H16.8628V20.2892H16.8735V18.2598Z" fill="#231F20"/>
<path d="M16.895 18.2598H16.8843V20.2892H16.895V18.2598Z" fill="#231F20"/>
<path d="M16.9052 18.2598H16.8945V20.2892H16.9052V18.2598Z" fill="#231F20"/>
<path d="M16.9267 18.2598H16.916V20.2892H16.9267V18.2598Z" fill="#231F20"/>
<path d="M16.9374 18.2598H16.9268V20.2892H16.9374V18.2598Z" fill="#231F20"/>
<path d="M16.9589 18.2598H16.9482V20.2892H16.9589V18.2598Z" fill="#231F20"/>
<path d="M16.9697 18.2598H16.959V20.2892H16.9697V18.2598Z" fill="#231F20"/>
<path d="M16.9912 18.2598H16.9805V20.2892H16.9912V18.2598Z" fill="#231F20"/>
<path d="M17.0014 18.2598H16.9907V20.2892H17.0014V18.2598Z" fill="#231F20"/>
<path d="M17.0122 18.2598H17.0015V20.2892H17.0122V18.2598Z" fill="#231F20"/>
<path d="M17.0336 18.2598H17.0229V20.2892H17.0336V18.2598Z" fill="#231F20"/>
<path d="M17.0444 18.2598H17.0337V20.2892H17.0444V18.2598Z" fill="#231F20"/>
<path d="M17.0659 18.2598H17.0552V20.2892H17.0659V18.2598Z" fill="#231F20"/>
<path d="M17.0766 18.2598H17.0659V20.2892H17.0766V18.2598Z" fill="#231F20"/>
<path d="M17.0976 18.2598H17.0869V20.2892H17.0976V18.2598Z" fill="#231F20"/>
<path d="M17.1083 18.2598H17.0977V20.2892H17.1083V18.2598Z" fill="#231F20"/>
<path d="M17.1298 18.2598H17.1191V20.2892H17.1298V18.2598Z" fill="#231F20"/>
<path d="M17.1406 18.2598H17.1299V20.2892H17.1406V18.2598Z" fill="#231F20"/>
<path d="M17.1621 18.2598H17.1514V20.2892H17.1621V18.2598Z" fill="#231F20"/>
<path d="M17.1728 18.2598H17.1621V20.2892H17.1728V18.2598Z" fill="#231F20"/>
<path d="M17.1938 18.2598H17.1831V20.2892H17.1938V18.2598Z" fill="#231F20"/>
<path d="M17.2045 18.2598H17.1938V20.2892H17.2045V18.2598Z" fill="#231F20"/>
<path d="M17.2153 18.2598H17.2046V20.2892H17.2153V18.2598Z" fill="#231F20"/>
<path d="M17.2368 18.2598H17.2261V20.2892H17.2368V18.2598Z" fill="#231F20"/>
<path d="M17.2475 18.2598H17.2368V20.2892H17.2475V18.2598Z" fill="#231F20"/>
<path d="M17.269 18.2598H17.2583V20.2892H17.269V18.2598Z" fill="#231F20"/>
<path d="M17.2792 18.2598H17.2686V20.2892H17.2792V18.2598Z" fill="#231F20"/>
<path d="M17.3007 18.2598H17.29V20.2892H17.3007V18.2598Z" fill="#231F20"/>
<path d="M17.3115 18.2598H17.3008V20.2892H17.3115V18.2598Z" fill="#231F20"/>
<path d="M17.333 18.2598H17.3223V20.2892H17.333V18.2598Z" fill="#231F20"/>
<path d="M17.3437 18.2598H17.333V20.2892H17.3437V18.2598Z" fill="#231F20"/>
<path d="M17.3652 18.2598H17.3545V20.2892H17.3652V18.2598Z" fill="#231F20"/>
<path d="M17.3754 18.2598H17.3647V20.2892H17.3754V18.2598Z" fill="#231F20"/>
<path d="M17.3969 18.2598H17.3862V20.2892H17.3969V18.2598Z" fill="#231F20"/>
<path d="M17.4077 18.2598H17.397V20.2892H17.4077V18.2598Z" fill="#231F20"/>
<path d="M17.4184 18.2598H17.4077V20.2892H17.4184V18.2598Z" fill="#231F20"/>
<path d="M17.4399 18.2598H17.4292V20.2892H17.4399V18.2598Z" fill="#231F20"/>
<path d="M17.4506 18.2598H17.4399V20.2892H17.4506V18.2598Z" fill="#231F20"/>
<path d="M17.4716 18.2598H17.4609V20.2892H17.4716V18.2598Z" fill="#231F20"/>
<path d="M17.4824 18.2598H17.4717V20.2892H17.4824V18.2598Z" fill="#231F20"/>
<path d="M17.5038 18.2598H17.4932V20.2892H17.5038V18.2598Z" fill="#231F20"/>
<path d="M17.5146 18.2598H17.5039V20.2892H17.5146V18.2598Z" fill="#231F20"/>
<path d="M17.5361 18.2598H17.5254V20.2892H17.5361V18.2598Z" fill="#231F20"/>
<path d="M17.5468 18.2598H17.5361V20.2892H17.5468V18.2598Z" fill="#231F20"/>
<path d="M17.5678 18.2598H17.5571V20.2892H17.5678V18.2598Z" fill="#231F20"/>
<path d="M17.5786 18.2598H17.5679V20.2892H17.5786V18.2598Z" fill="#231F20"/>
<path d="M17.6 18.2598H17.5894V20.2892H17.6V18.2598Z" fill="#231F20"/>
<path d="M17.6108 18.2598H17.6001V20.2892H17.6108V18.2598Z" fill="#231F20"/>
<path d="M17.6215 18.2598H17.6108V20.2892H17.6215V18.2598Z" fill="#231F20"/>
<path d="M17.643 18.2598H17.6323V20.2892H17.643V18.2598Z" fill="#231F20"/>
<path d="M17.6533 18.2598H17.6426V20.2892H17.6533V18.2598Z" fill="#231F20"/>
<path d="M17.6747 18.2598H17.6641V20.2892H17.6747V18.2598Z" fill="#231F20"/>
<path d="M17.6855 18.2598H17.6748V20.2892H17.6855V18.2598Z" fill="#231F20"/>
<path d="M17.707 18.2598H17.6963V20.2892H17.707V18.2598Z" fill="#231F20"/>
<path d="M17.7177 18.2598H17.707V20.2892H17.7177V18.2598Z" fill="#231F20"/>
<path d="M17.7392 18.2598H17.7285V20.2892H17.7392V18.2598Z" fill="#231F20"/>
<path d="M17.7495 18.2598H17.7388V20.2892H17.7495V18.2598Z" fill="#231F20"/>
<path d="M17.7709 18.2598H17.7603V20.2892H17.7709V18.2598Z" fill="#231F20"/>
<path d="M17.7817 18.2598H17.771V20.2892H17.7817V18.2598Z" fill="#231F20"/>
<path d="M17.8032 18.2598H17.7925V20.2892H17.8032V18.2598Z" fill="#231F20"/>
<path d="M17.8139 18.2598H17.8032V20.2892H17.8139V18.2598Z" fill="#231F20"/>
<path d="M17.8247 18.2598H17.814V20.2892H17.8247V18.2598Z" fill="#231F20"/>
<path d="M17.8456 18.2598H17.835V20.2892H17.8456V18.2598Z" fill="#231F20"/>
<path d="M17.8564 18.2598H17.8457V20.2892H17.8564V18.2598Z" fill="#231F20"/>
<path d="M17.8779 18.2598H17.8672V20.2892H17.8779V18.2598Z" fill="#231F20"/>
<path d="M17.8886 18.2598H17.8779V20.2892H17.8886V18.2598Z" fill="#231F20"/>
<path d="M17.9101 18.2598H17.8994V20.2892H17.9101V18.2598Z" fill="#231F20"/>
<path d="M17.9208 18.2598H17.9102V20.2892H17.9208V18.2598Z" fill="#231F20"/>
<path d="M17.9418 18.2598H17.9312V20.2892H17.9418V18.2598Z" fill="#231F20"/>
<path d="M17.9526 18.2598H17.9419V20.2892H17.9526V18.2598Z" fill="#231F20"/>
<path d="M17.9741 18.2598H17.9634V20.2892H17.9741V18.2598Z" fill="#231F20"/>
<path d="M17.9848 18.2598H17.9741V20.2892H17.9848V18.2598Z" fill="#231F20"/>
<path d="M18.0063 18.2598H17.9956V20.2892H18.0063V18.2598Z" fill="#231F20"/>
<path d="M18.017 18.2598H18.0063V20.2892H18.017V18.2598Z" fill="#231F20"/>
<path d="M18.0273 18.2598H18.0166V20.2892H18.0273V18.2598Z" fill="#231F20"/>
<path d="M18.0488 18.2598H18.0381V20.2892H18.0488V18.2598Z" fill="#231F20"/>
<path d="M18.0595 18.2598H18.0488V20.2892H18.0595V18.2598Z" fill="#231F20"/>
<path d="M18.081 18.2598H18.0703V20.2892H18.081V18.2598Z" fill="#231F20"/>
<path d="M18.0917 18.2598H18.0811V20.2892H18.0917V18.2598Z" fill="#231F20"/>
<path d="M18.1127 18.2598H18.1021V20.2892H18.1127V18.2598Z" fill="#231F20"/>
<path d="M18.1235 18.2598H18.1128V20.2892H18.1235V18.2598Z" fill="#231F20"/>
<path d="M18.145 18.2598H18.1343V20.2892H18.145V18.2598Z" fill="#231F20"/>
<path d="M18.1557 18.2598H18.145V20.2892H18.1557V18.2598Z" fill="#231F20"/>
<path d="M18.1772 18.2598H18.1665V20.2892H18.1772V18.2598Z" fill="#231F20"/>
<path d="M18.1879 18.2598H18.1772V20.2892H18.1879V18.2598Z" fill="#231F20"/>
<path d="M18.1987 18.2598H18.188V20.2892H18.1987V18.2598Z" fill="#231F20"/>
<path d="M18.2197 18.2598H18.209V20.2892H18.2197V18.2598Z" fill="#231F20"/>
<path d="M18.2304 18.2598H18.2197V20.2892H18.2304V18.2598Z" fill="#231F20"/>
<path d="M18.2519 18.2598H18.2412V20.2892H18.2519V18.2598Z" fill="#231F20"/>
<path d="M18.2626 18.2598H18.252V20.2892H18.2626V18.2598Z" fill="#231F20"/>
<path d="M18.2841 18.2598H18.2734V20.2892H18.2841V18.2598Z" fill="#231F20"/>
<path d="M18.2949 18.2598H18.2842V20.2892H18.2949V18.2598Z" fill="#231F20"/>
<path d="M18.3159 18.2598H18.3052V20.2892H18.3159V18.2598Z" fill="#231F20"/>
<path d="M18.3266 18.2598H18.3159V20.2892H18.3266V18.2598Z" fill="#231F20"/>
<path d="M18.3481 18.2598H18.3374V20.2892H18.3481V18.2598Z" fill="#231F20"/>
<path d="M18.3588 18.2598H18.3481V20.2892H18.3588V18.2598Z" fill="#231F20"/>
<path d="M18.3803 18.2598H18.3696V20.2892H18.3803V18.2598Z" fill="#231F20"/>
<path d="M18.3906 18.2598H18.3799V20.2892H18.3906V18.2598Z" fill="#231F20"/>
<path d="M18.4013 18.2598H18.3906V20.2892H18.4013V18.2598Z" fill="#231F20"/>
<path d="M18.4228 18.2598H18.4121V20.2892H18.4228V18.2598Z" fill="#231F20"/>
<path d="M18.4335 18.2598H18.4229V20.2892H18.4335V18.2598Z" fill="#231F20"/>
<path d="M18.455 18.2598H18.4443V20.2892H18.455V18.2598Z" fill="#231F20"/>
<path d="M18.4658 18.2598H18.4551V20.2892H18.4658V18.2598Z" fill="#231F20"/>
<path d="M18.4868 18.2598H18.4761V20.2892H18.4868V18.2598Z" fill="#231F20"/>
<path d="M18.4975 18.2598H18.4868V20.2892H18.4975V18.2598Z" fill="#231F20"/>
<path d="M18.519 18.2598H18.5083V20.2892H18.519V18.2598Z" fill="#231F20"/>
<path d="M18.5297 18.2598H18.519V20.2892H18.5297V18.2598Z" fill="#231F20"/>
<path d="M18.5512 18.2598H18.5405V20.2892H18.5512V18.2598Z" fill="#231F20"/>
<path d="M18.562 18.2598H18.5513V20.2892H18.562V18.2598Z" fill="#231F20"/>
<path d="M18.583 18.2598H18.5723V20.2892H18.583V18.2598Z" fill="#231F20"/>
<path d="M18.5937 18.2598H18.583V20.2892H18.5937V18.2598Z" fill="#231F20"/>
<path d="M18.6044 18.2598H18.5938V20.2892H18.6044V18.2598Z" fill="#231F20"/>
<path d="M18.6259 18.2598H18.6152V20.2892H18.6259V18.2598Z" fill="#231F20"/>
</g>
<path d="M18.2199 22.3069L16.7559 20.8588C16.6597 20.7637 16.5101 20.7637 16.4139 20.9116C16.3178 20.9645 16.3178 21.1548 16.4139 21.2499L17.8245 22.698C17.9741 22.7931 18.113 22.7931 18.2092 22.698C18.3054 22.6028 18.3054 22.4126 18.2092 22.3174L18.2199 22.3069Z" fill="#231F20"/>
<mask id="mask3_227_2433" style="mask-type:luminance" maskUnits="userSpaceOnUse" x="16" y="20" width="3" height="3">
<path d="M18.2199 22.3069L16.7559 20.8588C16.6597 20.7637 16.5101 20.7637 16.4139 20.9116C16.3178 20.9645 16.3178 21.1548 16.4139 21.2499L17.8245 22.698C17.9741 22.7931 18.113 22.7931 18.2092 22.698C18.3054 22.6028 18.3054 22.4126 18.2092 22.3174L18.2199 22.3069Z" fill="white"/>
</mask>
<g mask="url(#mask3_227_2433)">
<path d="M16.3499 20.7637H16.3179V22.7931H16.3499V20.7637Z" fill="#231F20"/>
<path d="M16.3608 20.7637H16.3501V22.7931H16.3608V20.7637Z" fill="#231F20"/>
<path d="M16.3818 20.7637H16.3711V22.7931H16.3818V20.7637Z" fill="#231F20"/>
<path d="M16.3925 20.7637H16.3818V22.7931H16.3925V20.7637Z" fill="#231F20"/>
<path d="M16.414 20.7637H16.4033V22.7931H16.414V20.7637Z" fill="#231F20"/>
<path d="M16.4247 20.7637H16.4141V22.7931H16.4247V20.7637Z" fill="#231F20"/>
<path d="M16.4462 20.7637H16.4355V22.7931H16.4462V20.7637Z" fill="#231F20"/>
<path d="M16.457 20.7637H16.4463V22.7931H16.457V20.7637Z" fill="#231F20"/>
<path d="M16.478 20.7637H16.4673V22.7931H16.478V20.7637Z" fill="#231F20"/>
<path d="M16.4887 20.7637H16.478V22.7931H16.4887V20.7637Z" fill="#231F20"/>
<path d="M16.4995 20.7637H16.4888V22.7931H16.4995V20.7637Z" fill="#231F20"/>
<path d="M16.5209 20.7637H16.5103V22.7931H16.5209V20.7637Z" fill="#231F20"/>
<path d="M16.5317 20.7637H16.521V22.7931H16.5317V20.7637Z" fill="#231F20"/>
<path d="M16.5532 20.7637H16.5425V22.7931H16.5532V20.7637Z" fill="#231F20"/>
<path d="M16.5634 20.7637H16.5527V22.7931H16.5634V20.7637Z" fill="#231F20"/>
<path d="M16.5849 20.7637H16.5742V22.7931H16.5849V20.7637Z" fill="#231F20"/>
<path d="M16.5956 20.7637H16.585V22.7931H16.5956V20.7637Z" fill="#231F20"/>
<path d="M16.6171 20.7637H16.6064V22.7931H16.6171V20.7637Z" fill="#231F20"/>
<path d="M16.6279 20.7637H16.6172V22.7931H16.6279V20.7637Z" fill="#231F20"/>
<path d="M16.6494 20.7637H16.6387V22.7931H16.6494V20.7637Z" fill="#231F20"/>
<path d="M16.6596 20.7637H16.6489V22.7931H16.6596V20.7637Z" fill="#231F20"/>
<path d="M16.6811 20.7637H16.6704V22.7931H16.6811V20.7637Z" fill="#231F20"/>
<path d="M16.6918 20.7637H16.6812V22.7931H16.6918V20.7637Z" fill="#231F20"/>
<path d="M16.7026 20.7637H16.6919V22.7931H16.7026V20.7637Z" fill="#231F20"/>
<path d="M16.7241 20.7637H16.7134V22.7931H16.7241V20.7637Z" fill="#231F20"/>
<path d="M16.7348 20.7637H16.7241V22.7931H16.7348V20.7637Z" fill="#231F20"/>
<path d="M16.7558 20.7637H16.7451V22.7931H16.7558V20.7637Z" fill="#231F20"/>
<path d="M16.7665 20.7637H16.7559V22.7931H16.7665V20.7637Z" fill="#231F20"/>
<path d="M16.788 20.7637H16.7773V22.7931H16.788V20.7637Z" fill="#231F20"/>
<path d="M16.7988 20.7637H16.7881V22.7931H16.7988V20.7637Z" fill="#231F20"/>
<path d="M16.8203 20.7637H16.8096V22.7931H16.8203V20.7637Z" fill="#231F20"/>
<path d="M16.831 20.7637H16.8203V22.7931H16.831V20.7637Z" fill="#231F20"/>
<path d="M16.852 20.7637H16.8413V22.7931H16.852V20.7637Z" fill="#231F20"/>
<path d="M16.8627 20.7637H16.8521V22.7931H16.8627V20.7637Z" fill="#231F20"/>
<path d="M16.8842 20.7637H16.8735V22.7931H16.8842V20.7637Z" fill="#231F20"/>
<path d="M16.895 20.7637H16.8843V22.7931H16.895V20.7637Z" fill="#231F20"/>
<path d="M16.9057 20.7637H16.895V22.7931H16.9057V20.7637Z" fill="#231F20"/>
<path d="M16.9272 20.7637H16.9165V22.7931H16.9272V20.7637Z" fill="#231F20"/>
<path d="M16.9374 20.7637H16.9268V22.7931H16.9374V20.7637Z" fill="#231F20"/>
<path d="M16.9589 20.7637H16.9482V22.7931H16.9589V20.7637Z" fill="#231F20"/>
<path d="M16.9697 20.7637H16.959V22.7931H16.9697V20.7637Z" fill="#231F20"/>
<path d="M16.9912 20.7637H16.9805V22.7931H16.9912V20.7637Z" fill="#231F20"/>
<path d="M17.0019 20.7637H16.9912V22.7931H17.0019V20.7637Z" fill="#231F20"/>
<path d="M17.0234 20.7637H17.0127V22.7931H17.0234V20.7637Z" fill="#231F20"/>
<path d="M17.0336 20.7637H17.0229V22.7931H17.0336V20.7637Z" fill="#231F20"/>
<path d="M17.0551 20.7637H17.0444V22.7931H17.0551V20.7637Z" fill="#231F20"/>
<path d="M17.0659 20.7637H17.0552V22.7931H17.0659V20.7637Z" fill="#231F20"/>
<path d="M17.0873 20.7637H17.0767V22.7931H17.0873V20.7637Z" fill="#231F20"/>
<path d="M17.0981 20.7637H17.0874V22.7931H17.0981V20.7637Z" fill="#231F20"/>
<path d="M17.1088 20.7637H17.0981V22.7931H17.1088V20.7637Z" fill="#231F20"/>
<path d="M17.1298 20.7637H17.1191V22.7931H17.1298V20.7637Z" fill="#231F20"/>
<path d="M17.1406 20.7637H17.1299V22.7931H17.1406V20.7637Z" fill="#231F20"/>
<path d="M17.1621 20.7637H17.1514V22.7931H17.1621V20.7637Z" fill="#231F20"/>
<path d="M17.1728 20.7637H17.1621V22.7931H17.1728V20.7637Z" fill="#231F20"/>
<path d="M17.1943 20.7637H17.1836V22.7931H17.1943V20.7637Z" fill="#231F20"/>
<path d="M17.205 20.7637H17.1943V22.7931H17.205V20.7637Z" fill="#231F20"/>
<path d="M17.226 20.7637H17.2153V22.7931H17.226V20.7637Z" fill="#231F20"/>
<path d="M17.2368 20.7637H17.2261V22.7931H17.2368V20.7637Z" fill="#231F20"/>
<path d="M17.2582 20.7637H17.2476V22.7931H17.2582V20.7637Z" fill="#231F20"/>
<path d="M17.269 20.7637H17.2583V22.7931H17.269V20.7637Z" fill="#231F20"/>
<path d="M17.2905 20.7637H17.2798V22.7931H17.2905V20.7637Z" fill="#231F20"/>
<path d="M17.3012 20.7637H17.2905V22.7931H17.3012V20.7637Z" fill="#231F20"/>
<path d="M17.3115 20.7637H17.3008V22.7931H17.3115V20.7637Z" fill="#231F20"/>
<path d="M17.333 20.7637H17.3223V22.7931H17.333V20.7637Z" fill="#231F20"/>
<path d="M17.3437 20.7637H17.333V22.7931H17.3437V20.7637Z" fill="#231F20"/>
<path d="M17.3652 20.7637H17.3545V22.7931H17.3652V20.7637Z" fill="#231F20"/>
<path d="M17.3759 20.7637H17.3652V22.7931H17.3759V20.7637Z" fill="#231F20"/>
<path d="M17.3974 20.7637H17.3867V22.7931H17.3974V20.7637Z" fill="#231F20"/>
<path d="M17.4077 20.7637H17.397V22.7931H17.4077V20.7637Z" fill="#231F20"/>
<path d="M17.4291 20.7637H17.4185V22.7931H17.4291V20.7637Z" fill="#231F20"/>
<path d="M17.4399 20.7637H17.4292V22.7931H17.4399V20.7637Z" fill="#231F20"/>
<path d="M17.4614 20.7637H17.4507V22.7931H17.4614V20.7637Z" fill="#231F20"/>
<path d="M17.4721 20.7637H17.4614V22.7931H17.4721V20.7637Z" fill="#231F20"/>
<path d="M17.4829 20.7637H17.4722V22.7931H17.4829V20.7637Z" fill="#231F20"/>
<path d="M17.5038 20.7637H17.4932V22.7931H17.5038V20.7637Z" fill="#231F20"/>
<path d="M17.5146 20.7637H17.5039V22.7931H17.5146V20.7637Z" fill="#231F20"/>
<path d="M17.5361 20.7637H17.5254V22.7931H17.5361V20.7637Z" fill="#231F20"/>
<path d="M17.5468 20.7637H17.5361V22.7931H17.5468V20.7637Z" fill="#231F20"/>
<path d="M17.5683 20.7637H17.5576V22.7931H17.5683V20.7637Z" fill="#231F20"/>
<path d="M17.579 20.7637H17.5684V22.7931H17.579V20.7637Z" fill="#231F20"/>
<path d="M17.6 20.7637H17.5894V22.7931H17.6V20.7637Z" fill="#231F20"/>
<path d="M17.6108 20.7637H17.6001V22.7931H17.6108V20.7637Z" fill="#231F20"/>
<path d="M17.6323 20.7637H17.6216V22.7931H17.6323V20.7637Z" fill="#231F20"/>
<path d="M17.643 20.7637H17.6323V22.7931H17.643V20.7637Z" fill="#231F20"/>
<path d="M17.6645 20.7637H17.6538V22.7931H17.6645V20.7637Z" fill="#231F20"/>
<path d="M17.6752 20.7637H17.6646V22.7931H17.6752V20.7637Z" fill="#231F20"/>
<path d="M17.6855 20.7637H17.6748V22.7931H17.6855V20.7637Z" fill="#231F20"/>
<path d="M17.707 20.7637H17.6963V22.7931H17.707V20.7637Z" fill="#231F20"/>
<path d="M17.7177 20.7637H17.707V22.7931H17.7177V20.7637Z" fill="#231F20"/>
<path d="M17.7392 20.7637H17.7285V22.7931H17.7392V20.7637Z" fill="#231F20"/>
<path d="M17.7499 20.7637H17.7393V22.7931H17.7499V20.7637Z" fill="#231F20"/>
<path d="M17.7709 20.7637H17.7603V22.7931H17.7709V20.7637Z" fill="#231F20"/>
<path d="M17.7817 20.7637H17.771V22.7931H17.7817V20.7637Z" fill="#231F20"/>
<path d="M17.8032 20.7637H17.7925V22.7931H17.8032V20.7637Z" fill="#231F20"/>
<path d="M17.8139 20.7637H17.8032V22.7931H17.8139V20.7637Z" fill="#231F20"/>
<path d="M17.8354 20.7637H17.8247V22.7931H17.8354V20.7637Z" fill="#231F20"/>
<path d="M17.8461 20.7637H17.8354V22.7931H17.8461V20.7637Z" fill="#231F20"/>
<path d="M17.8671 20.7637H17.8564V22.7931H17.8671V20.7637Z" fill="#231F20"/>
<path d="M17.8779 20.7637H17.8672V22.7931H17.8779V20.7637Z" fill="#231F20"/>
<path d="M17.8886 20.7637H17.8779V22.7931H17.8886V20.7637Z" fill="#231F20"/>
<path d="M17.9101 20.7637H17.8994V22.7931H17.9101V20.7637Z" fill="#231F20"/>
<path d="M17.9208 20.7637H17.9102V22.7931H17.9208V20.7637Z" fill="#231F20"/>
<path d="M17.9423 20.7637H17.9316V22.7931H17.9423V20.7637Z" fill="#231F20"/>
<path d="M17.9531 20.7637H17.9424V22.7931H17.9531V20.7637Z" fill="#231F20"/>
<path d="M17.9741 20.7637H17.9634V22.7931H17.9741V20.7637Z" fill="#231F20"/>
<path d="M17.9848 20.7637H17.9741V22.7931H17.9848V20.7637Z" fill="#231F20"/>
<path d="M18.0063 20.7637H17.9956V22.7931H18.0063V20.7637Z" fill="#231F20"/>
<path d="M18.017 20.7637H18.0063V22.7931H18.017V20.7637Z" fill="#231F20"/>
<path d="M18.0385 20.7637H18.0278V22.7931H18.0385V20.7637Z" fill="#231F20"/>
<path d="M18.0488 20.7637H18.0381V22.7931H18.0488V20.7637Z" fill="#231F20"/>
<path d="M18.0703 20.7637H18.0596V22.7931H18.0703V20.7637Z" fill="#231F20"/>
<path d="M18.081 20.7637H18.0703V22.7931H18.081V20.7637Z" fill="#231F20"/>
<path d="M18.0917 20.7637H18.0811V22.7931H18.0917V20.7637Z" fill="#231F20"/>
<path d="M18.1132 20.7637H18.1025V22.7931H18.1132V20.7637Z" fill="#231F20"/>
<path d="M18.124 20.7637H18.1133V22.7931H18.124V20.7637Z" fill="#231F20"/>
<path d="M18.145 20.7637H18.1343V22.7931H18.145V20.7637Z" fill="#231F20"/>
<path d="M18.1557 20.7637H18.145V22.7931H18.1557V20.7637Z" fill="#231F20"/>
<path d="M18.1772 20.7637H18.1665V22.7931H18.1772V20.7637Z" fill="#231F20"/>
<path d="M18.1879 20.7637H18.1772V22.7931H18.1879V20.7637Z" fill="#231F20"/>
<path d="M18.2094 20.7637H18.1987V22.7931H18.2094V20.7637Z" fill="#231F20"/>
<path d="M18.2202 20.7637H18.2095V22.7931H18.2202V20.7637Z" fill="#231F20"/>
<path d="M18.2412 20.7637H18.2305V22.7931H18.2412V20.7637Z" fill="#231F20"/>
<path d="M18.2519 20.7637H18.2412V22.7931H18.2519V20.7637Z" fill="#231F20"/>
<path d="M18.2734 20.7637H18.2627V22.7931H18.2734V20.7637Z" fill="#231F20"/>
<path d="M18.2841 20.7637H18.2734V22.7931H18.2841V20.7637Z" fill="#231F20"/>
</g>
<path d="M67.0955 31.8064C67.2237 32.1129 67.0634 32.3349 66.7215 32.3349H65.2147C64.9689 32.3349 64.7873 32.2397 64.6804 31.9649L63.0027 27.5361H52.4449L50.7672 31.9649C50.6603 32.2397 50.4893 32.3349 50.2329 32.3349H48.7261C48.3842 32.3349 48.2239 32.1129 48.3521 31.8064L56.3773 11.0153C56.4735 10.7722 56.6872 10.6453 56.9437 10.6453H58.5146C58.7603 10.6453 58.9847 10.7722 59.0809 11.0153L67.1062 31.8064H67.0955ZM53.2677 25.3587H62.2013L57.7345 13.5838L53.2677 25.3587ZM92.2826 30.1046C92.5604 30.1046 92.7528 30.2949 92.7528 30.5697V31.8698C92.7528 32.1446 92.5604 32.3349 92.2826 32.3349H78.9677C78.6899 32.3349 78.4975 32.1446 78.4975 31.8698V11.1104C78.4975 10.8356 78.6899 10.6453 78.9677 10.6453H92.2505C92.5283 10.6453 92.7207 10.8356 92.7207 11.1104V12.4105C92.7207 12.6853 92.5283 12.8756 92.2505 12.8756H80.9446V19.82H91.4063C91.6841 19.82 91.8765 20.0103 91.8765 20.2851V21.5852C91.8765 21.86 91.6841 22.0503 91.4063 22.0503H80.9446V30.1046H92.2826ZM120.323 10.6453C120.601 10.6453 120.793 10.8356 120.793 11.1104V12.4105C120.793 12.6853 120.601 12.8756 120.323 12.8756H113.559V31.8698C113.559 32.1446 113.366 32.3349 113.088 32.3349H111.582C111.304 32.3349 111.111 32.1446 111.111 31.8698V12.8756H104.347C104.069 12.8756 103.877 12.6853 103.877 12.4105V11.1104C103.877 10.8356 104.069 10.6453 104.347 10.6453H120.323ZM146.258 30.1046C146.536 30.1046 146.728 30.2949 146.728 30.5697V31.8698C146.728 32.1446 146.536 32.3349 146.258 32.3349H132.943C132.665 32.3349 132.473 32.1446 132.473 31.8698V11.1104C132.473 10.8356 132.665 10.6453 132.943 10.6453H146.226C146.504 10.6453 146.696 10.8356 146.696 11.1104V12.4105C146.696 12.6853 146.504 12.8756 146.226 12.8756H134.92V19.82H145.382C145.66 19.82 145.852 20.0103 145.852 20.2851V21.5852C145.852 21.86 145.66 22.0503 145.382 22.0503H134.92V30.1046H146.258ZM170.141 23.7521L174.437 31.7958C174.608 32.1235 174.448 32.3349 174.095 32.3349H172.482C172.236 32.3349 172.054 32.2292 171.937 31.9966L167.737 24.0375H161.475V31.8803C161.475 32.1552 161.283 32.3454 161.005 32.3454H159.498C159.22 32.3454 159.028 32.1552 159.028 31.8803V11.121C159.028 10.8462 159.22 10.6559 159.498 10.6559H167.288C172.802 10.6559 174.929 13.0764 174.929 17.3467C174.929 20.7819 173.55 23.0122 170.152 23.7626L170.141 23.7521ZM161.464 12.8756V21.7966H167.427C170.43 21.7966 172.535 20.9616 172.535 17.3361C172.535 13.7106 170.441 12.8756 167.427 12.8756H161.464ZM202.371 10.6453C202.648 10.6453 202.841 10.8356 202.841 11.1104V31.8698C202.841 32.1129 202.702 32.2926 202.467 32.3349H200.372C200.126 32.3349 199.934 32.2397 199.806 32.0283L189.12 14.1228V31.8803C189.12 32.1552 188.927 32.3454 188.65 32.3454H187.143C186.865 32.3454 186.673 32.1552 186.673 31.8803V11.121C186.673 10.8779 186.812 10.6982 187.047 10.6559H189.141C189.387 10.6559 189.579 10.751 189.708 10.9624L200.394 28.8679V11.1104C200.394 10.8356 200.586 10.6453 200.864 10.6453H202.371ZM232.206 10.6453C232.484 10.6453 232.676 10.8356 232.676 11.1104V23.5618C232.676 29.6924 229.438 32.7788 223.903 32.7788C218.368 32.7788 215.13 29.6924 215.13 23.5618V11.1104C215.13 10.8356 215.322 10.6453 215.6 10.6453H217.107C217.384 10.6453 217.577 10.8356 217.577 11.1104V23.5618C217.577 28.3288 220.099 30.5168 223.903 30.5168C227.707 30.5168 230.229 28.3288 230.229 23.5618V11.1104C230.229 10.8356 230.421 10.6453 230.699 10.6453H232.206ZM266.53 10.6453C266.808 10.6453 267 10.8356 267 11.1104V31.8698C267 32.1446 266.808 32.3349 266.53 32.3349H265.023C264.745 32.3349 264.553 32.1446 264.553 31.8698V15.0107L257.254 31.986C257.158 32.2292 256.976 32.3243 256.72 32.3243H255.181C254.935 32.3243 254.743 32.2292 254.647 31.986L247.412 15.1587V31.8592C247.412 32.134 247.22 32.3243 246.942 32.3243H245.435C245.158 32.3243 244.965 32.134 244.965 31.8592V11.0998C244.965 10.825 245.158 10.6348 245.435 10.6348H247.444C247.69 10.6348 247.915 10.7299 248.011 10.9413L255.972 29.629L263.901 10.9413C263.997 10.7193 264.211 10.6348 264.467 10.6348H266.53V10.6453Z" fill="#231F20"/>
</svg>
