<svg width="94" height="106" viewBox="0 0 94 106" fill="none" xmlns="http://www.w3.org/2000/svg">
<path d="M54.699 40.5728C55.7246 38.9265 56.2659 37.1605 56.5223 35.2448C60.6817 31.4135 66.2655 29.7972 71.7355 30.3359C73.1599 38.9265 81.9915 38.8068 88.3731 37.849C89.5411 37.6993 90.1964 36.6217 89.7975 35.5142C88.6295 32.521 87.0626 29.6475 85.2393 27.0434C88.7434 24.7087 91.3359 16.9263 91.6208 15.9984C92.0197 15.0405 91.222 13.8133 90.1964 13.8133C89.2847 13.6636 81.4787 13.0051 78.117 15.3099C74.7268 17.6446 73.0459 21.446 74.1 24.5889C73.1884 25.2774 72.6756 25.8162 72.2767 26.9237C69.5418 26.5046 66.6929 26.774 63.9579 27.4624C64.3568 25.5468 64.7271 22.9427 64.9835 20.4882C73.8151 22.4039 75.382 9.98195 74.8692 3.5465C74.7268 2.46894 73.7012 1.63083 72.6471 2.04989C69.2569 3.12745 66.0091 4.92339 63.3027 7.10845C60.8241 4.654 57.9752 2.46894 54.9839 0.972322C54.0722 0.43354 52.9042 0.972323 52.6478 2.04989C51.2233 8.06629 51.7361 24.4393 61.7358 19.9494C61.4794 22.9427 60.9666 25.8162 60.3113 28.6897C57.9752 29.7672 55.7531 31.1441 53.9298 33.0598C48.0895 37.1605 45.2121 37.0109 39.3719 33.0598C37.5486 31.2938 35.3549 29.7972 32.9903 28.6897C32.3351 25.8162 31.8223 22.9427 31.5659 19.9494C41.1952 24.3195 42.2208 9.02412 40.6539 2.04989C40.3975 0.972323 39.2294 0.403608 38.3178 0.972322C35.2125 2.46894 32.4775 4.654 29.999 7.10845C27.1501 4.92339 24.0163 3.15738 20.5121 2.04989C19.4865 1.63083 18.4324 2.46894 18.4324 3.5465C17.9196 9.95202 19.458 22.5236 28.1757 20.4882C28.5745 22.9427 28.8309 25.5468 29.2013 27.4624C26.6088 26.774 23.8738 26.5046 21.1389 26.774C20.74 25.8162 20.1133 25.2774 19.3156 24.5889C20.3412 21.446 18.6603 17.6147 15.2986 15.3099C11.9084 12.9752 4.13091 13.6636 3.21926 13.8133C2.19366 13.8133 1.39596 15.0405 1.79481 15.9984C2.96286 19.5603 5.18501 24.8583 8.17636 27.0434C6.35306 29.6475 4.78616 32.4911 3.61811 35.5142C3.21926 36.5918 3.87451 37.6993 4.92861 37.849C11.4241 38.8068 20.3982 38.9265 21.6802 30.3359C27.0076 29.7972 32.5915 31.4135 36.6369 35.2448C36.8933 37.1605 37.5486 38.9265 38.4602 40.4231C27.2925 37.0108 16.6376 41.381 7.91996 49.0137C7.26471 49.5525 6.75191 50.5103 6.75191 51.4682C3.36171 51.4682 0.113956 52.2763 0 56.6465V100.348C0.142445 103.221 2.3361 105.526 5.07105 105.526H44.1865C45.0982 105.526 45.8674 105.257 46.6651 104.838C47.4343 105.257 48.3459 105.526 49.2576 105.526H88.3731C91.108 105.526 93.3017 103.191 93.3017 100.348V56.6465C93.3017 52.2763 89.9115 51.4682 86.6637 51.4682C86.6637 51.4682 74.5844 35.7537 54.699 40.5429V40.5728ZM77.8321 33.868C76.0088 32.6407 73.4163 28.9591 76.0088 27.4624C81.0799 31.1441 81.5927 24.4692 85.7521 34.7061C82.9032 34.8557 79.3705 34.8557 77.8321 33.8979V33.868ZM79.7694 18.1834C82.6183 16.9562 84.698 16.9562 87.6893 17.1058C86.5213 19.8297 84.8404 23.1222 83.3875 24.0801C78.2025 27.9114 74.157 22.0447 79.7409 18.2133L79.7694 18.1834ZM71.593 6.15062C71.593 9.29351 69.9121 20.6379 64.8411 16.6569C65.6103 14.7412 65.4963 12.2867 64.9835 10.3711C66.294 8.60507 69.6557 6.95879 71.6215 6.15062H71.593ZM55.3258 5.19278C58.716 7.22818 62.7329 9.83229 61.9637 14.6215C61.3085 19.261 53.3885 17.6147 55.3258 5.19278ZM37.805 5.19278C40.3975 21.446 28.0617 18.4229 31.8223 10.5207C32.5915 8.87446 35.4689 6.6894 37.805 5.19278ZM21.5377 6.15062C24.5291 7.37784 25.9535 8.06628 28.2896 10.3711C27.6344 12.2867 27.6344 14.7412 28.4321 16.6569C23.361 20.6079 21.5377 9.29351 21.5377 6.15062ZM5.69781 17.0759C8.54672 16.9263 12.0794 17.2256 13.5038 18.1535C19.0877 21.9848 15.4411 27.8516 9.99966 24.0202C8.43276 23.0624 6.89435 19.7998 5.69781 17.046V17.0759ZM15.4411 33.868C14.0166 34.8258 10.5125 34.8258 7.63507 34.6761C8.54672 32.3414 9.85721 30.306 11.3956 28.3903C13.4753 28.9291 15.555 28.6597 17.2359 27.4325C19.8284 28.9291 17.4923 32.8802 15.4126 33.838L15.4411 33.868ZM46.6366 68.5595C37.805 62.154 37.9189 55.5988 46.6366 49.1634C55.3542 55.5689 55.3542 62.1241 46.6366 68.5595ZM41.0527 37.9687C44.8133 40.1537 48.3174 40.1537 52.2204 37.9687C50.796 40.6925 49.1151 42.7579 46.6366 44.3742C43.7877 42.4585 42.7336 40.9619 41.0527 37.9687ZM43.7592 70.7446C41.1667 73.0793 36.6084 77.8385 36.6084 82.8971C36.6084 85.2318 39.9986 85.2318 39.9986 82.8971C39.9986 79.2154 44.158 74.965 46.6366 72.78C49.1151 74.965 53.2745 79.1855 53.2745 82.8971C53.2745 85.2318 56.6647 85.2318 56.6647 82.8971C56.6647 77.8385 52.1065 73.0793 49.4 70.7446C58.8869 63.1118 58.8869 54.641 49.4 46.9783C58.8869 38.1183 74.8692 44.2545 83.3305 51.7675V95.0496C72.0203 86.04 59.0293 85.8904 46.6936 94.7803C34.3578 85.9203 21.3383 86.04 10.0566 95.0496V51.6178C18.6318 44.2545 34.5003 38.0884 43.9871 46.9783C34.3578 54.7607 34.1014 62.8125 43.8447 70.7446H43.7592ZM77.2908 95.0496H52.5908C60.2544 90.5299 69.6273 90.5299 77.2908 95.0496ZM40.7963 95.0496H16.0963C23.7599 90.5299 33.1328 90.5299 40.7963 95.0496ZM90.0254 100.378C90.0254 101.335 89.2562 102.144 88.3446 102.144H49.2291C48.2035 102.144 48.061 101.335 47.2918 100.916C46.779 100.767 46.2662 100.767 45.7249 101.186C45.2121 101.605 44.9557 102.144 44.158 102.144H5.04256C4.13091 102.144 3.36171 101.335 3.36171 100.378V56.6764C3.36171 54.641 5.44141 54.9104 6.75191 54.9104V95.0496C6.75191 97.085 8.17636 98.6116 9.99966 98.6116H83.302C85.2393 98.6116 86.6922 97.115 86.6922 95.0496V54.9104C88.0027 54.9104 90.0824 54.641 90.0824 56.6764V100.378H90.0254Z" fill="#231F20"/>
<mask id="mask0_284_2041" style="mask-type:luminance" maskUnits="userSpaceOnUse" x="0" y="0" width="94" height="106">
<path d="M54.699 40.5728C55.7246 38.9265 56.2659 37.1605 56.5223 35.2448C60.6817 31.4135 66.2655 29.7972 71.7355 30.3359C73.1599 38.9265 81.9915 38.8068 88.3731 37.849C89.5411 37.6993 90.1964 36.6217 89.7975 35.5142C88.6295 32.521 87.0626 29.6475 85.2393 27.0434C88.7434 24.7087 91.3359 16.9263 91.6208 15.9984C92.0197 15.0405 91.222 13.8133 90.1964 13.8133C89.2847 13.6636 81.4787 13.0051 78.117 15.3099C74.7268 17.6446 73.0459 21.446 74.1 24.5889C73.1884 25.2774 72.6756 25.8162 72.2767 26.9237C69.5418 26.5046 66.6929 26.774 63.9579 27.4624C64.3568 25.5468 64.7271 22.9427 64.9835 20.4882C73.8151 22.4039 75.382 9.98195 74.8692 3.5465C74.7268 2.46894 73.7012 1.63083 72.6471 2.04989C69.2569 3.12745 66.0091 4.92339 63.3027 7.10845C60.8241 4.654 57.9752 2.46894 54.9839 0.972322C54.0722 0.43354 52.9042 0.972323 52.6478 2.04989C51.2233 8.06629 51.7361 24.4393 61.7358 19.9494C61.4794 22.9427 60.9666 25.8162 60.3113 28.6897C57.9752 29.7672 55.7531 31.1441 53.9298 33.0598C48.0895 37.1605 45.2121 37.0109 39.3719 33.0598C37.5486 31.2938 35.3549 29.7972 32.9903 28.6897C32.3351 25.8162 31.8223 22.9427 31.5659 19.9494C41.1952 24.3195 42.2208 9.02412 40.6539 2.04989C40.3975 0.972323 39.2294 0.403608 38.3178 0.972322C35.2125 2.46894 32.4775 4.654 29.999 7.10845C27.1501 4.92339 24.0163 3.15738 20.5121 2.04989C19.4865 1.63083 18.4324 2.46894 18.4324 3.5465C17.9196 9.95202 19.458 22.5236 28.1757 20.4882C28.5745 22.9427 28.8309 25.5468 29.2013 27.4624C26.6088 26.774 23.8738 26.5046 21.1389 26.774C20.74 25.8162 20.1133 25.2774 19.3156 24.5889C20.3412 21.446 18.6603 17.6147 15.2986 15.3099C11.9084 12.9752 4.13091 13.6636 3.21926 13.8133C2.19366 13.8133 1.39596 15.0405 1.79481 15.9984C2.96286 19.5603 5.18501 24.8583 8.17636 27.0434C6.35306 29.6475 4.78616 32.4911 3.61811 35.5142C3.21926 36.5918 3.87451 37.6993 4.92861 37.849C11.4241 38.8068 20.3982 38.9265 21.6802 30.3359C27.0076 29.7972 32.5915 31.4135 36.6369 35.2448C36.8933 37.1605 37.5486 38.9265 38.4602 40.4231C27.2925 37.0108 16.6376 41.381 7.91996 49.0137C7.26471 49.5525 6.75191 50.5103 6.75191 51.4682C3.36171 51.4682 0.113956 52.2763 0 56.6465V100.348C0.142445 103.221 2.3361 105.526 5.07105 105.526H44.1865C45.0982 105.526 45.8674 105.257 46.6651 104.838C47.4343 105.257 48.3459 105.526 49.2576 105.526H88.3731C91.108 105.526 93.3017 103.191 93.3017 100.348V56.6465C93.3017 52.2763 89.9115 51.4682 86.6637 51.4682C86.6637 51.4682 74.5844 35.7537 54.699 40.5429V40.5728ZM77.8321 33.868C76.0088 32.6407 73.4163 28.9591 76.0088 27.4624C81.0799 31.1441 81.5927 24.4692 85.7521 34.7061C82.9032 34.8557 79.3705 34.8557 77.8321 33.8979V33.868ZM79.7694 18.1834C82.6183 16.9562 84.698 16.9562 87.6893 17.1058C86.5213 19.8297 84.8404 23.1222 83.3875 24.0801C78.2025 27.9114 74.157 22.0447 79.7409 18.2133L79.7694 18.1834ZM71.593 6.15062C71.593 9.29351 69.9121 20.6379 64.8411 16.6569C65.6103 14.7412 65.4963 12.2867 64.9835 10.3711C66.294 8.60507 69.6557 6.95879 71.6215 6.15062H71.593ZM55.3258 5.19278C58.716 7.22818 62.7329 9.83229 61.9637 14.6215C61.3085 19.261 53.3885 17.6147 55.3258 5.19278ZM37.805 5.19278C40.3975 21.446 28.0617 18.4229 31.8223 10.5207C32.5915 8.87446 35.4689 6.6894 37.805 5.19278ZM21.5377 6.15062C24.5291 7.37784 25.9535 8.06628 28.2896 10.3711C27.6344 12.2867 27.6344 14.7412 28.4321 16.6569C23.361 20.6079 21.5377 9.29351 21.5377 6.15062ZM5.69781 17.0759C8.54672 16.9263 12.0794 17.2256 13.5038 18.1535C19.0877 21.9848 15.4411 27.8516 9.99966 24.0202C8.43276 23.0624 6.89435 19.7998 5.69781 17.046V17.0759ZM15.4411 33.868C14.0166 34.8258 10.5125 34.8258 7.63507 34.6761C8.54672 32.3414 9.85721 30.306 11.3956 28.3903C13.4753 28.9291 15.555 28.6597 17.2359 27.4325C19.8284 28.9291 17.4923 32.8802 15.4126 33.838L15.4411 33.868ZM46.6366 68.5595C37.805 62.154 37.9189 55.5988 46.6366 49.1634C55.3542 55.5689 55.3542 62.1241 46.6366 68.5595ZM41.0527 37.9687C44.8133 40.1537 48.3174 40.1537 52.2204 37.9687C50.796 40.6925 49.1151 42.7579 46.6366 44.3742C43.7877 42.4585 42.7336 40.9619 41.0527 37.9687ZM43.7592 70.7446C41.1667 73.0793 36.6084 77.8385 36.6084 82.8971C36.6084 85.2318 39.9986 85.2318 39.9986 82.8971C39.9986 79.2154 44.158 74.965 46.6366 72.78C49.1151 74.965 53.2745 79.1855 53.2745 82.8971C53.2745 85.2318 56.6647 85.2318 56.6647 82.8971C56.6647 77.8385 52.1065 73.0793 49.4 70.7446C58.8869 63.1118 58.8869 54.641 49.4 46.9783C58.8869 38.1183 74.8692 44.2545 83.3305 51.7675V95.0496C72.0203 86.04 59.0293 85.8904 46.6936 94.7803C34.3578 85.9203 21.3383 86.04 10.0566 95.0496V51.6178C18.6318 44.2545 34.5003 38.0884 43.9871 46.9783C34.3578 54.7607 34.1014 62.8125 43.8447 70.7446H43.7592ZM77.2908 95.0496H52.5908C60.2544 90.5299 69.6273 90.5299 77.2908 95.0496ZM40.7963 95.0496H16.0963C23.7599 90.5299 33.1328 90.5299 40.7963 95.0496ZM90.0254 100.378C90.0254 101.335 89.2562 102.144 88.3446 102.144H49.2291C48.2035 102.144 48.061 101.335 47.2918 100.916C46.779 100.767 46.2662 100.767 45.7249 101.186C45.2121 101.605 44.9557 102.144 44.158 102.144H5.04256C4.13091 102.144 3.36171 101.335 3.36171 100.378V56.6764C3.36171 54.641 5.44141 54.9104 6.75191 54.9104V95.0496C6.75191 97.085 8.17636 98.6116 9.99966 98.6116H83.302C85.2393 98.6116 86.6922 97.115 86.6922 95.0496V54.9104C88.0027 54.9104 90.0824 54.641 90.0824 56.6764V100.378H90.0254Z" fill="white"/>
</mask>
<g mask="url(#mask0_284_2041)">
<path d="M0.712394 0.433594H-0.0283203V105.556H0.712394V0.433594Z" fill="#231F20"/>
<path d="M1.45312 0.433594H0.712402V105.556H1.45312V0.433594Z" fill="#231F20"/>
<path d="M2.16552 0.433594H1.4248V105.556H2.16552V0.433594Z" fill="#231F20"/>
<path d="M2.90624 0.433594H2.16553V105.556H2.90624V0.433594Z" fill="#231F20"/>
<path d="M3.64697 0.433594H2.90625V105.556H3.64697V0.433594Z" fill="#231F20"/>
<path d="M4.35888 0.433594H3.61816V105.556H4.35888V0.433594Z" fill="#231F20"/>
<path d="M5.0996 0.433594H4.35889V105.556H5.0996V0.433594Z" fill="#231F20"/>
<path d="M5.812 0.433594H5.07129V105.556H5.812V0.433594Z" fill="#231F20"/>
<path d="M6.55273 0.433594H5.81201V105.556H6.55273V0.433594Z" fill="#231F20"/>
<path d="M7.26464 0.433594H6.52393V105.556H7.26464V0.433594Z" fill="#231F20"/>
<path d="M8.00536 0.433594H7.26465V105.556H8.00536V0.433594Z" fill="#231F20"/>
<path d="M8.74608 0.433594H8.00537V105.556H8.74608V0.433594Z" fill="#231F20"/>
<path d="M9.45849 0.433594H8.71777V105.556H9.45849V0.433594Z" fill="#231F20"/>
<path d="M10.1992 0.433594H9.4585V105.556H10.1992V0.433594Z" fill="#231F20"/>
<path d="M10.9116 0.433594H10.1709V105.556H10.9116V0.433594Z" fill="#231F20"/>
<path d="M11.6523 0.433594H10.9116V105.556H11.6523V0.433594Z" fill="#231F20"/>
<path d="M12.3931 0.433594H11.6523V105.556H12.3931V0.433594Z" fill="#231F20"/>
<path d="M13.105 0.433594H12.3643V105.556H13.105V0.433594Z" fill="#231F20"/>
<path d="M13.8457 0.433594H13.105V105.556H13.8457V0.433594Z" fill="#231F20"/>
<path d="M14.5581 0.433594H13.8174V105.556H14.5581V0.433594Z" fill="#231F20"/>
<path d="M15.2988 0.433594H14.5581V105.556H15.2988V0.433594Z" fill="#231F20"/>
<path d="M16.0395 0.433594H15.2988V105.556H16.0395V0.433594Z" fill="#231F20"/>
<path d="M16.7519 0.433594H16.0112V105.556H16.7519V0.433594Z" fill="#231F20"/>
<path d="M17.4927 0.433594H16.752V105.556H17.4927V0.433594Z" fill="#231F20"/>
<path d="M18.2046 0.433594H17.4639V105.556H18.2046V0.433594Z" fill="#231F20"/>
<path d="M18.9453 0.433594H18.2046V105.556H18.9453V0.433594Z" fill="#231F20"/>
<path d="M19.6577 0.433594H18.917V105.556H19.6577V0.433594Z" fill="#231F20"/>
<path d="M20.3984 0.433594H19.6577V105.556H20.3984V0.433594Z" fill="#231F20"/>
<path d="M21.1392 0.433594H20.3984V105.556H21.1392V0.433594Z" fill="#231F20"/>
<path d="M21.8511 0.433594H21.1104V105.556H21.8511V0.433594Z" fill="#231F20"/>
<path d="M22.5918 0.433594H21.8511V105.556H22.5918V0.433594Z" fill="#231F20"/>
<path d="M23.3042 0.433594H22.5635V105.556H23.3042V0.433594Z" fill="#231F20"/>
<path d="M24.0449 0.433594H23.3042V105.556H24.0449V0.433594Z" fill="#231F20"/>
<path d="M24.7856 0.433594H24.0449V105.556H24.7856V0.433594Z" fill="#231F20"/>
<path d="M25.498 0.433594H24.7573V105.556H25.498V0.433594Z" fill="#231F20"/>
<path d="M26.2388 0.433594H25.498V105.556H26.2388V0.433594Z" fill="#231F20"/>
<path d="M26.9507 0.433594H26.21V105.556H26.9507V0.433594Z" fill="#231F20"/>
<path d="M27.6914 0.433594H26.9507V105.556H27.6914V0.433594Z" fill="#231F20"/>
<path d="M28.4321 0.433594H27.6914V105.556H28.4321V0.433594Z" fill="#231F20"/>
<path d="M29.1445 0.433594H28.4038V105.556H29.1445V0.433594Z" fill="#231F20"/>
<path d="M29.8852 0.433594H29.1445V105.556H29.8852V0.433594Z" fill="#231F20"/>
<path d="M30.5976 0.433594H29.8569V105.556H30.5976V0.433594Z" fill="#231F20"/>
<path d="M31.3384 0.433594H30.5977V105.556H31.3384V0.433594Z" fill="#231F20"/>
<path d="M32.0503 0.433594H31.3096V105.556H32.0503V0.433594Z" fill="#231F20"/>
<path d="M32.791 0.433594H32.0503V105.556H32.791V0.433594Z" fill="#231F20"/>
<path d="M33.5317 0.433594H32.791V105.556H33.5317V0.433594Z" fill="#231F20"/>
<path d="M34.2441 0.433594H33.5034V105.556H34.2441V0.433594Z" fill="#231F20"/>
<path d="M34.9849 0.433594H34.2441V105.556H34.9849V0.433594Z" fill="#231F20"/>
<path d="M35.6968 0.433594H34.9561V105.556H35.6968V0.433594Z" fill="#231F20"/>
<path d="M36.4375 0.433594H35.6968V105.556H36.4375V0.433594Z" fill="#231F20"/>
<path d="M37.1782 0.433594H36.4375V105.556H37.1782V0.433594Z" fill="#231F20"/>
<path d="M37.8906 0.433594H37.1499V105.556H37.8906V0.433594Z" fill="#231F20"/>
<path d="M38.6313 0.433594H37.8906V105.556H38.6313V0.433594Z" fill="#231F20"/>
<path d="M39.3437 0.433594H38.603V105.556H39.3437V0.433594Z" fill="#231F20"/>
<path d="M40.0845 0.433594H39.3438V105.556H40.0845V0.433594Z" fill="#231F20"/>
<path d="M40.8252 0.433594H40.0845V105.556H40.8252V0.433594Z" fill="#231F20"/>
<path d="M41.5371 0.433594H40.7964V105.556H41.5371V0.433594Z" fill="#231F20"/>
<path d="M42.2778 0.433594H41.5371V105.556H42.2778V0.433594Z" fill="#231F20"/>
<path d="M42.9902 0.433594H42.2495V105.556H42.9902V0.433594Z" fill="#231F20"/>
<path d="M43.731 0.433594H42.9902V105.556H43.731V0.433594Z" fill="#231F20"/>
<path d="M44.4429 0.433594H43.7021V105.556H44.4429V0.433594Z" fill="#231F20"/>
<path d="M45.1836 0.433594H44.4429V105.556H45.1836V0.433594Z" fill="#231F20"/>
<path d="M45.9243 0.433594H45.1836V105.556H45.9243V0.433594Z" fill="#231F20"/>
<path d="M46.6367 0.433594H45.896V105.556H46.6367V0.433594Z" fill="#231F20"/>
<path d="M47.3774 0.433594H46.6367V105.556H47.3774V0.433594Z" fill="#231F20"/>
<path d="M48.0898 0.433594H47.3491V105.556H48.0898V0.433594Z" fill="#231F20"/>
<path d="M48.8306 0.433594H48.0898V105.556H48.8306V0.433594Z" fill="#231F20"/>
<path d="M49.5713 0.433594H48.8306V105.556H49.5713V0.433594Z" fill="#231F20"/>
<path d="M50.2832 0.433594H49.5425V105.556H50.2832V0.433594Z" fill="#231F20"/>
<path d="M51.0239 0.433594H50.2832V105.556H51.0239V0.433594Z" fill="#231F20"/>
<path d="M51.7363 0.433594H50.9956V105.556H51.7363V0.433594Z" fill="#231F20"/>
<path d="M52.477 0.433594H51.7363V105.556H52.477V0.433594Z" fill="#231F20"/>
<path d="M53.2178 0.433594H52.4771V105.556H53.2178V0.433594Z" fill="#231F20"/>
<path d="M53.9302 0.433594H53.1895V105.556H53.9302V0.433594Z" fill="#231F20"/>
<path d="M54.6709 0.433594H53.9302V105.556H54.6709V0.433594Z" fill="#231F20"/>
<path d="M55.3828 0.433594H54.6421V105.556H55.3828V0.433594Z" fill="#231F20"/>
<path d="M56.1235 0.433594H55.3828V105.556H56.1235V0.433594Z" fill="#231F20"/>
<path d="M56.8643 0.433594H56.1235V105.556H56.8643V0.433594Z" fill="#231F20"/>
<path d="M57.5767 0.433594H56.8359V105.556H57.5767V0.433594Z" fill="#231F20"/>
<path d="M58.3174 0.433594H57.5767V105.556H58.3174V0.433594Z" fill="#231F20"/>
<path d="M59.0293 0.433594H58.2886V105.556H59.0293V0.433594Z" fill="#231F20"/>
<path d="M59.77 0.433594H59.0293V105.556H59.77V0.433594Z" fill="#231F20"/>
<path d="M60.4824 0.433594H59.7417V105.556H60.4824V0.433594Z" fill="#231F20"/>
<path d="M61.2231 0.433594H60.4824V105.556H61.2231V0.433594Z" fill="#231F20"/>
<path d="M61.9639 0.433594H61.2231V105.556H61.9639V0.433594Z" fill="#231F20"/>
<path d="M62.6763 0.433594H61.9355V105.556H62.6763V0.433594Z" fill="#231F20"/>
<path d="M63.417 0.433594H62.6763V105.556H63.417V0.433594Z" fill="#231F20"/>
<path d="M64.1289 0.433594H63.3882V105.556H64.1289V0.433594Z" fill="#231F20"/>
<path d="M64.8696 0.433594H64.1289V105.556H64.8696V0.433594Z" fill="#231F20"/>
<path d="M65.6103 0.433594H64.8696V105.556H65.6103V0.433594Z" fill="#231F20"/>
<path d="M66.3227 0.433594H65.582V105.556H66.3227V0.433594Z" fill="#231F20"/>
<path d="M67.0635 0.433594H66.3228V105.556H67.0635V0.433594Z" fill="#231F20"/>
<path d="M67.7759 0.433594H67.0352V105.556H67.7759V0.433594Z" fill="#231F20"/>
<path d="M68.5166 0.433594H67.7759V105.556H68.5166V0.433594Z" fill="#231F20"/>
<path d="M69.2568 0.433594H68.5161V105.556H69.2568V0.433594Z" fill="#231F20"/>
<path d="M69.9692 0.433594H69.2285V105.556H69.9692V0.433594Z" fill="#231F20"/>
<path d="M70.71 0.433594H69.9692V105.556H70.71V0.433594Z" fill="#231F20"/>
<path d="M71.4224 0.433594H70.6816V105.556H71.4224V0.433594Z" fill="#231F20"/>
<path d="M72.1631 0.433594H71.4224V105.556H72.1631V0.433594Z" fill="#231F20"/>
<path d="M72.875 0.433594H72.1343V105.556H72.875V0.433594Z" fill="#231F20"/>
<path d="M73.6157 0.433594H72.875V105.556H73.6157V0.433594Z" fill="#231F20"/>
<path d="M74.3564 0.433594H73.6157V105.556H74.3564V0.433594Z" fill="#231F20"/>
<path d="M75.0688 0.433594H74.3281V105.556H75.0688V0.433594Z" fill="#231F20"/>
<path d="M75.8096 0.433594H75.0688V105.556H75.8096V0.433594Z" fill="#231F20"/>
<path d="M76.522 0.433594H75.7812V105.556H76.522V0.433594Z" fill="#231F20"/>
<path d="M77.2627 0.433594H76.522V105.556H77.2627V0.433594Z" fill="#231F20"/>
<path d="M78.0034 0.433594H77.2627V105.556H78.0034V0.433594Z" fill="#231F20"/>
<path d="M78.7153 0.433594H77.9746V105.556H78.7153V0.433594Z" fill="#231F20"/>
<path d="M79.4561 0.433594H78.7153V105.556H79.4561V0.433594Z" fill="#231F20"/>
<path d="M80.1685 0.433594H79.4277V105.556H80.1685V0.433594Z" fill="#231F20"/>
<path d="M80.9092 0.433594H80.1685V105.556H80.9092V0.433594Z" fill="#231F20"/>
<path d="M81.6499 0.433594H80.9092V105.556H81.6499V0.433594Z" fill="#231F20"/>
<path d="M82.3618 0.433594H81.6211V105.556H82.3618V0.433594Z" fill="#231F20"/>
<path d="M83.1025 0.433594H82.3618V105.556H83.1025V0.433594Z" fill="#231F20"/>
<path d="M83.8149 0.433594H83.0742V105.556H83.8149V0.433594Z" fill="#231F20"/>
<path d="M84.5557 0.433594H83.8149V105.556H84.5557V0.433594Z" fill="#231F20"/>
<path d="M85.2681 0.433594H84.5273V105.556H85.2681V0.433594Z" fill="#231F20"/>
<path d="M86.0088 0.433594H85.2681V105.556H86.0088V0.433594Z" fill="#231F20"/>
<path d="M86.7495 0.433594H86.0088V105.556H86.7495V0.433594Z" fill="#231F20"/>
<path d="M87.4614 0.433594H86.7207V105.556H87.4614V0.433594Z" fill="#231F20"/>
<path d="M88.2021 0.433594H87.4614V105.556H88.2021V0.433594Z" fill="#231F20"/>
<path d="M88.9145 0.433594H88.1738V105.556H88.9145V0.433594Z" fill="#231F20"/>
<path d="M89.6553 0.433594H88.9146V105.556H89.6553V0.433594Z" fill="#231F20"/>
<path d="M90.396 0.433594H89.6553V105.556H90.396V0.433594Z" fill="#231F20"/>
<path d="M91.1084 0.433594H90.3677V105.556H91.1084V0.433594Z" fill="#231F20"/>
<path d="M91.8491 0.433594H91.1084V105.556H91.8491V0.433594Z" fill="#231F20"/>
<path d="M92.561 0.433594H91.8203V105.556H92.561V0.433594Z" fill="#231F20"/>
<path d="M93.3018 0.433594H92.561V105.556H93.3018V0.433594Z" fill="#231F20"/>
</g>
<path d="M42.3349 54.372C42.0785 54.6414 42.0785 55.1801 42.3349 55.4495L49.9984 63.5013C50.2548 63.7707 50.6537 63.7707 50.9101 63.5013C51.1665 63.2319 51.1665 62.6932 50.9101 62.4238L43.3605 54.372C43.1041 54.1026 42.5913 54.1026 42.3349 54.372Z" fill="#231F20"/>
<mask id="mask1_284_2041" style="mask-type:luminance" maskUnits="userSpaceOnUse" x="42" y="54" width="10" height="10">
<path d="M42.3349 54.372C42.0785 54.6414 42.0785 55.1801 42.3349 55.4495L49.9984 63.5013C50.2548 63.7707 50.6537 63.7707 50.9101 63.5013C51.1665 63.2319 51.1665 62.6932 50.9101 62.4238L43.3605 54.372C43.1041 54.1026 42.5913 54.1026 42.3349 54.372Z" fill="white"/>
</mask>
<g mask="url(#mask1_284_2041)">
<path d="M42.2211 54.0723H42.0786V63.7703H42.2211V54.0723Z" fill="#231F20"/>
<path d="M42.2782 54.0723H42.2212V63.7703H42.2782V54.0723Z" fill="#231F20"/>
<path d="M42.3636 54.0723H42.3066V63.7703H42.3636V54.0723Z" fill="#231F20"/>
<path d="M42.4203 54.0723H42.3633V63.7703H42.4203V54.0723Z" fill="#231F20"/>
<path d="M42.5057 54.0723H42.4487V63.7703H42.5057V54.0723Z" fill="#231F20"/>
<path d="M42.5628 54.0723H42.5059V63.7703H42.5628V54.0723Z" fill="#231F20"/>
<path d="M42.6483 54.0723H42.5913V63.7703H42.6483V54.0723Z" fill="#231F20"/>
<path d="M42.7054 54.0723H42.6484V63.7703H42.7054V54.0723Z" fill="#231F20"/>
<path d="M42.7909 54.0723H42.7339V63.7703H42.7909V54.0723Z" fill="#231F20"/>
<path d="M42.848 54.0723H42.791V63.7703H42.848V54.0723Z" fill="#231F20"/>
<path d="M42.9334 54.0723H42.8765V63.7703H42.9334V54.0723Z" fill="#231F20"/>
<path d="M42.9901 54.0723H42.9331V63.7703H42.9901V54.0723Z" fill="#231F20"/>
<path d="M43.0755 54.0723H43.0186V63.7703H43.0755V54.0723Z" fill="#231F20"/>
<path d="M43.1327 54.0723H43.0757V63.7703H43.1327V54.0723Z" fill="#231F20"/>
<path d="M43.2181 54.0723H43.1611V63.7703H43.2181V54.0723Z" fill="#231F20"/>
<path d="M43.2752 54.0723H43.2183V63.7703H43.2752V54.0723Z" fill="#231F20"/>
<path d="M43.3607 54.0723H43.3037V63.7703H43.3607V54.0723Z" fill="#231F20"/>
<path d="M43.4178 54.0723H43.3608V63.7703H43.4178V54.0723Z" fill="#231F20"/>
<path d="M43.5033 54.0723H43.4463V63.7703H43.5033V54.0723Z" fill="#231F20"/>
<path d="M43.5599 54.0723H43.5029V63.7703H43.5599V54.0723Z" fill="#231F20"/>
<path d="M43.6454 54.0723H43.5884V63.7703H43.6454V54.0723Z" fill="#231F20"/>
<path d="M43.7025 54.0723H43.6455V63.7703H43.7025V54.0723Z" fill="#231F20"/>
<path d="M43.7879 54.0723H43.731V63.7703H43.7879V54.0723Z" fill="#231F20"/>
<path d="M43.8451 54.0723H43.7881V63.7703H43.8451V54.0723Z" fill="#231F20"/>
<path d="M43.9305 54.0723H43.8735V63.7703H43.9305V54.0723Z" fill="#231F20"/>
<path d="M43.9872 54.0723H43.9302V63.7703H43.9872V54.0723Z" fill="#231F20"/>
<path d="M44.0731 54.0723H44.0161V63.7703H44.0731V54.0723Z" fill="#231F20"/>
<path d="M44.1297 54.0723H44.0728V63.7703H44.1297V54.0723Z" fill="#231F20"/>
<path d="M44.2152 54.0723H44.1582V63.7703H44.2152V54.0723Z" fill="#231F20"/>
<path d="M44.2723 54.0723H44.2153V63.7703H44.2723V54.0723Z" fill="#231F20"/>
<path d="M44.3578 54.0723H44.3008V63.7703H44.3578V54.0723Z" fill="#231F20"/>
<path d="M44.4149 54.0723H44.3579V63.7703H44.4149V54.0723Z" fill="#231F20"/>
<path d="M44.5003 54.0723H44.4434V63.7703H44.5003V54.0723Z" fill="#231F20"/>
<path d="M44.557 54.0723H44.5V63.7703H44.557V54.0723Z" fill="#231F20"/>
<path d="M44.6424 54.0723H44.5854V63.7703H44.6424V54.0723Z" fill="#231F20"/>
<path d="M44.6996 54.0723H44.6426V63.7703H44.6996V54.0723Z" fill="#231F20"/>
<path d="M44.7567 54.0723H44.6997V63.7703H44.7567V54.0723Z" fill="#231F20"/>
<path d="M44.8421 54.0723H44.7852V63.7703H44.8421V54.0723Z" fill="#231F20"/>
<path d="M44.8993 54.0723H44.8423V63.7703H44.8993V54.0723Z" fill="#231F20"/>
<path d="M44.9847 54.0723H44.9277V63.7703H44.9847V54.0723Z" fill="#231F20"/>
<path d="M45.0413 54.0723H44.9844V63.7703H45.0413V54.0723Z" fill="#231F20"/>
<path d="M45.1268 54.0723H45.0698V63.7703H45.1268V54.0723Z" fill="#231F20"/>
<path d="M45.1839 54.0723H45.127V63.7703H45.1839V54.0723Z" fill="#231F20"/>
<path d="M45.2694 54.0723H45.2124V63.7703H45.2694V54.0723Z" fill="#231F20"/>
<path d="M45.3265 54.0723H45.2695V63.7703H45.3265V54.0723Z" fill="#231F20"/>
<path d="M45.412 54.0723H45.355V63.7703H45.412V54.0723Z" fill="#231F20"/>
<path d="M45.4686 54.0723H45.4116V63.7703H45.4686V54.0723Z" fill="#231F20"/>
<path d="M45.554 54.0723H45.4971V63.7703H45.554V54.0723Z" fill="#231F20"/>
<path d="M45.6112 54.0723H45.5542V63.7703H45.6112V54.0723Z" fill="#231F20"/>
<path d="M45.6966 54.0723H45.6396V63.7703H45.6966V54.0723Z" fill="#231F20"/>
<path d="M45.7538 54.0723H45.6968V63.7703H45.7538V54.0723Z" fill="#231F20"/>
<path d="M45.8392 54.0723H45.7822V63.7703H45.8392V54.0723Z" fill="#231F20"/>
<path d="M45.8963 54.0723H45.8394V63.7703H45.8963V54.0723Z" fill="#231F20"/>
<path d="M45.9818 54.0723H45.9248V63.7703H45.9818V54.0723Z" fill="#231F20"/>
<path d="M46.0384 54.0723H45.9814V63.7703H46.0384V54.0723Z" fill="#231F20"/>
<path d="M46.1239 54.0723H46.0669V63.7703H46.1239V54.0723Z" fill="#231F20"/>
<path d="M46.181 54.0723H46.124V63.7703H46.181V54.0723Z" fill="#231F20"/>
<path d="M46.2665 54.0723H46.2095V63.7703H46.2665V54.0723Z" fill="#231F20"/>
<path d="M46.3236 54.0723H46.2666V63.7703H46.3236V54.0723Z" fill="#231F20"/>
<path d="M46.409 54.0723H46.3521V63.7703H46.409V54.0723Z" fill="#231F20"/>
<path d="M46.4662 54.0723H46.4092V63.7703H46.4662V54.0723Z" fill="#231F20"/>
<path d="M46.5516 54.0723H46.4946V63.7703H46.5516V54.0723Z" fill="#231F20"/>
<path d="M46.6082 54.0723H46.5513V63.7703H46.6082V54.0723Z" fill="#231F20"/>
<path d="M46.6937 54.0723H46.6367V63.7703H46.6937V54.0723Z" fill="#231F20"/>
<path d="M46.7508 54.0723H46.6938V63.7703H46.7508V54.0723Z" fill="#231F20"/>
<path d="M46.8363 54.0723H46.7793V63.7703H46.8363V54.0723Z" fill="#231F20"/>
<path d="M46.8934 54.0723H46.8364V63.7703H46.8934V54.0723Z" fill="#231F20"/>
<path d="M46.9789 54.0723H46.9219V63.7703H46.9789V54.0723Z" fill="#231F20"/>
<path d="M47.0355 54.0723H46.9785V63.7703H47.0355V54.0723Z" fill="#231F20"/>
<path d="M47.1209 54.0723H47.064V63.7703H47.1209V54.0723Z" fill="#231F20"/>
<path d="M47.1781 54.0723H47.1211V63.7703H47.1781V54.0723Z" fill="#231F20"/>
<path d="M47.2635 54.0723H47.2065V63.7703H47.2635V54.0723Z" fill="#231F20"/>
<path d="M47.3207 54.0723H47.2637V63.7703H47.3207V54.0723Z" fill="#231F20"/>
<path d="M47.4061 54.0723H47.3491V63.7703H47.4061V54.0723Z" fill="#231F20"/>
<path d="M47.4632 54.0723H47.4062V63.7703H47.4632V54.0723Z" fill="#231F20"/>
<path d="M47.5487 54.0723H47.4917V63.7703H47.5487V54.0723Z" fill="#231F20"/>
<path d="M47.6053 54.0723H47.5483V63.7703H47.6053V54.0723Z" fill="#231F20"/>
<path d="M47.6908 54.0723H47.6338V63.7703H47.6908V54.0723Z" fill="#231F20"/>
<path d="M47.7479 54.0723H47.6909V63.7703H47.7479V54.0723Z" fill="#231F20"/>
<path d="M47.8333 54.0723H47.7764V63.7703H47.8333V54.0723Z" fill="#231F20"/>
<path d="M47.8905 54.0723H47.8335V63.7703H47.8905V54.0723Z" fill="#231F20"/>
<path d="M47.9759 54.0723H47.9189V63.7703H47.9759V54.0723Z" fill="#231F20"/>
<path d="M48.0331 54.0723H47.9761V63.7703H48.0331V54.0723Z" fill="#231F20"/>
<path d="M48.1185 54.0723H48.0615V63.7703H48.1185V54.0723Z" fill="#231F20"/>
<path d="M48.1751 54.0723H48.1182V63.7703H48.1751V54.0723Z" fill="#231F20"/>
<path d="M48.2606 54.0723H48.2036V63.7703H48.2606V54.0723Z" fill="#231F20"/>
<path d="M48.3177 54.0723H48.2607V63.7703H48.3177V54.0723Z" fill="#231F20"/>
<path d="M48.4032 54.0723H48.3462V63.7703H48.4032V54.0723Z" fill="#231F20"/>
<path d="M48.4603 54.0723H48.4033V63.7703H48.4603V54.0723Z" fill="#231F20"/>
<path d="M48.5457 54.0723H48.4888V63.7703H48.5457V54.0723Z" fill="#231F20"/>
<path d="M48.6024 54.0723H48.5454V63.7703H48.6024V54.0723Z" fill="#231F20"/>
<path d="M48.6878 54.0723H48.6309V63.7703H48.6878V54.0723Z" fill="#231F20"/>
<path d="M48.745 54.0723H48.688V63.7703H48.745V54.0723Z" fill="#231F20"/>
<path d="M48.8304 54.0723H48.7734V63.7703H48.8304V54.0723Z" fill="#231F20"/>
<path d="M48.8875 54.0723H48.8306V63.7703H48.8875V54.0723Z" fill="#231F20"/>
<path d="M48.973 54.0723H48.916V63.7703H48.973V54.0723Z" fill="#231F20"/>
<path d="M49.0301 54.0723H48.9731V63.7703H49.0301V54.0723Z" fill="#231F20"/>
<path d="M49.1156 54.0723H49.0586V63.7703H49.1156V54.0723Z" fill="#231F20"/>
<path d="M49.1722 54.0723H49.1152V63.7703H49.1722V54.0723Z" fill="#231F20"/>
<path d="M49.2577 54.0723H49.2007V63.7703H49.2577V54.0723Z" fill="#231F20"/>
<path d="M49.3148 54.0723H49.2578V63.7703H49.3148V54.0723Z" fill="#231F20"/>
<path d="M49.4002 54.0723H49.3433V63.7703H49.4002V54.0723Z" fill="#231F20"/>
<path d="M49.4574 54.0723H49.4004V63.7703H49.4574V54.0723Z" fill="#231F20"/>
<path d="M49.5428 54.0723H49.4858V63.7703H49.5428V54.0723Z" fill="#231F20"/>
<path d="M49.5999 54.0723H49.543V63.7703H49.5999V54.0723Z" fill="#231F20"/>
<path d="M49.6854 54.0723H49.6284V63.7703H49.6854V54.0723Z" fill="#231F20"/>
<path d="M49.742 54.0723H49.6851V63.7703H49.742V54.0723Z" fill="#231F20"/>
<path d="M49.8275 54.0723H49.7705V63.7703H49.8275V54.0723Z" fill="#231F20"/>
<path d="M49.8846 54.0723H49.8276V63.7703H49.8846V54.0723Z" fill="#231F20"/>
<path d="M49.9701 54.0723H49.9131V63.7703H49.9701V54.0723Z" fill="#231F20"/>
<path d="M50.0272 54.0723H49.9702V63.7703H50.0272V54.0723Z" fill="#231F20"/>
<path d="M50.1126 54.0723H50.0557V63.7703H50.1126V54.0723Z" fill="#231F20"/>
<path d="M50.1693 54.0723H50.1123V63.7703H50.1693V54.0723Z" fill="#231F20"/>
<path d="M50.2547 54.0723H50.1978V63.7703H50.2547V54.0723Z" fill="#231F20"/>
<path d="M50.3119 54.0723H50.2549V63.7703H50.3119V54.0723Z" fill="#231F20"/>
<path d="M50.3973 54.0723H50.3403V63.7703H50.3973V54.0723Z" fill="#231F20"/>
<path d="M50.4544 54.0723H50.3975V63.7703H50.4544V54.0723Z" fill="#231F20"/>
<path d="M50.5399 54.0723H50.4829V63.7703H50.5399V54.0723Z" fill="#231F20"/>
<path d="M50.597 54.0723H50.54V63.7703H50.597V54.0723Z" fill="#231F20"/>
<path d="M50.6825 54.0723H50.6255V63.7703H50.6825V54.0723Z" fill="#231F20"/>
<path d="M50.7391 54.0723H50.6821V63.7703H50.7391V54.0723Z" fill="#231F20"/>
<path d="M50.8246 54.0723H50.7676V63.7703H50.8246V54.0723Z" fill="#231F20"/>
<path d="M50.8817 54.0723H50.8247V63.7703H50.8817V54.0723Z" fill="#231F20"/>
<path d="M50.9671 54.0723H50.9102V63.7703H50.9671V54.0723Z" fill="#231F20"/>
<path d="M51.0243 54.0723H50.9673V63.7703H51.0243V54.0723Z" fill="#231F20"/>
<path d="M51.1952 54.0723H51.0527V63.7703H51.1952V54.0723Z" fill="#231F20"/>
</g>
<path d="M49.4855 56.8262L45.5825 52.7255C45.3261 52.4561 44.9272 52.4561 44.6708 52.7255C44.4144 52.9949 44.4144 53.5337 44.6708 53.6833L48.4314 57.784C48.8302 58.2031 49.2006 58.2031 49.457 57.9337C49.7134 57.5147 49.7134 57.1255 49.457 56.8561L49.4855 56.8262Z" fill="#231F20"/>
<mask id="mask2_284_2041" style="mask-type:luminance" maskUnits="userSpaceOnUse" x="44" y="52" width="6" height="7">
<path d="M49.4855 56.8262L45.5825 52.7255C45.3261 52.4561 44.9272 52.4561 44.6708 52.7255C44.4144 52.9949 44.4144 53.5337 44.6708 53.6833L48.4314 57.784C48.8302 58.2031 49.2006 58.2031 49.457 57.9337C49.7134 57.5147 49.7134 57.1255 49.457 56.8561L49.4855 56.8262Z" fill="white"/>
</mask>
<g mask="url(#mask2_284_2041)">
<path d="M44.5 52.457H44.4146V58.204H44.5V52.457Z" fill="#231F20"/>
<path d="M44.5285 52.457H44.5V58.204H44.5285V52.457Z" fill="#231F20"/>
<path d="M44.5856 52.457H44.5571V58.204H44.5856V52.457Z" fill="#231F20"/>
<path d="M44.6139 52.457H44.5854V58.204H44.6139V52.457Z" fill="#231F20"/>
<path d="M44.6711 52.457H44.6426V58.204H44.6711V52.457Z" fill="#231F20"/>
<path d="M44.6994 52.457H44.6709V58.204H44.6994V52.457Z" fill="#231F20"/>
<path d="M44.7565 52.457H44.728V58.204H44.7565V52.457Z" fill="#231F20"/>
<path d="M44.7848 52.457H44.7563V58.204H44.7848V52.457Z" fill="#231F20"/>
<path d="M44.8132 52.457H44.7847V58.204H44.8132V52.457Z" fill="#231F20"/>
<path d="M44.8703 52.457H44.8418V58.204H44.8703V52.457Z" fill="#231F20"/>
<path d="M44.8991 52.457H44.8706V58.204H44.8991V52.457Z" fill="#231F20"/>
<path d="M44.9557 52.457H44.9272V58.204H44.9557V52.457Z" fill="#231F20"/>
<path d="M44.9845 52.457H44.9561V58.204H44.9845V52.457Z" fill="#231F20"/>
<path d="M45.0412 52.457H45.0127V58.204H45.0412V52.457Z" fill="#231F20"/>
<path d="M45.07 52.457H45.0415V58.204H45.07V52.457Z" fill="#231F20"/>
<path d="M45.1266 52.457H45.0981V58.204H45.1266V52.457Z" fill="#231F20"/>
<path d="M45.1554 52.457H45.127V58.204H45.1554V52.457Z" fill="#231F20"/>
<path d="M45.2121 52.457H45.1836V58.204H45.2121V52.457Z" fill="#231F20"/>
<path d="M45.2409 52.457H45.2124V58.204H45.2409V52.457Z" fill="#231F20"/>
<path d="M45.2975 52.457H45.269V58.204H45.2975V52.457Z" fill="#231F20"/>
<path d="M45.3263 52.457H45.2979V58.204H45.3263V52.457Z" fill="#231F20"/>
<path d="M45.3547 52.457H45.3262V58.204H45.3547V52.457Z" fill="#231F20"/>
<path d="M45.4118 52.457H45.3833V58.204H45.4118V52.457Z" fill="#231F20"/>
<path d="M45.4401 52.457H45.4116V58.204H45.4401V52.457Z" fill="#231F20"/>
<path d="M45.4972 52.457H45.4688V58.204H45.4972V52.457Z" fill="#231F20"/>
<path d="M45.5256 52.457H45.4971V58.204H45.5256V52.457Z" fill="#231F20"/>
<path d="M45.5827 52.457H45.5542V58.204H45.5827V52.457Z" fill="#231F20"/>
<path d="M45.611 52.457H45.5825V58.204H45.611V52.457Z" fill="#231F20"/>
<path d="M45.6681 52.457H45.6396V58.204H45.6681V52.457Z" fill="#231F20"/>
<path d="M45.6965 52.457H45.668V58.204H45.6965V52.457Z" fill="#231F20"/>
<path d="M45.7536 52.457H45.7251V58.204H45.7536V52.457Z" fill="#231F20"/>
<path d="M45.7819 52.457H45.7534V58.204H45.7819V52.457Z" fill="#231F20"/>
<path d="M45.839 52.457H45.8105V58.204H45.839V52.457Z" fill="#231F20"/>
<path d="M45.8674 52.457H45.8389V58.204H45.8674V52.457Z" fill="#231F20"/>
<path d="M45.8962 52.457H45.8677V58.204H45.8962V52.457Z" fill="#231F20"/>
<path d="M45.9528 52.457H45.9243V58.204H45.9528V52.457Z" fill="#231F20"/>
<path d="M45.9816 52.457H45.9531V58.204H45.9816V52.457Z" fill="#231F20"/>
<path d="M46.0383 52.457H46.0098V58.204H46.0383V52.457Z" fill="#231F20"/>
<path d="M46.0671 52.457H46.0386V58.204H46.0671V52.457Z" fill="#231F20"/>
<path d="M46.1237 52.457H46.0952V58.204H46.1237V52.457Z" fill="#231F20"/>
<path d="M46.1525 52.457H46.124V58.204H46.1525V52.457Z" fill="#231F20"/>
<path d="M46.2091 52.457H46.1807V58.204H46.2091V52.457Z" fill="#231F20"/>
<path d="M46.238 52.457H46.2095V58.204H46.238V52.457Z" fill="#231F20"/>
<path d="M46.2946 52.457H46.2661V58.204H46.2946V52.457Z" fill="#231F20"/>
<path d="M46.3234 52.457H46.2949V58.204H46.3234V52.457Z" fill="#231F20"/>
<path d="M46.3805 52.457H46.3521V58.204H46.3805V52.457Z" fill="#231F20"/>
<path d="M46.4089 52.457H46.3804V58.204H46.4089V52.457Z" fill="#231F20"/>
<path d="M46.4372 52.457H46.4087V58.204H46.4372V52.457Z" fill="#231F20"/>
<path d="M46.4943 52.457H46.4658V58.204H46.4943V52.457Z" fill="#231F20"/>
<path d="M46.5226 52.457H46.4941V58.204H46.5226V52.457Z" fill="#231F20"/>
<path d="M46.5798 52.457H46.5513V58.204H46.5798V52.457Z" fill="#231F20"/>
<path d="M46.6081 52.457H46.5796V58.204H46.6081V52.457Z" fill="#231F20"/>
<path d="M46.6652 52.457H46.6367V58.204H46.6652V52.457Z" fill="#231F20"/>
<path d="M46.6935 52.457H46.665V58.204H46.6935V52.457Z" fill="#231F20"/>
<path d="M46.7507 52.457H46.7222V58.204H46.7507V52.457Z" fill="#231F20"/>
<path d="M46.779 52.457H46.7505V58.204H46.779V52.457Z" fill="#231F20"/>
<path d="M46.8361 52.457H46.8076V58.204H46.8361V52.457Z" fill="#231F20"/>
<path d="M46.8644 52.457H46.8359V58.204H46.8644V52.457Z" fill="#231F20"/>
<path d="M46.9216 52.457H46.8931V58.204H46.9216V52.457Z" fill="#231F20"/>
<path d="M46.9499 52.457H46.9214V58.204H46.9499V52.457Z" fill="#231F20"/>
<path d="M46.9787 52.457H46.9502V58.204H46.9787V52.457Z" fill="#231F20"/>
<path d="M47.0353 52.457H47.0068V58.204H47.0353V52.457Z" fill="#231F20"/>
<path d="M47.0641 52.457H47.0356V58.204H47.0641V52.457Z" fill="#231F20"/>
<path d="M47.1208 52.457H47.0923V58.204H47.1208V52.457Z" fill="#231F20"/>
<path d="M47.1496 52.457H47.1211V58.204H47.1496V52.457Z" fill="#231F20"/>
<path d="M47.2067 52.457H47.1782V58.204H47.2067V52.457Z" fill="#231F20"/>
<path d="M47.235 52.457H47.2065V58.204H47.235V52.457Z" fill="#231F20"/>
<path d="M47.2922 52.457H47.2637V58.204H47.2922V52.457Z" fill="#231F20"/>
<path d="M47.3205 52.457H47.292V58.204H47.3205V52.457Z" fill="#231F20"/>
<path d="M47.3776 52.457H47.3491V58.204H47.3776V52.457Z" fill="#231F20"/>
<path d="M47.4059 52.457H47.3774V58.204H47.4059V52.457Z" fill="#231F20"/>
<path d="M47.4631 52.457H47.4346V58.204H47.4631V52.457Z" fill="#231F20"/>
<path d="M47.4914 52.457H47.4629V58.204H47.4914V52.457Z" fill="#231F20"/>
<path d="M47.5197 52.457H47.4912V58.204H47.5197V52.457Z" fill="#231F20"/>
<path d="M47.5768 52.457H47.5483V58.204H47.5768V52.457Z" fill="#231F20"/>
<path d="M47.6051 52.457H47.5767V58.204H47.6051V52.457Z" fill="#231F20"/>
<path d="M47.6623 52.457H47.6338V58.204H47.6623V52.457Z" fill="#231F20"/>
<path d="M47.6906 52.457H47.6621V58.204H47.6906V52.457Z" fill="#231F20"/>
<path d="M47.7477 52.457H47.7192V58.204H47.7477V52.457Z" fill="#231F20"/>
<path d="M47.776 52.457H47.7476V58.204H47.776V52.457Z" fill="#231F20"/>
<path d="M47.8332 52.457H47.8047V58.204H47.8332V52.457Z" fill="#231F20"/>
<path d="M47.8615 52.457H47.833V58.204H47.8615V52.457Z" fill="#231F20"/>
<path d="M47.9186 52.457H47.8901V58.204H47.9186V52.457Z" fill="#231F20"/>
<path d="M47.9474 52.457H47.9189V58.204H47.9474V52.457Z" fill="#231F20"/>
<path d="M48.0041 52.457H47.9756V58.204H48.0041V52.457Z" fill="#231F20"/>
<path d="M48.0329 52.457H48.0044V58.204H48.0329V52.457Z" fill="#231F20"/>
<path d="M48.0612 52.457H48.0327V58.204H48.0612V52.457Z" fill="#231F20"/>
<path d="M48.1183 52.457H48.0898V58.204H48.1183V52.457Z" fill="#231F20"/>
<path d="M48.1467 52.457H48.1182V58.204H48.1467V52.457Z" fill="#231F20"/>
<path d="M48.2038 52.457H48.1753V58.204H48.2038V52.457Z" fill="#231F20"/>
<path d="M48.2321 52.457H48.2036V58.204H48.2321V52.457Z" fill="#231F20"/>
<path d="M48.2892 52.457H48.2607V58.204H48.2892V52.457Z" fill="#231F20"/>
<path d="M48.3176 52.457H48.2891V58.204H48.3176V52.457Z" fill="#231F20"/>
<path d="M48.3747 52.457H48.3462V58.204H48.3747V52.457Z" fill="#231F20"/>
<path d="M48.403 52.457H48.3745V58.204H48.403V52.457Z" fill="#231F20"/>
<path d="M48.4601 52.457H48.4316V58.204H48.4601V52.457Z" fill="#231F20"/>
<path d="M48.4885 52.457H48.46V58.204H48.4885V52.457Z" fill="#231F20"/>
<path d="M48.5168 52.457H48.4883V58.204H48.5168V52.457Z" fill="#231F20"/>
<path d="M48.5739 52.457H48.5454V58.204H48.5739V52.457Z" fill="#231F20"/>
<path d="M48.6022 52.457H48.5737V58.204H48.6022V52.457Z" fill="#231F20"/>
<path d="M48.6593 52.457H48.6309V58.204H48.6593V52.457Z" fill="#231F20"/>
<path d="M48.6877 52.457H48.6592V58.204H48.6877V52.457Z" fill="#231F20"/>
<path d="M48.7448 52.457H48.7163V58.204H48.7448V52.457Z" fill="#231F20"/>
<path d="M48.7736 52.457H48.7451V58.204H48.7736V52.457Z" fill="#231F20"/>
<path d="M48.8302 52.457H48.8018V58.204H48.8302V52.457Z" fill="#231F20"/>
<path d="M48.8591 52.457H48.8306V58.204H48.8591V52.457Z" fill="#231F20"/>
<path d="M48.9157 52.457H48.8872V58.204H48.9157V52.457Z" fill="#231F20"/>
<path d="M48.9445 52.457H48.916V58.204H48.9445V52.457Z" fill="#231F20"/>
<path d="M49.0011 52.457H48.9727V58.204H49.0011V52.457Z" fill="#231F20"/>
<path d="M49.03 52.457H49.0015V58.204H49.03V52.457Z" fill="#231F20"/>
<path d="M49.0583 52.457H49.0298V58.204H49.0583V52.457Z" fill="#231F20"/>
<path d="M49.1154 52.457H49.0869V58.204H49.1154V52.457Z" fill="#231F20"/>
<path d="M49.1437 52.457H49.1152V58.204H49.1437V52.457Z" fill="#231F20"/>
<path d="M49.2009 52.457H49.1724V58.204H49.2009V52.457Z" fill="#231F20"/>
<path d="M49.2292 52.457H49.2007V58.204H49.2292V52.457Z" fill="#231F20"/>
<path d="M49.2863 52.457H49.2578V58.204H49.2863V52.457Z" fill="#231F20"/>
<path d="M49.3146 52.457H49.2861V58.204H49.3146V52.457Z" fill="#231F20"/>
<path d="M49.3718 52.457H49.3433V58.204H49.3718V52.457Z" fill="#231F20"/>
<path d="M49.4001 52.457H49.3716V58.204H49.4001V52.457Z" fill="#231F20"/>
<path d="M49.4572 52.457H49.4287V58.204H49.4572V52.457Z" fill="#231F20"/>
<path d="M49.4855 52.457H49.457V58.204H49.4855V52.457Z" fill="#231F20"/>
<path d="M49.5426 52.457H49.5142V58.204H49.5426V52.457Z" fill="#231F20"/>
<path d="M49.571 52.457H49.5425V58.204H49.571V52.457Z" fill="#231F20"/>
<path d="M49.5998 52.457H49.5713V58.204H49.5998V52.457Z" fill="#231F20"/>
<path d="M49.6564 52.457H49.6279V58.204H49.6564V52.457Z" fill="#231F20"/>
</g>
<path d="M48.5738 63.92L44.6708 59.8192C44.4144 59.5498 44.0156 59.5498 43.7592 59.9689C43.5028 60.1185 43.5028 60.6573 43.7592 60.9267L47.5198 65.0274C47.9186 65.2968 48.289 65.2968 48.5454 65.0274C48.8018 64.7581 48.8018 64.2193 48.5454 63.9499L48.5738 63.92Z" fill="#231F20"/>
<mask id="mask3_284_2041" style="mask-type:luminance" maskUnits="userSpaceOnUse" x="43" y="59" width="6" height="7">
<path d="M48.5738 63.92L44.6708 59.8192C44.4144 59.5498 44.0156 59.5498 43.7592 59.9689C43.5028 60.1185 43.5028 60.6573 43.7592 60.9267L47.5198 65.0274C47.9186 65.2968 48.289 65.2968 48.5454 65.0274C48.8018 64.7581 48.8018 64.2193 48.5454 63.9499L48.5738 63.92Z" fill="white"/>
</mask>
<g mask="url(#mask3_284_2041)">
<path d="M43.5884 59.5508H43.5029V65.2978H43.5884V59.5508Z" fill="#231F20"/>
<path d="M43.6169 59.5508H43.5884V65.2978H43.6169V59.5508Z" fill="#231F20"/>
<path d="M43.674 59.5508H43.6455V65.2978H43.674V59.5508Z" fill="#231F20"/>
<path d="M43.7023 59.5508H43.6738V65.2978H43.7023V59.5508Z" fill="#231F20"/>
<path d="M43.7594 59.5508H43.731V65.2978H43.7594V59.5508Z" fill="#231F20"/>
<path d="M43.7878 59.5508H43.7593V65.2978H43.7878V59.5508Z" fill="#231F20"/>
<path d="M43.8449 59.5508H43.8164V65.2978H43.8449V59.5508Z" fill="#231F20"/>
<path d="M43.8732 59.5508H43.8447V65.2978H43.8732V59.5508Z" fill="#231F20"/>
<path d="M43.9303 59.5508H43.9019V65.2978H43.9303V59.5508Z" fill="#231F20"/>
<path d="M43.9587 59.5508H43.9302V65.2978H43.9587V59.5508Z" fill="#231F20"/>
<path d="M43.9875 59.5508H43.959V65.2978H43.9875V59.5508Z" fill="#231F20"/>
<path d="M44.0441 59.5508H44.0156V65.2978H44.0441V59.5508Z" fill="#231F20"/>
<path d="M44.0729 59.5508H44.0444V65.2978H44.0729V59.5508Z" fill="#231F20"/>
<path d="M44.1296 59.5508H44.1011V65.2978H44.1296V59.5508Z" fill="#231F20"/>
<path d="M44.1584 59.5508H44.1299V65.2978H44.1584V59.5508Z" fill="#231F20"/>
<path d="M44.215 59.5508H44.1865V65.2978H44.215V59.5508Z" fill="#231F20"/>
<path d="M44.2438 59.5508H44.2153V65.2978H44.2438V59.5508Z" fill="#231F20"/>
<path d="M44.3005 59.5508H44.272V65.2978H44.3005V59.5508Z" fill="#231F20"/>
<path d="M44.3293 59.5508H44.3008V65.2978H44.3293V59.5508Z" fill="#231F20"/>
<path d="M44.3859 59.5508H44.3574V65.2978H44.3859V59.5508Z" fill="#231F20"/>
<path d="M44.4147 59.5508H44.3862V65.2978H44.4147V59.5508Z" fill="#231F20"/>
<path d="M44.4714 59.5508H44.4429V65.2978H44.4714V59.5508Z" fill="#231F20"/>
<path d="M44.5002 59.5508H44.4717V65.2978H44.5002V59.5508Z" fill="#231F20"/>
<path d="M44.5285 59.5508H44.5V65.2978H44.5285V59.5508Z" fill="#231F20"/>
<path d="M44.5856 59.5508H44.5571V65.2978H44.5856V59.5508Z" fill="#231F20"/>
<path d="M44.6139 59.5508H44.5854V65.2978H44.6139V59.5508Z" fill="#231F20"/>
<path d="M44.6711 59.5508H44.6426V65.2978H44.6711V59.5508Z" fill="#231F20"/>
<path d="M44.6994 59.5508H44.6709V65.2978H44.6994V59.5508Z" fill="#231F20"/>
<path d="M44.7565 59.5508H44.728V65.2978H44.7565V59.5508Z" fill="#231F20"/>
<path d="M44.7848 59.5508H44.7563V65.2978H44.7848V59.5508Z" fill="#231F20"/>
<path d="M44.842 59.5508H44.8135V65.2978H44.842V59.5508Z" fill="#231F20"/>
<path d="M44.8703 59.5508H44.8418V65.2978H44.8703V59.5508Z" fill="#231F20"/>
<path d="M44.9274 59.5508H44.8989V65.2978H44.9274V59.5508Z" fill="#231F20"/>
<path d="M44.9557 59.5508H44.9272V65.2978H44.9557V59.5508Z" fill="#231F20"/>
<path d="M45.0129 59.5508H44.9844V65.2978H45.0129V59.5508Z" fill="#231F20"/>
<path d="M45.0412 59.5508H45.0127V65.2978H45.0412V59.5508Z" fill="#231F20"/>
<path d="M45.07 59.5508H45.0415V65.2978H45.07V59.5508Z" fill="#231F20"/>
<path d="M45.1266 59.5508H45.0981V65.2978H45.1266V59.5508Z" fill="#231F20"/>
<path d="M45.1554 59.5508H45.127V65.2978H45.1554V59.5508Z" fill="#231F20"/>
<path d="M45.2121 59.5508H45.1836V65.2978H45.2121V59.5508Z" fill="#231F20"/>
<path d="M45.2409 59.5508H45.2124V65.2978H45.2409V59.5508Z" fill="#231F20"/>
<path d="M45.2975 59.5508H45.269V65.2978H45.2975V59.5508Z" fill="#231F20"/>
<path d="M45.3263 59.5508H45.2979V65.2978H45.3263V59.5508Z" fill="#231F20"/>
<path d="M45.383 59.5508H45.3545V65.2978H45.383V59.5508Z" fill="#231F20"/>
<path d="M45.4118 59.5508H45.3833V65.2978H45.4118V59.5508Z" fill="#231F20"/>
<path d="M45.4689 59.5508H45.4404V65.2978H45.4689V59.5508Z" fill="#231F20"/>
<path d="M45.4972 59.5508H45.4688V65.2978H45.4972V59.5508Z" fill="#231F20"/>
<path d="M45.5544 59.5508H45.5259V65.2978H45.5544V59.5508Z" fill="#231F20"/>
<path d="M45.5827 59.5508H45.5542V65.2978H45.5827V59.5508Z" fill="#231F20"/>
<path d="M45.611 59.5508H45.5825V65.2978H45.611V59.5508Z" fill="#231F20"/>
<path d="M45.6681 59.5508H45.6396V65.2978H45.6681V59.5508Z" fill="#231F20"/>
<path d="M45.6965 59.5508H45.668V65.2978H45.6965V59.5508Z" fill="#231F20"/>
<path d="M45.7536 59.5508H45.7251V65.2978H45.7536V59.5508Z" fill="#231F20"/>
<path d="M45.7819 59.5508H45.7534V65.2978H45.7819V59.5508Z" fill="#231F20"/>
<path d="M45.839 59.5508H45.8105V65.2978H45.839V59.5508Z" fill="#231F20"/>
<path d="M45.8674 59.5508H45.8389V65.2978H45.8674V59.5508Z" fill="#231F20"/>
<path d="M45.9245 59.5508H45.896V65.2978H45.9245V59.5508Z" fill="#231F20"/>
<path d="M45.9528 59.5508H45.9243V65.2978H45.9528V59.5508Z" fill="#231F20"/>
<path d="M46.0099 59.5508H45.9814V65.2978H46.0099V59.5508Z" fill="#231F20"/>
<path d="M46.0383 59.5508H46.0098V65.2978H46.0383V59.5508Z" fill="#231F20"/>
<path d="M46.0954 59.5508H46.0669V65.2978H46.0954V59.5508Z" fill="#231F20"/>
<path d="M46.1237 59.5508H46.0952V65.2978H46.1237V59.5508Z" fill="#231F20"/>
<path d="M46.1525 59.5508H46.124V65.2978H46.1525V59.5508Z" fill="#231F20"/>
<path d="M46.2091 59.5508H46.1807V65.2978H46.2091V59.5508Z" fill="#231F20"/>
<path d="M46.238 59.5508H46.2095V65.2978H46.238V59.5508Z" fill="#231F20"/>
<path d="M46.2951 59.5508H46.2666V65.2978H46.2951V59.5508Z" fill="#231F20"/>
<path d="M46.3234 59.5508H46.2949V65.2978H46.3234V59.5508Z" fill="#231F20"/>
<path d="M46.3805 59.5508H46.3521V65.2978H46.3805V59.5508Z" fill="#231F20"/>
<path d="M46.4089 59.5508H46.3804V65.2978H46.4089V59.5508Z" fill="#231F20"/>
<path d="M46.466 59.5508H46.4375V65.2978H46.466V59.5508Z" fill="#231F20"/>
<path d="M46.4943 59.5508H46.4658V65.2978H46.4943V59.5508Z" fill="#231F20"/>
<path d="M46.5514 59.5508H46.5229V65.2978H46.5514V59.5508Z" fill="#231F20"/>
<path d="M46.5798 59.5508H46.5513V65.2978H46.5798V59.5508Z" fill="#231F20"/>
<path d="M46.6081 59.5508H46.5796V65.2978H46.6081V59.5508Z" fill="#231F20"/>
<path d="M46.6652 59.5508H46.6367V65.2978H46.6652V59.5508Z" fill="#231F20"/>
<path d="M46.6935 59.5508H46.665V65.2978H46.6935V59.5508Z" fill="#231F20"/>
<path d="M46.7507 59.5508H46.7222V65.2978H46.7507V59.5508Z" fill="#231F20"/>
<path d="M46.779 59.5508H46.7505V65.2978H46.779V59.5508Z" fill="#231F20"/>
<path d="M46.8361 59.5508H46.8076V65.2978H46.8361V59.5508Z" fill="#231F20"/>
<path d="M46.8644 59.5508H46.8359V65.2978H46.8644V59.5508Z" fill="#231F20"/>
<path d="M46.9216 59.5508H46.8931V65.2978H46.9216V59.5508Z" fill="#231F20"/>
<path d="M46.9499 59.5508H46.9214V65.2978H46.9499V59.5508Z" fill="#231F20"/>
<path d="M47.007 59.5508H46.9785V65.2978H47.007V59.5508Z" fill="#231F20"/>
<path d="M47.0358 59.5508H47.0073V65.2978H47.0358V59.5508Z" fill="#231F20"/>
<path d="M47.0925 59.5508H47.064V65.2978H47.0925V59.5508Z" fill="#231F20"/>
<path d="M47.1213 59.5508H47.0928V65.2978H47.1213V59.5508Z" fill="#231F20"/>
<path d="M47.1496 59.5508H47.1211V65.2978H47.1496V59.5508Z" fill="#231F20"/>
<path d="M47.2067 59.5508H47.1782V65.2978H47.2067V59.5508Z" fill="#231F20"/>
<path d="M47.235 59.5508H47.2065V65.2978H47.235V59.5508Z" fill="#231F20"/>
<path d="M47.2922 59.5508H47.2637V65.2978H47.2922V59.5508Z" fill="#231F20"/>
<path d="M47.3205 59.5508H47.292V65.2978H47.3205V59.5508Z" fill="#231F20"/>
<path d="M47.3776 59.5508H47.3491V65.2978H47.3776V59.5508Z" fill="#231F20"/>
<path d="M47.4059 59.5508H47.3774V65.2978H47.4059V59.5508Z" fill="#231F20"/>
<path d="M47.4631 59.5508H47.4346V65.2978H47.4631V59.5508Z" fill="#231F20"/>
<path d="M47.4914 59.5508H47.4629V65.2978H47.4914V59.5508Z" fill="#231F20"/>
<path d="M47.5485 59.5508H47.52V65.2978H47.5485V59.5508Z" fill="#231F20"/>
<path d="M47.5768 59.5508H47.5483V65.2978H47.5768V59.5508Z" fill="#231F20"/>
<path d="M47.634 59.5508H47.6055V65.2978H47.634V59.5508Z" fill="#231F20"/>
<path d="M47.6623 59.5508H47.6338V65.2978H47.6623V59.5508Z" fill="#231F20"/>
<path d="M47.6906 59.5508H47.6621V65.2978H47.6906V59.5508Z" fill="#231F20"/>
<path d="M47.7477 59.5508H47.7192V65.2978H47.7477V59.5508Z" fill="#231F20"/>
<path d="M47.776 59.5508H47.7476V65.2978H47.776V59.5508Z" fill="#231F20"/>
<path d="M47.8332 59.5508H47.8047V65.2978H47.8332V59.5508Z" fill="#231F20"/>
<path d="M47.862 59.5508H47.8335V65.2978H47.862V59.5508Z" fill="#231F20"/>
<path d="M47.9186 59.5508H47.8901V65.2978H47.9186V59.5508Z" fill="#231F20"/>
<path d="M47.9474 59.5508H47.9189V65.2978H47.9474V59.5508Z" fill="#231F20"/>
<path d="M48.0041 59.5508H47.9756V65.2978H48.0041V59.5508Z" fill="#231F20"/>
<path d="M48.0329 59.5508H48.0044V65.2978H48.0329V59.5508Z" fill="#231F20"/>
<path d="M48.0895 59.5508H48.061V65.2978H48.0895V59.5508Z" fill="#231F20"/>
<path d="M48.1183 59.5508H48.0898V65.2978H48.1183V59.5508Z" fill="#231F20"/>
<path d="M48.175 59.5508H48.1465V65.2978H48.175V59.5508Z" fill="#231F20"/>
<path d="M48.2038 59.5508H48.1753V65.2978H48.2038V59.5508Z" fill="#231F20"/>
<path d="M48.2321 59.5508H48.2036V65.2978H48.2321V59.5508Z" fill="#231F20"/>
<path d="M48.2892 59.5508H48.2607V65.2978H48.2892V59.5508Z" fill="#231F20"/>
<path d="M48.3176 59.5508H48.2891V65.2978H48.3176V59.5508Z" fill="#231F20"/>
<path d="M48.3747 59.5508H48.3462V65.2978H48.3747V59.5508Z" fill="#231F20"/>
<path d="M48.403 59.5508H48.3745V65.2978H48.403V59.5508Z" fill="#231F20"/>
<path d="M48.4601 59.5508H48.4316V65.2978H48.4601V59.5508Z" fill="#231F20"/>
<path d="M48.4885 59.5508H48.46V65.2978H48.4885V59.5508Z" fill="#231F20"/>
<path d="M48.5456 59.5508H48.5171V65.2978H48.5456V59.5508Z" fill="#231F20"/>
<path d="M48.5739 59.5508H48.5454V65.2978H48.5739V59.5508Z" fill="#231F20"/>
<path d="M48.631 59.5508H48.6025V65.2978H48.631V59.5508Z" fill="#231F20"/>
<path d="M48.6593 59.5508H48.6309V65.2978H48.6593V59.5508Z" fill="#231F20"/>
<path d="M48.7165 59.5508H48.688V65.2978H48.7165V59.5508Z" fill="#231F20"/>
<path d="M48.7448 59.5508H48.7163V65.2978H48.7448V59.5508Z" fill="#231F20"/>
</g>
</svg>
