<svg width="70" height="58" viewBox="0 0 70 58" fill="none" xmlns="http://www.w3.org/2000/svg">
<g clip-path="url(#clip0_276_1805)">
<path fill-rule="evenodd" clip-rule="evenodd" d="M9.93133 8.1461L60.7733 13.2934C61.9091 13.4091 62.7381 14.4253 62.622 15.5572L58.8584 52.5384C58.7423 53.6703 57.7227 54.4965 56.5869 54.3809L56.2802 54.3478V52.274L56.7942 52.3236L60.5578 15.3424L9.72408 10.2034L9.16866 15.6729H7.08789L7.66818 9.99681C7.78424 8.8649 8.8039 8.03869 9.93962 8.15436L9.93133 8.1461Z" fill="black"/>
<path fill-rule="evenodd" clip-rule="evenodd" d="M18.2794 0.0415577L68.3421 10.2783C69.4613 10.5096 70.1825 11.6002 69.9587 12.7156L62.4646 49.1267C62.2408 50.2173 61.1796 50.9279 60.0937 50.7461L60.3009 48.6806L60.4336 48.7054L67.9276 12.2943L17.8566 2.06577L16.6794 7.79142L14.6069 7.58486L15.8255 1.65267C16.0577 0.537284 17.1519 -0.181519 18.2711 0.0415577H18.2794Z" fill="black"/>
<path fill-rule="evenodd" clip-rule="evenodd" d="M2.07248 16.7061H53.1798C54.3155 16.7061 55.2523 17.6314 55.2523 18.7716V55.9428C55.2523 57.0747 54.3238 58.0083 53.1798 58.0083H2.07248C0.93676 58.0083 0 57.083 0 55.9428V18.7716C0 17.6397 0.92847 16.7061 2.07248 16.7061ZM2.07248 18.7716V55.9428H53.1798V18.7716H2.07248Z" fill="black"/>
<path d="M37.0312 34.5277C39.1617 33.5445 40.6373 31.3964 40.6373 28.9095C40.6373 25.4972 37.8436 22.7129 34.4116 22.7129C30.9795 22.7129 28.1858 25.489 28.1858 28.9095C28.1858 31.4046 29.6697 33.5528 31.8085 34.536C31.0127 34.8747 30.2583 35.3622 29.5371 35.9818C28.8988 35.5274 28.1195 35.263 27.274 35.263C25.1186 35.263 23.3611 37.0063 23.3611 39.1545C23.3611 39.2784 23.3611 39.4106 23.3777 39.5345C22.8471 39.0636 22.2917 38.6753 21.7114 38.4026C23.4938 37.5434 24.729 35.7257 24.729 33.6189C24.729 30.6941 22.3332 28.3146 19.3985 28.3146C16.4639 28.3146 14.0681 30.6941 14.0681 33.6189C14.0681 35.7174 15.3033 37.5434 17.0857 38.4026C13.6288 40.0551 11.0092 45.3428 10.6693 51.9773C10.6527 52.283 10.8931 52.5474 11.1998 52.5639C11.5065 52.5804 11.7718 52.3408 11.7884 52.0351C12.1697 44.7149 15.5189 38.9727 19.4068 38.9727C21.3964 38.9727 23.2451 40.4764 24.6212 42.922C22.6316 44.5249 21.1975 47.8958 20.9819 51.9773C20.9653 52.283 21.2057 52.5474 21.5125 52.5639C21.8192 52.5804 22.0845 52.3408 22.1011 52.0351C22.358 47.1522 24.4885 43.2855 27.017 43.0377C27.0999 43.0377 27.1911 43.0459 27.274 43.0459C27.3569 43.0459 27.448 43.0459 27.5309 43.0377C30.0594 43.2855 32.1899 47.1522 32.4469 52.0351C32.4634 52.3325 32.7121 52.5639 33.0023 52.5639C33.0106 52.5639 33.0189 52.5639 33.0354 52.5639C33.3422 52.5474 33.5826 52.283 33.566 51.9773C33.3339 47.4744 31.6179 43.8391 29.2967 42.4841C30.4241 41.7984 31.1785 40.5673 31.1785 39.1545C31.1785 38.2539 30.8635 37.4194 30.3495 36.7585C31.6262 35.6761 33.0106 35.1061 34.4199 35.1061C36.8571 35.1061 39.2114 36.808 41.0518 39.8898C42.9419 43.0542 44.119 47.367 44.3595 52.0351C44.376 52.3325 44.6247 52.5639 44.9149 52.5639C44.9232 52.5639 44.9315 52.5639 44.948 52.5639C45.2548 52.5474 45.4952 52.283 45.4786 51.9773C45.0309 43.3186 41.5658 36.4528 37.0229 34.536L37.0312 34.5277ZM15.1956 33.6106C15.1956 31.2972 17.0857 29.4217 19.4068 29.4217C21.728 29.4217 23.6181 31.3055 23.6181 33.6106C23.6181 35.9157 21.728 37.7995 19.4068 37.7995C17.0857 37.7995 15.1956 35.9157 15.1956 33.6106ZM27.5475 41.914C27.4563 41.914 27.3734 41.9058 27.2822 41.9058C27.1911 41.9058 27.1082 41.9058 27.017 41.914C25.5994 41.7818 24.4885 40.5921 24.4885 39.1545C24.4885 37.626 25.7403 36.3784 27.274 36.3784C28.8076 36.3784 30.0594 37.626 30.0594 39.1545C30.0594 40.6004 28.9485 41.7818 27.5309 41.914H27.5475ZM34.4199 33.9907C31.6096 33.9907 29.3216 31.7103 29.3216 28.9095C29.3216 26.1086 31.6096 23.8283 34.4199 23.8283C37.2301 23.8283 39.5181 26.1086 39.5181 28.9095C39.5181 31.7103 37.2301 33.9907 34.4199 33.9907Z" fill="black" stroke="black" stroke-miterlimit="10"/>
</g>
<defs>
<clipPath id="clip0_276_1805">
<rect width="70" height="58" fill="white"/>
</clipPath>
</defs>
</svg>
