<svg width="41" height="39" viewBox="0 0 41 39" fill="none" xmlns="http://www.w3.org/2000/svg">
<g clip-path="url(#clip0_481_4096)">
<path d="M28.6599 31.4712L40.3799 18.7812V34.7812C40.3799 36.5512 38.9499 37.9812 37.1799 37.9812H3.57988C1.80988 37.9812 0.379883 36.5512 0.379883 34.7812V18.7812L13.1599 30.9412" stroke="black" stroke-width="0.75" stroke-linecap="round" stroke-linejoin="round"/>
<path d="M8.91992 34.4305L20.3799 26.2305L32.6599 34.4205" stroke="black" stroke-width="0.75" stroke-linecap="round" stroke-linejoin="round"/>
<path d="M4.37988 22.5209V0.380859H20.3799" stroke="black" stroke-width="0.75" stroke-linecap="round" stroke-linejoin="round"/>
<path d="M36.3799 22.9709V0.380859H20.3799" stroke="black" stroke-width="0.75" stroke-linecap="round" stroke-linejoin="round"/>
<path d="M0.379883 18.7813L4.37988 14.7812" stroke="black" stroke-width="0.75" stroke-linecap="round" stroke-linejoin="round"/>
<path d="M40.3799 18.7801L36.3799 15.5801" stroke="black" stroke-width="0.75" stroke-linecap="round" stroke-linejoin="round"/>
<path d="M14.12 11.6498C14.12 10.4298 15.12 9.42984 16.35 9.42984C16.76 9.42984 17.15 9.53984 17.48 9.73984C17.78 9.91984 17.99 10.2998 18.17 10.7698C18.39 11.3398 18.55 12.0198 18.53 12.0898C18.32 13.0998 17.42 13.8598 16.34 13.8598C15.11 13.8598 14.11 12.8598 14.11 11.6398L14.12 11.6498ZM20.74 24.5098C20.74 24.5098 20.68 24.5098 20.65 24.5098L15.76 24.1998C15.54 24.1398 14.36 23.7498 14.23 22.8198C14.16 22.2798 14.37 21.7798 14.58 21.4498C14.59 21.4698 14.6 21.4798 14.62 21.4998C14.77 21.6698 15.04 21.8998 15.42 22.1998C15.64 22.3698 15.91 22.4698 16.2 22.4898L20.83 22.7798C21.13 22.7998 21.4 22.9298 21.57 23.1398C21.71 23.3098 21.78 23.5098 21.76 23.7098C21.72 24.1598 21.27 24.5098 20.74 24.5098ZM19.63 19.5798C19.63 19.7998 19.79 19.9898 20.01 20.0098C20.01 20.0098 20.9 20.1198 21.71 20.3798L21.89 20.4398C21.97 20.4598 22.04 20.4798 22.13 20.4998C23.06 20.7298 23.67 20.9398 23.67 21.8598C23.67 22.9798 23.6 24.7598 23.6 24.8498C23.58 25.1498 23.26 25.3898 22.9 25.3598C22.88 25.3598 22.86 25.3598 22.83 25.3598C22.65 25.3298 22.51 25.1498 22.51 24.9498V24.2698C22.57 24.1198 22.62 23.9698 22.63 23.7998C22.67 23.3598 22.53 22.9298 22.24 22.5798C21.91 22.1998 21.42 21.9498 20.89 21.9198L16.25 21.6298C16.14 21.6298 16.04 21.5898 15.96 21.5198C15.74 21.3498 15.57 21.1998 15.44 21.0898C15.44 21.0898 15.44 21.0798 15.44 21.0698C14.77 20.1798 14.64 18.9398 14.64 17.2398C14.64 15.2798 15.76 14.7298 15.81 14.6998C15.99 14.7298 16.17 14.7498 16.36 14.7498C17.15 14.7498 17.87 14.4498 18.42 13.9698C19.22 14.0198 22.09 14.1498 23.81 13.5498C23.99 13.4898 24.18 13.4998 24.35 13.5898C24.52 13.6798 24.63 13.8298 24.68 14.0198C24.75 14.3398 24.55 14.6698 24.22 14.7898C23.57 15.0198 22.68 15.1698 21.83 15.3098L21.39 15.3798C20.42 15.5498 19.48 15.5798 18.59 15.4698C18.43 15.4498 18.33 15.4298 18.28 15.4298H18.24C18 15.3898 17.8 15.5598 17.76 15.7998C17.72 16.0398 17.9 16.2598 18.14 16.2998C18.2 16.2998 18.31 16.3298 18.49 16.3498C18.71 16.3798 18.94 16.3898 19.17 16.4098H20.07C20.55 16.3998 21.05 16.3498 21.55 16.2598L21.99 16.1898C22.88 16.0398 23.8 15.8798 24.52 15.6298C25.28 15.3698 25.84 14.8798 25.54 13.8398C25.24 12.7998 24.55 12.5998 23.44 12.8798C22.33 13.1598 21.28 13.1398 20.58 13.2198C19.88 13.2998 19.11 13.1498 19.11 13.1498C19.11 13.1498 19.3 12.9398 19.4 12.3898C19.44 12.1498 18.58 10.8698 18.43 10.5698C18.16 10.0098 18.02 9.03984 17.72 8.88984C17.31 8.69984 16.86 8.58984 16.38 8.58984C14.66 8.58984 13.27 9.97984 13.27 11.6798C13.27 12.8298 13.91 13.8398 14.85 14.3698C14.37 14.8298 13.77 15.7098 13.77 17.2598C13.77 18.5498 13.86 19.6498 14.19 20.5598C13.91 20.8898 13.22 21.8298 13.38 22.9698C13.6 24.5698 15.52 25.0698 15.6 25.0898C15.63 25.0898 15.65 25.0998 15.68 25.0998L18.43 25.2698L19.31 25.3298L20.61 25.4098C20.66 25.4098 20.71 25.4098 20.76 25.4098C21.09 25.4098 21.4 25.3298 21.67 25.1898C21.76 25.7298 22.19 26.1598 22.73 26.2398C22.78 26.2398 22.83 26.2498 22.87 26.2498C22.9 26.2498 22.93 26.2498 22.96 26.2498C23.77 26.2498 24.44 25.6698 24.49 24.9198C24.49 24.8598 24.57 23.0298 24.56 21.8698C24.56 20.1998 22.88 20.0498 22.11 19.8598C22.03 19.8398 21.82 19.8398 21.77 19.8198C21.22 19.6498 20.71 19.6498 20.35 19.5898H19.64L19.63 19.5798Z" fill="black"/>
<path d="M24.9001 10.8807C25.6901 10.7507 26.2301 10.9307 27.0001 11.0807C28.3201 11.3407 29.8801 11.6507 29.1701 14.3507L28.5401 16.3807L28.0401 17.9907C27.5401 19.4707 26.0201 20.4207 24.3601 20.2207L16.8801 19.3607C16.1801 19.2807 15.6701 18.6707 15.7601 18.0007C15.8401 17.3307 16.4901 16.8607 17.1901 16.9407L23.3401 17.4707C24.0801 17.5307 24.7501 17.1107 24.9801 16.4407" stroke="black" stroke-width="0.79" stroke-miterlimit="10" stroke-linecap="round"/>
<path d="M27.56 18.9004C27.46 19.9504 27.18 24.5104 26.99 25.7104" stroke="black" stroke-width="0.79" stroke-miterlimit="10" stroke-linecap="round"/>
<path d="M20.61 13.1799C20.61 13.1799 22.19 13.1799 23.09 12.8899C23.61 12.7199 24.43 11.9199 24.43 11.9199C25.33 10.9399 25.56 9.50986 25.19 8.13986L24.68 6.27986C24.25 4.69986 22.68 3.71986 21.03 3.98986C20.87 4.01986 20.75 3.95986 20.74 4.11986C20.55 6.49986 18.43 7.54986 17.41 7.96986C17.25 8.03986 17.16 8.20986 17.21 8.36986L17.62 10.0599C17.99 11.4199 18.77 12.6299 20.05 13.0199L20.62 13.1699L20.61 13.1799ZM16.11 8.88986C16.16 6.49986 17.18 3.98986 19.63 3.32986C21.16 2.90986 22.68 3.07986 23.94 4.03986C25.32 5.08986 25.92 6.70986 26.01 8.38986C26.05 9.08986 26.06 9.98986 26.1 10.6899C26.1 10.6899 26.99 10.7599 27 10.7599C26.97 10.7399 26.99 10.4399 26.99 10.4099C26.98 10.1699 26.97 9.93986 26.95 9.69986C26.92 9.15986 26.92 8.61986 26.9 8.07986C26.82 6.32986 26.14 4.66986 24.76 3.53986C23.54 2.53986 21.92 2.06986 20.34 2.26986C20.07 2.29986 19.8 2.35986 19.54 2.42986C16.75 3.18986 14.96 6.23986 15.26 8.97986L16.12 8.88986H16.11ZM22.4 12.2599C20.04 13.0299 18.76 11.6599 18.28 9.88986L17.94 8.65986C19.14 8.10986 21.04 7.00986 21.38 4.63986C22.58 4.55986 23.58 5.44986 23.89 6.59986L24.4 8.45986C24.88 10.2299 24.16 11.6799 22.39 12.2599H22.4Z" fill="black"/>
</g>
<defs>
<clipPath id="clip0_481_4096">
<rect width="40.75" height="38.35" fill="white"/>
</clipPath>
</defs>
</svg>
