<svg width="37" height="37" viewBox="0 0 37 37" fill="none" xmlns="http://www.w3.org/2000/svg">
<path d="M33.2251 10.7302C32.9302 9.10273 31.5254 7.91758 29.8951 7.54758C27.4554 7.03016 22.9402 6.66016 18.0551 6.66016C13.1728 6.66016 8.58537 7.03016 6.14279 7.54758C4.51537 7.91758 3.10764 9.02758 2.81279 10.7302C2.51506 12.5802 2.22021 15.1702 2.22021 18.5002C2.22021 21.8302 2.51506 24.4202 2.88506 26.2702C3.18279 27.8976 4.58764 29.0827 6.21506 29.4527C8.80506 29.9702 13.2451 30.3402 18.1302 30.3402C23.0154 30.3402 27.4554 29.9702 30.0454 29.4527C31.6728 29.0827 33.0776 27.9727 33.3754 26.2702C33.6702 24.4202 34.0402 21.755 34.1154 18.5002C33.9651 15.1702 33.5951 12.5802 33.2251 10.7302ZM14.0602 23.6802V13.3202L23.0876 18.5002L14.0602 23.6802Z" fill="white"/>
</svg>
