<svg width="867" height="974" viewBox="0 0 867 974" fill="none" xmlns="http://www.w3.org/2000/svg">
<g filter="url(#filter0_f_535_4758)">
<path d="M862.5 421C862.5 568.86 783.135 698.734 663.5 772.645C665.151 769.829 666.789 766.999 668.411 764.154C733.739 649.615 775.5 512.154 775.5 420.5C775.5 237.128 622.367 88.5 433.5 88.5C244.633 88.5 91.5 237.128 91.5 420.5C91.5 510.546 125.055 644.831 181.562 758.149C74.2595 682.439 4.5 559.624 4.5 421C4.5 190.987 196.556 4.5 433.5 4.5C670.444 4.5 862.5 190.987 862.5 421ZM185.469 763.679C185.054 762.864 184.64 762.048 184.227 761.23C254.543 809.883 340.582 838.5 433.5 838.5C516.868 838.5 594.698 815.463 660.603 775.588C629.5 828.01 593.45 874.949 554.284 909.512C512.166 946.679 466.485 969.5 419.5 969.5C372.519 969.5 328.591 946.683 289.103 909.522C249.615 872.363 214.602 820.893 185.469 763.679ZM667.543 763.658C665.61 767.047 663.657 770.415 661.684 773.761C595.594 814.141 517.358 837.5 433.5 837.5C340.121 837.5 253.713 808.536 183.285 759.358C126.331 645.804 92.5 510.799 92.5 420.5C92.5 237.708 245.157 89.5 433.5 89.5C621.843 89.5 774.5 237.708 774.5 420.5C774.5 511.928 732.814 649.218 667.543 763.658Z" stroke="black" stroke-opacity="0.1"/>
</g>
<defs>
<filter id="filter0_f_535_4758" x="0" y="0" width="867" height="974" filterUnits="userSpaceOnUse" color-interpolation-filters="sRGB">
<feFlood flood-opacity="0" result="BackgroundImageFix"/>
<feBlend mode="normal" in="SourceGraphic" in2="BackgroundImageFix" result="shape"/>
<feGaussianBlur stdDeviation="2" result="effect1_foregroundBlur_535_4758"/>
</filter>
</defs>
</svg>
