<svg width="863" height="912" viewBox="0 0 863 912" fill="none" xmlns="http://www.w3.org/2000/svg">
<g filter="url(#filter0_f_583_5294)">
<path d="M860.5 492.5C860.5 722.513 668.444 909 431.5 909C194.556 909 2.5 722.513 2.5 492.5C2.5 369.087 57.7896 258.205 145.637 181.935C121.579 227.371 108 278.895 108 333.5C108 516.872 261.133 665.5 450 665.5C638.867 665.5 792 516.872 792 333.5C792 305.245 788.364 277.816 781.523 251.627C831.26 319.63 860.5 402.752 860.5 492.5ZM450 2.5C607.427 2.5 739.921 106.045 779.177 246.782C700.982 142.658 574.374 75 431.5 75C323.41 75 224.63 113.724 149.08 177.667C206.491 73.428 319.706 2.5 450 2.5ZM431.5 76C574.992 76 702.022 144.393 779.903 249.428C787.145 276.275 791 304.451 791 333.5C791 516.292 638.343 664.5 450 664.5C261.657 664.5 109 516.292 109 333.5C109 278.15 122.997 225.971 147.743 180.118C223.366 115.32 322.701 76 431.5 76Z" stroke="black" stroke-opacity="0.1"/>
</g>
<defs>
<filter id="filter0_f_583_5294" x="0" y="0" width="863" height="911.5" filterUnits="userSpaceOnUse" color-interpolation-filters="sRGB">
<feFlood flood-opacity="0" result="BackgroundImageFix"/>
<feBlend mode="normal" in="SourceGraphic" in2="BackgroundImageFix" result="shape"/>
<feGaussianBlur stdDeviation="1" result="effect1_foregroundBlur_583_5294"/>
</filter>
</defs>
</svg>
