<svg width="343" height="479" viewBox="0 0 343 479" fill="none" xmlns="http://www.w3.org/2000/svg">
<g filter="url(#filter0_f_227_1201)">
<path d="M401.5 207.32C401.5 278.942 365.168 341.887 310.314 377.974C310.907 376.904 311.495 375.83 312.08 374.751C342.361 318.88 361.727 251.817 361.727 207.076C361.727 117.543 290.672 44.9441 203 44.9441C115.328 44.9441 44.273 117.543 44.273 207.076C44.273 250.772 59.6539 315.786 85.5778 370.864C36.4129 333.949 4.5 274.446 4.5 207.32C4.5 95.2954 93.3815 4.5 203 4.5C312.618 4.5 401.5 95.2954 401.5 207.32ZM88.3234 374.295C88.2807 374.207 88.2381 374.119 88.1955 374.031C120.66 397.409 160.259 411.14 203 411.14C241.308 411.14 277.092 400.11 307.478 380.989C293.192 406.17 276.684 428.694 258.776 445.324C239.287 463.422 218.185 474.5 196.513 474.5C174.847 474.5 154.559 463.426 136.29 445.335C118.022 427.245 101.815 402.177 88.3234 374.295ZM311.201 374.275C310.316 375.907 309.422 377.529 308.52 379.14C277.951 398.781 241.773 410.14 203 410.14C159.823 410.14 119.863 396.053 87.2842 372.131C60.9257 316.804 45.273 251.045 45.273 207.076C45.273 118.075 115.9 45.9441 203 45.9441C290.1 45.9441 360.727 118.075 360.727 207.076C360.727 251.602 341.429 318.501 311.201 374.275Z" stroke="black" stroke-opacity="0.1"/>
</g>
<defs>
<filter id="filter0_f_227_1201" x="0" y="0" width="406" height="479" filterUnits="userSpaceOnUse" color-interpolation-filters="sRGB">
<feFlood flood-opacity="0" result="BackgroundImageFix"/>
<feBlend mode="normal" in="SourceGraphic" in2="BackgroundImageFix" result="shape"/>
<feGaussianBlur stdDeviation="2" result="effect1_foregroundBlur_227_1201"/>
</filter>
</defs>
</svg>
